<?xml version="1.0" encoding="utf-8"?>
<!-- Generator: Adobe Illustrator 19.0.0, SVG Export Plug-In . SVG Version: 6.00 Build 0)  -->
<svg version="1.1" id="Layer_1" xmlns="http://www.w3.org/2000/svg" xmlns:xlink="http://www.w3.org/1999/xlink" x="0px" y="0px"
	 viewBox="0 0 537.2 478.2" style="enable-background:new 0 0 537.2 478.2;" xml:space="preserve">
<style type="text/css">
	.st0{fill:#FEFEFE;}
	.st1{fill:#3D4F75;}
	.st2{fill:#4D5E82;}
	.st3{fill:#EAF5FD;}
	.st4{fill:#1DD2FC;}
	.st5{fill:#18BDE4;}
	.st6{fill:#D8E3EA;}
	.st7{fill:#FEC56B;}
	.st8{fill:#1CA0C1;}
	.st9{fill:#2CD4FD;}
	.st10{fill:#90E8FA;}
	.st11{fill:#C1EAFB;}
	.st12{fill:#ADD3E5;}
	.st13{fill:#8CDFB1;}
	.st14{fill:#91B1BD;}
</style>
<g>
	<path class="st0" d="M2.1,472.6c-1.9,0.4-2.3,1.7-2,3.3c0.3,1.5,1.5,2.2,3,2.2c4.5,0.1,8.9,0,13.4,0c1.5,0,2.6-0.6,3.2-1.9
		c0.7-1.7,0-2.9-1.6-3.5C12.7,472.1,7.4,472.2,2.1,472.6z M175.1,110.4c-0.2,1.3-0.4,2.6-0.6,4c-0.6,1.3-0.4,2.7-0.1,4.1
		c-0.1,1.2-0.2,2.3-0.2,3.5c0,30.7-0.1,61.3,0,92c0,3.4-1,5.4-3.8,7.3c-4.5,3.1-8.8,6.6-12.8,10.4c-8.4,7.9-14.6,17.3-16.6,28.9
		c-1.4,7.9,1.9,11.8,9.9,11.8c4,0,8,0.1,12,0c3.2-0.1,6-0.4,5.5,4.4c-0.2,2,1.2,3.9,2.9,5c1.9,1.2,2.5,2.6,2.6,4.9
		c0.4,6.8,3.5,10.1,10.5,11.2c3,0.5,3.9,1.8,3.9,4.6c-0.1,14.5,0,29,0,43.5c0,2-0.1,3.3-2.6,3.9c-5.3,1.2-9.4,4.3-11.7,9.3
		c-0.9,1.9-2.3,2.4-4.3,2.6c-19.6,2.4-32.7,13.1-39.1,31.7c-0.9,2.6-1.9,3.7-4.7,4c-29.4,3.9-50.2,25.7-52.6,55.2
		c-0.2,2.4-0.8,3.4-3.2,4.1c-6.4,1.8-10.8,6.1-12.5,12.5c-0.8,3.1-2.3,3.4-4.9,3.3c-6.7-0.1-13.3-0.2-20,0c-2.5,0.1-6.8-1.6-6.9,2.6
		c-0.1,4.6,4.4,3,7,3c162,0.1,323.9,0.1,485.9,0.1c1,0,2,0,3,0c2.2,0,4.9,0,4.7-3c-0.1-3-2.8-2.7-5-2.7c-11.8,0-23.7-0.1-35.5,0.1
		c-3.2,0-5.1-0.3-5.8-4.1c-1-5.4-4.2-10-9.1-12.6c-3.5-1.9-4.3-4.4-4.9-7.8c-3.2-18.3-17.3-32.7-35.4-36.4c-1.6-0.3-4.1,0.5-4.4-2
		c-0.3-2,1.8-2.5,3.2-3.4c5.4-3.5,7.8-8.6,7-14.9c-0.8-6.2-4.4-10.5-10.4-12.1c-2.8-0.8-3.9-2.5-5.2-4.7
		c-8.1-14.5-20.4-23.4-36.7-26.7c-10.6-2.1-20.8-0.4-31.3,3.7c0-16.8,0-33.1,0-49.3c0-2.6,1.2-4,3.9-4.1c3-0.2,6.1-1.2,7.3-3.7
		c2.9-6.1,5.3-12.6,8.7-18.5c0.1-0.1,0-0.3,0-0.5c-0.3-2.3,0.9-2.8,2.9-2.7c4.8,0.1,9.7,0.1,14.5,0c8.4,0,11.6-4.2,10-12.5
		c-1.3-6.8-4.2-13-8.1-18.6c-5.8-8.3-13.4-14.8-21.7-20.4c-2.5-1.7-3.4-3.5-3.4-6.5c0.1-32.7,0.1-65.3,0.1-98c0-2.7,0-5.3-1.2-7.8
		c-1.7-8.5-6.4-15.3-12.7-20.9c-6.9-6.2-13.6-6.1-20.5,0.1c-2.6,2.4-4.9,5.1-7.4,7.8c-0.3-0.6-0.6-0.8-0.6-1.1
		c-0.1-1.2-0.1-2.3-0.1-3.5c-0.8-23.3-4.9-45.6-17.5-65.7C301.7,16.6,295,9.3,286,4.3c-10.5-5.9-21-5.6-31.3,0.4
		c-6.6,3.8-12,9-16.5,15c-12.1,16-17.7,34.5-20.1,54.1c-0.9,7.1-1.2,14.3-1.9,22.3c-1.9-2.2-3.1-3.8-4.4-5.2c-1.5-1.6-3-3.1-4.8-4.4
		c-5.4-4.1-10.4-4.7-15.7-1.1C182.6,91.4,176.8,99.7,175.1,110.4z M111.6,385.4c6.3-0.1,11.3-5.2,11.2-11.5
		c-0.1-6.2-5.4-11.4-11.6-11.2c-6.3,0.1-11.3,5.3-11.2,11.6C100.2,380.6,105.3,385.5,111.6,385.4z M461.9,419.5
		c6.4,0,11.3-4.9,11.3-11.3c0-6.4-5-11.4-11.3-11.4c-6.2,0-11.4,5.2-11.4,11.4C450.4,414.4,455.6,419.5,461.9,419.5z M70.3,435.5
		c0.2-4.8-3.4-8.8-8.1-8.9c-4.6-0.2-8.8,3.5-9,8.2c-0.2,4.7,3.5,8.7,8.2,8.9C66.2,443.8,70.1,440.3,70.3,435.5z M495.6,449.5
		c-4.6,0-8.5,4-8.5,8.6c0,4.8,3.8,8.5,8.6,8.4c4.8,0,8.5-3.7,8.5-8.5C504.2,453.4,500.3,449.5,495.6,449.5z M166.8,348.8
		c0.1-4.7-3.6-8.7-8.3-8.8c-4.7-0.1-8.6,3.6-8.8,8.3c-0.1,4.7,3.6,8.7,8.3,8.8C162.6,357.3,166.7,353.4,166.8,348.8z M383.5,340.4
		c4.8,0.1,8.6-3.6,8.6-8.4c0.1-4.7-3.7-8.6-8.4-8.6c-4.7-0.1-8.6,3.7-8.6,8.4C375,336.6,378.7,340.4,383.5,340.4z M103.2,386.8
		c-0.2-1.7-1.2-2.6-2.9-2.5c-1.8,0.1-2.7,1.2-2.6,2.9c0.1,1.6,1.2,2.8,2.9,2.7C102.3,389.7,103.2,388.6,103.2,386.8z M373.2,340.3
		c-0.2-1.6-1-2.7-2.7-2.8c-1.8-0.1-2.9,1-3,2.6c-0.1,1.9,1.1,3.2,3,3.1C372.1,343.1,373.2,342.1,373.2,340.3z M442.8,406.9
		c-0.3-1.4-0.9-2.7-2.7-2.8c-1.7-0.1-2.9,0.8-3,2.6c-0.1,1.7,0.9,2.8,2.6,2.9C441.5,409.8,442.4,408.8,442.8,406.9z M119.2,392.8
		c-0.1-1.7-1.1-2.8-2.8-2.8c-1.7,0-2.8,1-2.8,2.8c0,1.7,1,2.7,2.8,2.8C118.2,395.5,119.1,394.5,119.2,392.8z M537.2,475.3
		c-0.1-1.7-1-2.8-2.7-2.9c-1.7-0.1-2.9,1-3,2.6c-0.1,1.6,1,2.8,2.7,2.9C535.9,478.1,536.9,477,537.2,475.3z"/>
	<path class="st1" d="M366,108.5c1.2,2.5,1.2,5.2,1.2,7.8c0,32.7,0,65.3-0.1,98c0,3,0.9,4.8,3.4,6.5c8.3,5.6,15.9,12.1,21.7,20.4
		c4,5.6,6.8,11.8,8.1,18.6c1.6,8.4-1.6,12.5-10,12.5c-4.8,0-9.7,0.1-14.5,0c-2,0-3.2,0.4-2.9,2.7c0,0.2,0.1,0.4,0,0.5
		c-3.4,6-5.7,12.4-8.7,18.5c-1.2,2.5-4.3,3.6-7.3,3.7c-2.7,0.2-3.9,1.5-3.9,4.1c0,16.3,0,32.6,0,49.3c10.4-4.1,20.7-5.8,31.3-3.7
		c16.3,3.3,28.6,12.2,36.7,26.7c1.2,2.2,2.4,3.9,5.2,4.7c6,1.7,9.6,6,10.4,12.1c0.9,6.4-1.6,11.4-7,14.9c-1.4,0.9-3.5,1.4-3.2,3.4
		c0.3,2.5,2.9,1.7,4.4,2c18.1,3.7,32.2,18.1,35.4,36.4c0.6,3.4,1.4,6,4.9,7.8c4.9,2.6,8.1,7.1,9.1,12.6c0.7,3.8,2.6,4.2,5.8,4.1
		c11.8-0.1,23.7-0.1,35.5-0.1c2.2,0,4.9-0.3,5,2.7c0.1,3-2.5,3-4.7,3c-1,0-2,0-3,0c-162,0-323.9,0-485.9-0.1c-2.6,0-7.1,1.7-7-3
		c0.1-4.2,4.4-2.5,6.9-2.6c6.7-0.2,13.3-0.2,20,0c2.6,0,4.1-0.3,4.9-3.3c1.7-6.4,6-10.7,12.5-12.5c2.4-0.7,3-1.7,3.2-4.1
		c2.4-29.5,23.1-51.4,52.6-55.2c2.8-0.4,3.8-1.5,4.7-4c6.4-18.6,19.5-29.3,39.1-31.7c2-0.2,3.4-0.7,4.3-2.6c2.4-5,6.5-8.1,11.7-9.3
		c2.5-0.6,2.7-1.9,2.6-3.9c0-14.5-0.1-29,0-43.5c0-2.8-0.9-4.1-3.9-4.6c-7-1.1-10.1-4.4-10.5-11.2c-0.1-2.2-0.8-3.7-2.6-4.9
		c-1.7-1.1-3.1-3-2.9-5c0.5-4.7-2.3-4.5-5.5-4.4c-4,0.1-8,0.1-12,0c-7.9-0.1-11.2-3.9-9.9-11.8c2-11.6,8.2-21,16.6-28.9
		c4-3.8,8.3-7.2,12.8-10.4c2.8-1.9,3.8-3.9,3.8-7.3c-0.1-30.7-0.1-61.3,0-92c0-1.2,0.1-2.3,0.2-3.5c2.6,0.8,1.7,3,1.7,4.6
		c0.1,11.6,0,23.3,0.1,34.9c0,1.6-0.6,3.5,1.2,5.3c1.3-2.6,0.6-5,0.8-7.2c0.1-1.6-0.3-3.5,2.2-3.6c-0.9,10.2-0.2,20.5-0.4,30.7
		c0,1.4,0.5,2.2,2.1,1.9c0.4,0,0.7,0,1.1,0c4.8,0,9.6,0.2,14.4,0c5.2-0.2,10.5,1,15.7-0.7c0.7,0.2,1.4-2.6,1.9,0c0.4,2,1.6,2,3.1,2
		c-2.8,8.6-7.8,15.7-15.4,20.7c-6.4,4.2-12.9,8.1-19.2,12.3c-6,4-12.5,7.4-17.4,13l0,0c-0.7,0-1.1,0.3-1,1l0,0
		c-1.3,0.2-2.4,0.7-2.8,2c-1.7,1.8-3.4,3.7-5.1,5.5c-0.3,0.5-0.7,1-1,1.5c0,0,0,0,0,0c-5.5,5.5-8.1,12.4-9.5,19.8
		c-0.7,3.5,1.2,4.4,4.3,4.4c23.8,0,47.5,0,71.3,0c2.4,0,4-0.5,3.7-3.3c2-6.4,5.4-11.8,11.2-15.4c1.6-1,2.3-2.2,2.2-4.1
		c-0.1-8.1-0.2-16.3-0.2-24.4c0.2-7.3,0.3-14.7,0.5-22c2.9,0.3,3.6-1.2,3.6-3.8c-0.1-6.3-0.1-12.6,0-18.8c0-1.7-0.8-3.9,2-4.3
		c0,11.8,0,23.5,0.1,35.3c0,1.4-1.3,4,2.1,3.9c5.5,0,10.9,0.2,16.4,0c1.8,0,4,1.1,5.4-1.2c0-2.7,0-5.3,0-8c0-9.7,0.1-19.4,0.1-29.1
		c0.1-0.3,0.1-0.6,0.1-0.9c1,0,1.9,0,2.9,0c0,11.8,0,23.5,0.1,35.3c0,1.5-1.1,4,2.1,3.9c6,0,11.9-0.1,17.9,0.2
		c3.5,0.2,4.2-1.4,4.1-4.4c-0.2-3.6,0.1-7.3,0.1-10.9c3-1.2,3.5,2.3,5.5,3c0.1,14.9,0.2,29.8,0.3,44.7c0,2-0.3,4.1,1.8,5.3
		c6.2,3.6,9.5,9.5,12.1,15.8c-0.2,2.3,0.8,3.2,3.2,3.2c23.9,0,47.8,0,71.7,0.1c3.6,0,4.7-1.7,4-5.1c-2-8.9-5.9-16.8-12.8-23.1
		l0.1,0.1c-0.3-0.4-0.7-0.7-1-1.1c-6.4-7-13.9-12.3-22.1-17c-6.5-4.3-13.1-8.5-19.6-12.8c-5.2-3.4-9.7-7.5-12.6-13.2
		c-3.9-7.7-7.3-15.6-9.6-24c1.5,0.1,1.8,1.2,2,2.3c0.5,3.3,2.4,3.7,5.1,2.5c-0.8,4,7.2,3.9,4.1,9c-0.2,0.4,1.1,1.1,2,1.1
		c2,0,4,0.4,5.8-0.6c0.9,0.1,1.8,0.2,2.6,0.3c6.5,0.1,13,0.2,19.5,0.3c2.1,0.1,3-0.8,2.9-3c-0.2-6-0.2-12-0.3-18
		c0-3.3,0.1-6.7,0.1-10c-0.2-3.2-2.7-1.8-4.1-1.8c-10.6-0.1-21.3-0.1-31.9-0.1c0-0.9,0-1.8-0.1-2.7c1.7-0.1,3.3-0.2,5-0.3
		c4.3,0,8.7,0,13,0c5,0.1,9.9,0,14.9,0.3c2.6,0.1,3.5-0.8,3.4-3.4c-0.1-5,0.1-9.9,0.2-14.9c3,0.3,3.4-1.3,3.6-3.9
		C365.5,121.2,364,114.8,366,108.5z M247.9,292.8c-1.9,0-4.6-1.8-5.4,1.3c-0.6,2.4,0.7,4.5,2.9,5.8c0.7,0.4,1.6,0.6,2.4,0.6
		c4,0.1,8,0,11.9,0.1c1.3,0,2.3-0.3,2.2-1.9c-0.5-1.9-2-1.2-3.2-1.4c-1.6-0.3-4.4,1.1-4.4-1.6c0-2.2,2.7-1,4.1-1.3
		c1-0.2,2.3,0.4,3.2-1.4C256.9,292.1,252.4,292.4,247.9,292.8z M273.2,305.5c0-17.4,0.1-34.7,0.1-52.1c0-1.6,0.9-4-2.4-3.6
		c-3.8-0.9-3,1.9-3,3.9c0,17.5,0.1,35.1,0.1,52.6c0,2.7-1.6,6.9,2.8,6.9c4,0,2.2-4.2,2.5-6.7C273.4,306.1,273.2,305.8,273.2,305.5z
		 M316.2,275.5c-0.6,3.1,1.6,2.7,3.4,2.7c14.3,0,28.5,0,42.8,0c2,0,4.1,0,4.6-2.7c0.5-2.5-0.7-3.1-3-3.1c-14.9,0.1-29.8,0.1-44.7,0
		C317,272.4,315.7,273,316.2,275.5z M174.2,275.5c0.4,2.4,2.2,2.7,4.1,2.7c14.6,0,29.3,0,43.9,0c1.9,0,3.4-0.2,2.9-2.7
		c0.4-2.5-0.8-3.1-3.1-3.1c-14.9,0.1-29.9,0.1-44.8,0C174.9,272.4,173.6,272.9,174.2,275.5z M310.1,277.5c0-3.7-0.1-7.4-0.1-11
		c-1.7-10.4-8.4-15.8-20.6-16.5c-2.3-0.1-4.6-0.2-6.9-0.4c-2.2-0.2-3.4,0.6-3.3,3.1c0.3,9.4-0.5,18.8,0.5,28.2
		c-1.3,4.4,0.1,6.2,4.8,5.7c2.3-0.3,4.7,0,7,0c5.4,0,5.7-0.4,3.7-5.7c1.4-0.6,2.7-1.9,4.1,0c0.3,1.9-1.5,5.4,1.3,5.4
		c2.7,0,1.2-3.4,1.1-5.4c1.2-1.9-1.1-5.7,1.7-5.9c2.1-0.1,0.5,3.7,1.5,5.6c-0.2,1.7-1.3,4.3,0.6,4.7c2.2,0.6,3.5-1.9,4.3-3.9
		C310.1,280.1,310,278.7,310.1,277.5z M210.8,287.7c3.3-3.1,7.3-0.9,10.9-1.5c1.1-0.2,2.7,0.4,2.9-1.2c0.2-1.8-1.5-1.4-2.5-1.4
		c-13.3,0-26.6,0-39.9,0c-3.5,0-3.6,1.7-1.7,4.1c0.1,3.8,2.8,4.5,5.8,4.5c10.6,0.1,21.3,0,31.9,0c2.4,0,4.4-0.6,5.8-3.1
		C219.3,287.8,214.8,289.9,210.8,287.7z M317.3,287.7c-0.2,4.4,3,4.5,6,4.5c10.4,0.1,20.8,0,31.2,0c2.3,0,4.4-0.3,5.6-2.9
		c-2.7-1.4-5.6,0.2-7.9-1.6c1.6-2.1,3.9-1.4,6-1.6c1.1-0.1,2.7,0.3,2.6-1.4c-0.1-1.3-1.4-1.1-2.4-1.1c-13.1,0-26.2,0-39.3,0
		C315.5,283.6,315.5,285.3,317.3,287.7z M257.9,311.3c0,0,0.2-0.1,0.2-0.1c-0.1,11-0.1,21.9-0.2,32.9c0,11.3,0,22.6,0.1,33.9
		c0,1.7-0.9,4.8,2.5,4c6.5-1.6,12.8-1.1,19.2,0.1c2.2,0.4,3.4,0.3,3.4-2.5c-0.1-22.9-0.1-45.9-0.2-68.8c-0.7-1.4,2.9-3.8-1.1-4.4
		c-3.2-0.5-2.7,1.8-2.8,3.8c-0.3,5.5-3.7,9.1-8.5,9.1c-4.7,0-8.2-3.6-8.6-9.1c-0.1-1.9,0.5-4.1-2.8-3.8c-3.7,0.4-0.3,3-1.4,4.1
		c-0.1,0.1-0.3,0.2-0.3,0.2C257.6,310.9,257.8,311.1,257.9,311.3z M279.8,467.5c-1.3,1-2.9,2.6-2.4,4c0.6,1.9,2.9,0.8,4.4,0.8
		c9.3,0.1,18.6,0.1,27.9,0c2.5,0,6.6,1.3,7.2-0.9c0.7-2.6-2.3-5.1-4.8-6.9C301.7,455.6,287.9,456.8,279.8,467.5z M341.1,188.4
		c-1.7,0-3.3-0.2-5-0.1c-1.6,0.1-3.7-0.9-4.6,0.8c-1,1.8,0.7,3.4,1.8,4.8c7.2,9.3,17.8,13.9,27.8,20.4c0-4.2,0-7.6,0-10.9
		c0.1-4.1,0.1-8.3,0.2-12.4c0.1-2.1-0.8-3-2.9-2.9C352.7,188.3,346.9,188.4,341.1,188.4z M274.2,243.6c6.2,0,12.3,0,18.4,0.1
		c2.5,0.1,3.6-0.8,3.5-3.4c-0.2-8.6-0.1-17.3-0.2-25.9c0-0.9-0.2-1.7-1.3-1.7c-6.8,0-13.6,0-20.4,0c-2.1,0-2.3,1.4-2.3,3
		c0,8.6,0,17.2,0,25.9C272.1,243,272.1,244.4,274.2,243.6z M269,214.5c0-0.9-0.2-1.7-1.3-1.7c-6.8,0-13.6,0-20.4,0
		c-2.1,0-2.3,1.4-2.3,3c0,8.5,0,16.9,0,25.4c0,1.4,0,2.7,2,2.7c6.3,0.9,12.5,0.3,18.8,0.4c2.5,0,3.3-1.3,3.3-3.8
		C269.1,231.7,269.1,223.1,269,214.5z M261.8,280.7c0.1-6.8,0.2-13.6,0.3-20.4c0-11.1,0-11.2-11.1-10.7
		c-11.2,0.5-17.6,6.8-19.7,16.4c-0.7,3.4-0.2,7-0.3,10.4c0.2,7,3.1,10,10,10.1c5.2,0.1,10.3-0.3,15.5,0.1
		C261.4,287,263.1,285.3,261.8,280.7z M195,298c-0.3,0.5-0.9,1.1-0.9,1.6c0,15.8,0,31.6-0.1,47.5c0,1.8,0.9,2.5,2.4,3.3
		c9.8,4.9,13,11.3,10.9,21.9c-0.5,2.7,0,4.5,2.4,5.7c1.8-1.2,1.2-3,1.2-4.6c0.1-23.8,0.1-47.6,0.1-71.5c0-1.4,0.8-3.1-1.1-4
		C205,298,200,298,195,298z M345.9,298c-4.8,0-9.6,0-14.4,0c-1.2-0.1-1.3,0.7-1.3,1.6c0,19,0.1,37.9,0.1,56.9c0,3.4,2.5,5.2,4.6,6.7
		c2,1.4,3-1.7,4.5-2.8c1.6-1.2,3-2.7,4.7-3.7c2.5-1.4,3.2-3.3,3.2-6.1c-0.1-16.3,0-32.6,0-48.9C347.2,300.4,348.2,298.5,345.9,298z
		 M185,356.3c-3.8,1.1-5.8,3.8-6.8,7.3c-0.8,2.8-2.3,3.5-5.1,3.6c-15.7,0.4-27.2,7.9-34.7,21.5c-4.1,7.4-3.9,7.6,4.2,8.9
		c1.1,0.2,2.3,0.3,3.4,0.8c2.5,1,7.2,0.3,6,4.6c-1.1,4.2-4.8,1.4-7.2,0.9c-24.9-5.8-52.5,7.9-61,30.3c-3.8,6.7-5.1,14.1-5,21.6
		c0.1,3.8-0.5,5.9-5.1,5.9c-3.8,0-6.9,2.2-9.1,5.4c-0.9,1.3-2.3,2.9-1.6,4.5c0.8,1.6,2.7,0.7,4.1,0.7c23.5,0.1,47-0.6,70.5,0.3
		c9.8,0.4,16.5-1.8,20.4-11c0.1-0.2,0.1-0.3,0.2-0.5c14.5-16.8,32.5-26.6,54.9-27.5c3-0.1,2.9-1.7,3.1-3.8
		c2.1-20.5,12.4-35.3,31-44.3c2.3-1.1,4.9-1.3,4.9-5.1c0-3.8-1-6.3-4.5-7.8c-5.5-2.4-11-3.6-16.9-1.9c-5.7,1.2-10.5,3.7-13.9,8.6
		c-2.5,2.2-4.5,4.5-2.1,8.1c1.2,1.8,1.7,3.9-0.8,5.1c-2.5,1.1-3.5-0.8-4.5-2.7c-2-4-4.4-7.9-7.7-10.9c-2-1.9-2.3-3.4-1-6
		c3-5.9,1.5-11-3.8-15.2C193.3,354.6,189.3,354.1,185,356.3z M175.4,453.2c-6,4.1-10.9,9.2-14.7,15.3c-0.7,0.9-2,1.7-1.6,2.9
		c0.4,1.5,2,0.8,3,0.8c35,0.1,69.9,0.1,104.9,0.1c2.2,0,3.5-0.5,4.6-2.7c5.1-10.7,13.7-16.6,25.7-16.6c12,0,20.6,5.8,25.8,16.5
		c1,2.1,2.1,2.9,4.5,2.9c19.1-0.1,38.3-0.1,57.4-0.2c1.1,0,2.6,0.7,3.1-0.7c0.5-1.2-0.9-2-1.6-2.8c-4.2-5.9-9.2-10.9-15.5-14.6
		c-1.9-1.3-3.8-2.7-5.8-3.8c-13-7.1-26.9-9.4-41.5-7.7c-2.1,0.2-4.4,0.6-4.8-2c-0.5-3,2-3.4,4.2-3.7c4.6-0.6,9.3-0.9,13.9-0.4
		c2.9,0.3,3.3-1,3-3.5c-1.2-8.9-11-14.5-19.2-10.8c-5.6,2.5-5.6,2.5-7.6-3.6c-7.3-22.1-30.4-35.5-53.2-30.8
		c-5.3,0.9-10.3,2.6-14.8,5.7c-12.2,6.9-19.3,17.4-22.1,30.9c-1.7,8.2-1.6,8.2,6.3,10.1c0.3,0.1,0.7,0.1,1,0.2
		c1.6,0.5,2.7,1.5,2.4,3.2c-0.3,1.6-1.5,2.6-3.2,2.4c-1.2-0.1-2.3-0.4-3.4-0.5C207.4,437.7,190.4,441.5,175.4,453.2z M456.3,437.5
		c-2.4-5.5-6.3-9.7-11-13.2c-8.7-6.4-18.5-8.9-29.2-7.5c-2,0.3-3.9,0.2-4.2-2.2c-0.4-2.4,1.4-3.1,3.4-3.4c0.7-0.1,1.3-0.4,2-0.3
		c2.6,0.2,3.7-1.3,3.7-3.6c-0.1-3.3,1.6-4.5,4.5-5.6c4.2-1.6,6.2-5.1,5.6-9.6c-0.6-4.4-3.4-7.5-7.8-7.8c-3.5-0.2-4.7-2-6-4.8
		c-13.4-28.8-51.3-36-74.5-14.1c-2.8,2.7-4.9,5.1-2.9,9.4c0.9,1.9,1.6,5-1.7,5.7c-3,0.7-3.2-2.1-3.8-4.2
		c-3.1-10.8-10.1-17.3-21.3-19.2c-16.5-2.7-28.6,11-23.8,26.9c0.4,1.4,1.4,1.8,2.4,2.2c12.2,6,20.9,15.3,26,27.8
		c0.7,1.7,1.2,2.6,3.5,2.2c14.2-2.5,23,4.2,24.6,18.8c0.2,1.8,0.6,2.7,2.4,3.1c17.6,3.6,31.4,13.1,43,26.4c2.6,2.9,2.8,8,8.4,7.9
		c24.1-0.1,48.2-0.1,72.3,0c3.8,0,3.7-1.4,2.6-4.1c-2.9-7.3-10.2-11.6-18.4-10.6c-2.1,0.3-4.3,0.8-4.8-1.9c-0.6-3,1.9-3.4,4-3.9
		c6.4-1.3,6.4-1.3,4.3-7.8C458.6,441.8,458,439.4,456.3,437.5z M252.2,367.5c0-19,0-38,0-56.9c0-2.4-1.5-3.9-3.7-4.1
		c-7.9-0.6-11.6-5-12-12.6c-0.1-3.3-3.3-2.9-5.1-4c-1.9-1.1-1.7,1.4-2.3,2.3c-1.8,2.8-4.2,5-7.5,5.3c-4.3,0.4-5,2.7-4.9,6.4
		c0.1,21,0,42,0.1,63c0,1-0.5,2.3,0.6,3.1C229.7,363.1,233,362.9,252.2,367.5z M324.5,354.5c0-18.2,0-35.6,0-53.1
		c0-2.6-1.4-3.5-3.8-3.7c-3.5-0.3-6.2-2.1-8.4-4.8c-0.8-1-0.4-4-3-2.7c-2,1-4.6,1.1-4.7,4.8c-0.2,6.8-3.7,10.5-10.3,11.3
		c-3.8,0.5-5.2,2.4-5.2,5.9c0,5.8,0,11.7,0,17.5c0,9.2,0,18.5,0,28.5C300.4,350.1,311.8,349,324.5,354.5z M179.9,215
		c11.6-8.3,25.1-12.6,31.4-26.8c-10,0-19.3,0-28.5,0c-1.8,0-2.8,0.5-2.8,2.5C179.9,198.4,179.9,206.2,179.9,215z M279.7,300.4
		c4.9,0,9.8,0.2,14.6-0.1c2.5-0.1,4.2-2,4.5-4.6c0.1-1.2,0.6-2.9-1.2-3.3c-1.2-0.2-2.5-0.5-3.3,1.2c-1.9,3.9-5.2,5.1-9.3,4.9
		C283.2,298.5,281.3,298,279.7,300.4z"/>
	<path class="st2" d="M272,170.4c-1,0-1.9,0-2.9,0c0,0,0-0.1,0-0.1c0-1,0-1.9,0-2.9c1,0,2.1-0.1,3.1-0.1c0.6-0.1,1.2-0.1,1.9-0.2
		c6.1,0.1,12.2,0,18.4,0.2c2.9,0.1,3.7-1.1,3.6-3.8c-0.1-11.4-0.1-22.8-0.1-34.3c-0.2-2.9-2.4-1.7-3.7-1.7
		c-6.6-0.1-13.3-0.1-19.9-0.1c-1.1,0-2.3,0-3.4,0c-6.5,0-13,0.2-19.4,0c-3.4-0.1-4.6,0.9-4.5,4.4c0.2,11.8,0.1,23.6,0.1,35.4
		c0,1.1,0,2.1,0,3.2l0,0c-2.8,0.5-1.9,2.7-2,4.3c-0.1,6.3-0.1,12.6,0,18.8c0.1,2.7-0.6,4.2-3.6,3.8c-0.1-1-0.2-2-0.2-3
		c-0.1-17.8-0.2-35.6-0.2-53.3c0-6.3,0-12.6,0-18.9c-2,5.2-3.4,10.6-5,16c-4.7,16.3-8.8,32.7-16,48.2c-1.4,0-2.7,0-3.1-2
		c-0.5-2.6-1.2,0.3-1.9,0c0-0.3-0.1-0.7-0.1-1c0-1-3.1-2.3,0.2-2.9c2.1-0.4,2.1-1.8,2.2-3.2c2.1-7.6,0.7-15.3,1.1-22.9
		c-0.6-2.9-2.9-1.6-4.4-1.7c-10.6-0.2-21.2-0.1-31.8-0.2c-2.5,0.1-2.1,2-2.2,3.6c-0.2,2.2,0.5,4.5-0.8,7.2c-1.7-1.8-1.1-3.7-1.2-5.3
		c-0.1-11.6,0-23.3-0.1-34.9c0-1.6,1-3.8-1.7-4.6c-0.3-1.4-0.5-2.7,0.1-4.1c2.4-1,2-2.4,0.6-4c1.8-10.8,7.5-19.1,16.4-25.1
		c5.2-3.6,10.2-3,15.7,1.1c1.7,1.3,3.3,2.8,4.8,4.4c1.4,1.4,2.5,3,4.4,5.2c0.7-8,1-15.1,1.9-22.3c2.4-19.6,8-38.1,20.1-54.1
		c4.5-6,9.9-11.2,16.5-15c10.4-6,20.8-6.3,31.3-0.4c8.9,5,15.7,12.3,21.1,20.9c12.6,20.1,16.8,42.5,17.5,65.7c0,1.2,0,2.3,0.1,3.5
		c0,0.3,0.3,0.5,0.6,1.1c2.5-2.7,4.8-5.4,7.4-7.8c6.9-6.2,13.6-6.2,20.5-0.1c6.3,5.7,11.1,12.4,12.7,20.9c-2,6.3-0.5,12.7-0.9,19.1
		c-0.1,2.6-0.6,4.2-3.6,3.9c-0.2-3.3-0.3-6.7-0.5-10c1.4-2.3,0.1-2.9-1.9-2.9c-5.1,0.1-10.2,0.2-15.2,0.4c-4.6,0-9.1,0-13.7-0.1
		c-2.1,0.4-6.2-2.9-5.5,2.9c-0.3,9.4-0.7,18.8,0.3,28.1c0,0.9,0,1.8,0.1,2.7c0,1.3-0.1,2.6-0.1,3.9c-1.6,6.2-0.5,12.5-0.6,18.8
		c-2.7,1.2-4.6,0.9-5.1-2.5c-0.2-1.2-0.6-2.3-2-2.3c-1.1-3-2.2-5.9-3.3-8.9c-3.7-13.1-7.5-26.1-11.2-39.2c-0.7,1.8-0.7,3.5-0.7,5.1
		c-0.1,23.3-0.1,46.7-0.2,70c-2-0.7-2.5-4.2-5.5-3c-0.1-7.6-0.2-15.2-0.4-22.9c-0.5-1.9-2.1-1.3-3.2-1.3
		C285.8,170.3,278.9,170.4,272,170.4z M319,94.2c-0.4-3.3,0.5-6.6-0.8-9.8c-0.5-18.6-4.9-36.2-13.8-52.6c-1.6-2.9-3.3-4.5-6.9-4.3
		c-7,0.4-14,0-21,0.2c-1.6,0-4.4-1.1-4.3,1.8c0.2,3.3-2.4,7.9,1.8,9.9c6.3,2.9,10.2,7.7,14,13.1c2,2.9,2.6,6.5,5.3,8.9
		c-0.2,1-0.3,1.9,0.2,2.9c2.8,5.4,5.1,11,6.4,17c1,4.5,2,9,3.1,13.5c0,1,0,1.9,0.1,2.9c4.4,19.1,8.5,38.3,15.8,56.7
		c0-9.3,0-18.6,0-27.8c0.1-9.6,0.1-19.2,0.2-28.7C319,96.5,319,95.4,319,94.2z M244.1,22.4c0.8,1.1,2,1,3.2,1c15.4,0,30.9,0,46.3,0
		c1.3,0,2.7,0.3,3.5-1.3c-0.1-0.6,0-1.4-0.9-1.7C281.4,2,264.1,1,247.7,17.5c-0.6,0.6-1.1,1.2-1.6,1.9c-0.4,0.3-0.7,0.6-1.1,0.9
		C244.1,20.8,244,21.6,244.1,22.4z M245,124.5c0.7,0,1.5,0,2.2,0.1c1,0,2,0,3,0c5.3,0,10.7,0,16,0c1,0,2.1,0,3.1,0
		c0.9,0,1.8,0,2.7,0c0.7,0,1.5,0,2.2,0.1c6,0,12,0,17.9,0.2c2.9,0.1,4.2-0.7,4.1-3.9c-0.2-8.1-0.1-16.3-0.2-24.4
		c0.3-2.2-0.7-3-2.8-2.9c-6.1,0.1-12.3,0-18.4,0c-1.5,0-2.6,0.5-2.9,2c-0.8,0-1.6,0-2.4,0c-0.4-1.2-1.1-2-2.4-2
		c-6.6,0-13.1,0-19.7,0c-1.4,0-2.1,0.7-1.9,2.2c-0.1,0.3-0.2,0.6-0.4,0.8c-1.5,0.2-1.8,1.2-1.8,2.5c0,7.7,0,15.3,0,23
		C243.1,123.3,243.6,124.2,245,124.5z M261.3,44L261.3,44c1.5-1,1.9-3.2,3.9-3.5c4-0.6,4.2-3.4,3.9-6.6c-0.1-1.5-0.1-3-0.2-4.5
		c0.1-2.6-1.9-1.8-3.1-1.8c-6.2,0-12.5,0-18.7,0.1c-0.4,0-0.7,0-1.1,0c-2.8,0.2-5.9-1.4-8,2.2C226.8,50,222.2,71.7,223,94.7
		c0,0.8,0.1,1.7,0.1,2.5c-1.5,6-0.8,12.1-0.3,18.2c-1.2,13.3-0.1,26.6,0,40c3.5-12.6,8.6-24.7,10.5-37.8c1.6-6.7,3.1-13.4,4.7-20.1
		c0-0.9,0-1.8,0-2.7c1-0.8,0.9-2,1.2-3.2c2.6-12.6,5.5-25,12.8-35.9c-0.2,2.4,0.7,4.4,2.6,5.9c-0.2,0.7-0.4,1.4-0.6,2.1
		c-3.7,7.8-7,15.8-7.9,24.5c0.7,1.6,2.2,1.3,3.4,1.3c14,0,28,0,42,0c1.3,0,2.7,0.3,3.5-1.3c-1.1-12.3-6.2-23.2-12.5-33.6
		c-2.3-3.8-4.9-7.5-9.4-9.1c-4-1.9-6.8,0.5-9.6,2.8C262.8,46.8,264.1,44.4,261.3,44z M180.1,121.5c-0.1,8.2,0,16.5-0.3,24.7
		c-0.1,3.4,1.4,3.9,4.2,3.3c4.3,0,8.7,0,13,0c5.3,0.1,10.6,0,15.9,0.3c2.9,0.1,3.8-1,3.7-3.7c-0.1-8.1-0.1-16.2-0.1-24.3
		c0.6-2.6-0.8-3.2-3-3.2c-10.3,0-20.5,0-30.8,0C180.7,118.5,179.7,119.3,180.1,121.5z M217,112.8c-2-2.4-3.4-1.9-4.6-2.1
		c-1.2-0.1-3.1,0.6-3-1.5c0.1-1.5,1.7-1.4,2.8-1.4c2.1,0,3.3-0.3,2.1-2.8c-2.8-6.1-6.6-11.5-12.4-15.2c-2.2-1.4-4.3-1.7-6.5-0.2
		c-7.4,5-12.7,11.4-14.6,20.3c-0.4,1.9-0.3,2.8,1.9,2.8C193.7,112.8,204.8,112.8,217,112.8z M359.8,107.1c-2.3-6.5-6.2-12-11.6-16.3
		c-3.3-2.6-6.5-2.8-9.9-0.1c-6.1,4.7-10,10.9-12.5,18.2c-1.2,3.4,0.1,3.9,3.1,3.9c9.8-0.1,19.6,0,29.4-0.1c0.9,0,2,0.4,2.5-0.9
		c-0.3-1.1-1.2-1-2-1.2c-1.9-0.5-5.5,1.2-5.5-1.3C353.3,106.4,357.2,108.6,359.8,107.1z"/>
	<path class="st1" d="M111.6,385.4c-6.4,0.1-11.5-4.9-11.6-11.2c-0.1-6.3,4.9-11.5,11.2-11.6c6.2-0.1,11.5,5,11.6,11.2
		C123,380.2,117.9,385.4,111.6,385.4z M117.1,374c-0.5-3.4-2.4-5.6-5.9-5.5c-3.5,0.1-5.5,2.4-5.3,5.9c0.2,3.2,2.2,5.2,5.5,5.2
		C114.9,379.6,116.8,377.4,117.1,374z"/>
	<path class="st1" d="M461.9,419.5c-6.3,0-11.4-5.1-11.4-11.4c0-6.2,5.2-11.4,11.4-11.4c6.3,0,11.3,5.1,11.3,11.4
		C473.2,414.5,468.2,419.5,461.9,419.5z M467.5,408.3c-0.3-3.5-2.1-5.7-5.6-5.7c-3.5,0-5.6,2.2-5.6,5.6c0,3.2,2,5.3,5.3,5.4
		C465.1,413.8,467,411.8,467.5,408.3z"/>
	<path class="st1" d="M70.3,435.5c-0.2,4.8-4.1,8.4-8.9,8.1c-4.7-0.2-8.4-4.2-8.2-8.9c0.2-4.6,4.3-8.4,9-8.2
		C66.9,426.7,70.5,430.7,70.3,435.5z M61.8,432.3c-1.6,0.3-2.8,1.2-2.7,2.9c0.1,1.5,1.2,2.4,2.7,2.4c1.7,0,2.8-1.1,2.7-2.9
		C64.3,433.4,63.4,432.5,61.8,432.3z"/>
	<path class="st1" d="M495.6,449.5c4.7,0,8.5,3.9,8.6,8.6c0,4.8-3.6,8.5-8.5,8.5c-4.8,0-8.6-3.7-8.6-8.4
		C487.1,453.5,491,449.6,495.6,449.5z M498.3,458.3c0-1.5-0.7-2.6-2.2-2.8c-1.8-0.3-2.9,0.7-3.1,2.4c-0.2,1.8,1,2.8,2.7,2.9
		C497.2,460.8,498.1,459.9,498.3,458.3z"/>
	<path class="st1" d="M166.8,348.8c-0.1,4.6-4.2,8.5-8.8,8.3c-4.7-0.2-8.4-4.1-8.3-8.8c0.1-4.7,4-8.4,8.8-8.3
		C163.2,340.1,167,344.1,166.8,348.8z M158.5,351.4c1.6-0.4,2.7-1.3,2.6-3c-0.1-1.7-1.3-2.7-2.9-2.6c-1.6,0.1-2.8,1.2-2.7,2.9
		C155.6,350.3,156.8,351.3,158.5,351.4z"/>
	<path class="st1" d="M383.5,340.4c-4.8-0.1-8.5-3.9-8.4-8.6c0.1-4.8,3.9-8.5,8.6-8.4c4.7,0.1,8.5,3.9,8.4,8.6
		C392.1,336.8,388.3,340.5,383.5,340.4z M386.3,332c-0.1-1.4-0.8-2.5-2.3-2.7c-1.8-0.2-2.9,0.7-3.1,2.4c-0.2,1.5,0.7,2.5,2.2,2.8
		C385,334.8,385.9,333.8,386.3,332z"/>
	<path class="st1" d="M2.1,472.6c5.3-0.4,10.6-0.5,16,0.1c0.4,2.7-0.6,4-3.5,3.9c-3-0.2-6-0.2-9,0C2.5,476.7,1.8,475.2,2.1,472.6z"
		/>
	<path class="st2" d="M2.1,472.6c-0.3,2.6,0.4,4.1,3.5,3.9c3-0.2,6-0.2,9,0c3,0.2,3.9-1.2,3.5-3.9c1.7,0.7,2.3,1.9,1.6,3.5
		c-0.6,1.3-1.7,1.9-3.2,1.9c-4.5,0-8.9,0-13.4,0c-1.4,0-2.7-0.7-3-2.2C-0.2,474.3,0.2,472.9,2.1,472.6z"/>
	<path class="st1" d="M103.2,386.8c0,1.8-1,2.9-2.6,3c-1.7,0.1-2.9-1-2.9-2.7c-0.1-1.6,0.9-2.8,2.6-2.9
		C102.1,384.1,103,385.1,103.2,386.8z"/>
	<path class="st2" d="M373.2,340.3c-0.1,1.8-1.2,2.9-2.7,2.9c-1.9,0-3.1-1.2-3-3.1c0.1-1.6,1.2-2.7,3-2.6
		C372.2,337.5,373.1,338.6,373.2,340.3z"/>
	<path class="st1" d="M442.8,406.9c-0.4,1.8-1.4,2.9-3.1,2.8c-1.7-0.1-2.7-1.2-2.6-2.9c0.1-1.7,1.2-2.6,3-2.6
		C441.9,404.3,442.5,405.6,442.8,406.9z"/>
	<path class="st1" d="M119.2,392.8c-0.1,1.7-1,2.7-2.8,2.7c-1.7,0-2.8-1.1-2.8-2.8c0-1.7,1.1-2.8,2.8-2.8
		C118.1,390,119.1,391,119.2,392.8z"/>
	<path class="st1" d="M537.2,475.3c-0.3,1.7-1.3,2.8-3,2.7c-1.7-0.1-2.8-1.3-2.7-2.9c0.1-1.6,1.2-2.7,3-2.6
		C536.2,472.5,537.1,473.6,537.2,475.3z"/>
	<path class="st1" d="M175.1,110.4c1.4,1.6,1.8,3-0.6,4C174.7,113.1,174.9,111.8,175.1,110.4z"/>
	<path class="st3" d="M391.1,464.5c-11.5-13.3-25.4-22.9-43-26.4c-1.8-0.4-2.2-1.4-2.4-3.1c-1.6-14.5-10.4-21.3-24.6-18.8
		c-2.4,0.4-2.8-0.5-3.5-2.2c-5.2-12.5-13.8-21.8-26-27.8c-1-0.5-2-0.9-2.4-2.2c-4.8-15.9,7.3-29.6,23.8-26.9
		c11.2,1.9,18.2,8.4,21.3,19.2c0.6,2,0.7,4.8,3.8,4.2c3.4-0.7,2.7-3.8,1.7-5.7c-2.1-4.3,0-6.7,2.9-9.4
		c23.1-21.9,61.1-14.7,74.5,14.1c1.3,2.8,2.5,4.6,6,4.8c4.5,0.3,7.2,3.4,7.8,7.8c0.6,4.5-1.4,8-5.6,9.6c-2.9,1.1-4.5,2.3-4.5,5.6
		c0.1,2.3-1,3.8-3.7,3.6c-0.6-0.1-1.3,0.2-2,0.3c-2,0.3-3.7,1-3.4,3.4c0.4,2.4,2.2,2.5,4.2,2.2c10.7-1.4,20.5,1.1,29.2,7.5
		c4.7,3.5,8.6,7.8,11,13.2c-1.8,0-2.1,1.1-2.2,2.6c-0.2,2.7-1.5,5.1-3.3,7.1c-5.7,6.7-12.9,10.9-21.2,13.1
		c-10.7,2.9-21.5,5-32.7,3.1C394.9,463.2,392.8,463.3,391.1,464.5z M377,401.4c1.2,1.1,2.4,2.4,4.3,1.2c1.7-1.1,1.6-2.7,1.3-4.4
		c-1.4-9.2-12.4-13.9-20-8.3c-2.3,1.7-4.1,2.8-7.4,2.1c-4.1-1-7.4,1.4-8.9,5.5c-0.7,1.8-1.3,4.1,1.1,5.3c2.5,1.2,3.6-0.4,4.1-2.6
		c0.4-1.4,1.2-2.5,2.7-2.5c1.5,0,2.2,1,2.8,2.4c1.9,4.4,3,4.5,6.2,0.5c7.1,1.7,7.1,1.7,11-2.5C375.6,398.8,374.6,401.5,377,401.4z
		 M371.4,356.4c-8.6-0.1-15.8,3.4-22.2,8.7c-2,1.7-3.9,4.5-2.8,7.5c1,2.6,3.4,4.4,6.1,4.6c10.5,0.8,20.2-1.3,27.7-9.5
		c2.9-3.2,2.5-6.7-0.8-9.5C377,356.3,374.2,356.3,371.4,356.4z M310.1,371.4c0,4.7,4.3,9,8.7,8.9c4.3-0.1,8.4-4.4,8.3-8.9
		c0-4.4-4.1-8.8-8.3-8.9C314.4,362.3,310.1,366.8,310.1,371.4z M430.4,443.6c-0.1-3.4-1.5-6.1-4.5-7.7c-3-1.7-6-1.4-8.9,0.5
		c-1.5,1-2.6,2.3-1.7,4.1c0.9,1.7,2.5,2.1,4.2,1.1c1.3-0.8,2.6-1.6,4-0.3c1.6,1.5,1,2.9,0.1,4.4c-1.1,1.8-0.6,3.2,1.1,4.2
		c1.6,0.9,2.8-0.1,3.8-1.3C429.8,447.2,430.3,445.5,430.4,443.6z M391.6,402.6c-1.6,0.3-2.8,1.1-2.8,2.9c0,1.7,1.1,2.8,2.8,2.8
		c1.7,0,2.8-1.1,2.8-2.8C394.4,403.8,393.3,402.9,391.6,402.6z M435.8,450.9c1.8-0.3,2.7-1.4,2.5-3.2c-0.2-1.5-1.2-2.4-2.7-2.4
		c-1.7,0-2.8,1.1-2.7,2.9C433,450,434.1,450.8,435.8,450.9z"/>
	<path class="st3" d="M259.9,387.8c22.8-4.7,46,8.7,53.2,30.8c2,6.1,2,6.1,7.6,3.6c8.2-3.7,18,1.8,19.2,10.8c0.3,2.5-0.1,3.7-3,3.5
		c-4.6-0.4-9.3-0.2-13.9,0.4c-2.2,0.3-4.7,0.6-4.2,3.7c0.5,2.7,2.7,2.3,4.8,2c14.6-1.7,28.5,0.6,41.5,7.7c2,1.1,3.9,2.5,5.8,3.8
		c-1.2,0.2-2.6,0.4-2.6,1.8c-0.1,6.3-4.1,10.1-9.3,14.4c9.1,0,17.1,0,25.2,0c1.1,0,1.8-0.6,2.3-1.6c0.7,0.9,2.1,1.6,1.6,2.8
		c-0.5,1.4-2.1,0.7-3.1,0.7c-19.1,0.1-38.3,0-57.4,0.2c-2.4,0-3.5-0.8-4.5-2.9c-5.2-10.7-13.8-16.5-25.8-16.5
		c-12,0-20.6,5.9-25.7,16.6c-1.1,2.2-2.3,2.7-4.6,2.7c-35-0.1-69.9-0.1-104.9-0.1c-1,0-2.6,0.7-3-0.8c-0.3-1.2,0.9-2,1.6-2.9
		c0.4,1,1,1.8,2.1,1.8c7.8,0,15.6,0,24.8,0c-5.6-4.9-9.5-9.2-9.9-15.7c-0.1-1.2-1.4-1.2-2.3-1.4c14.9-11.7,31.9-15.5,50.5-13.3
		c1.2,0.1,2.3,0.4,3.4,0.5c1.8,0.2,3-0.8,3.2-2.4c0.3-1.7-0.9-2.7-2.4-3.2c-0.3-0.1-0.6-0.1-1-0.2c-7.9-1.9-8-1.9-6.3-10.1
		c2.9-13.5,10-24.1,22.1-30.9c1.8,2.3-0.4,3.6-1.2,5.3c-2.7,5.6-0.7,10.5,4.7,11.5c6.2,1.2,15.1-3.3,18.1-9
		c2.6-5.1,1.5-8.5-3.9-10.7C261.3,390,260,389.7,259.9,387.8z M253,422.9c-0.1,1.8,0.3,3.4,2.4,3.7c1.8,0.3,2.8-0.8,3.2-2.5
		c0.5-2.5,1.7-4.5,4.5-4.4c2.5,0.1,3.7,1.8,4.1,4.3c0.3,1.9,1.5,3,3.5,2.5c2-0.5,2.3-2.2,2.1-4c-0.4-4.8-5-8.6-10.1-8.5
		C257.7,414,253.2,418.1,253,422.9z M220,456.8c0-1.7-0.9-2.9-2.5-3.1c-1.9-0.2-3.2,1-3.2,2.9c0,1.7,1.1,2.7,2.8,2.8
		C218.7,459.5,219.7,458.4,220,456.8z M207.1,462.3c0.2,1.7,1.2,2.7,2.8,2.8c1.7,0.1,2.8-1,2.9-2.6c0.1-1.9-1-3.1-3-3.1
		C208.2,459.5,207.4,460.6,207.1,462.3z M354.9,462.2c-0.4-1.6-1.2-2.8-3-2.7c-1.7,0.1-2.8,1.2-2.7,2.9c0.1,1.7,1.2,2.8,2.9,2.7
		C353.7,465,354.7,463.9,354.9,462.2z M313.4,439c-1.7,0-2.8,1-3,2.6c-0.2,1.7,0.8,2.8,2.5,2.9c1.7,0.1,2.9-0.8,3-2.5
		C316.1,440.4,315,439.4,313.4,439z"/>
	<path class="st3" d="M230.8,370.7c5.9-1.7,11.4-0.5,16.9,1.9c3.6,1.6,4.5,4,4.5,7.8c0,3.9-2.6,4-4.9,5.1c-18.6,9-29,23.8-31,44.3
		c-0.2,2.2-0.2,3.7-3.1,3.8c-22.4,0.9-40.4,10.7-54.9,27.5c-1.6-3.1-4-0.8-5.7-0.5c-8.9,1.4-17.7,1.2-26.5-0.7
		c-5.1-1.1-10.2-2.3-15.4-3.4c-0.9,0-1.8-0.1-2.8-0.1c-0.1-2.4-2.3-2.6-3.8-3.4c-8.3-4.7-16.3-9.6-20.3-18.9
		c8.4-22.5,36.1-36.1,61-30.3c2.4,0.6,6.1,3.3,7.2-0.9c1.1-4.3-3.5-3.7-6-4.6c-1.1-0.4-2.3-0.6-3.4-0.8c-8.1-1.3-8.3-1.5-4.2-8.9
		c7.5-13.6,19-21.1,34.7-21.5c2.8-0.1,4.3-0.8,5.1-3.6c1-3.5,3-6.3,6.8-7.3c1.1,1.5,0.4,3.1,0.2,4.7c-0.5,3.6,1.5,5.8,4.8,6.3
		c3.5,0.5,5.5-1.7,6.1-5.1c0.3-1.6,0.1-3.3,1-4.8c5.4,4.2,6.8,9.3,3.8,15.2c-1.3,2.6-1,4.2,1,6c3.3,3.1,5.7,6.9,7.7,10.9
		c0.9,1.9,2,3.8,4.5,2.7c2.5-1.1,1.9-3.3,0.8-5.1c-2.4-3.6-0.4-5.8,2.1-8.1c1.5,2.1,0.6,5.4,3.5,6.8c3.8,1.9,10-0.4,13.4-4.9
		c2.7-3.6,0.8-6-2.2-8.2C231.2,372.5,231.1,371.4,230.8,370.7z M108.3,442.8c0.1,2.5,0.8,4.9,2.3,7c1.2,1.6,2.5,3.5,4.9,2.2
		c2.4-1.4,1.6-3.3,0.2-5.1c-2.3-3.1-2.3-6.3,0.4-9.1c2.8-2.9,6.1-3.1,9.4-0.7c1.9,1.4,3.7,2.1,5-0.3c1.2-2.1-0.3-3.4-1.8-4.5
		c-4.2-2.9-8.6-3.5-13.2-1.2C110.8,433.5,108.5,437.5,108.3,442.8z M177.2,388.1c-4.2,0.2-7.3,2.2-9,6c-0.8,1.8-1.1,3.7,1,4.8
		c1.9,1,3.1-0.1,3.9-1.8c1-2.1,2.5-3.7,5-3.1c2.7,0.6,3.7,2.5,3.5,5.3c-0.1,1.9,0.8,3.3,2.8,3.3c2.1,0,2.7-1.6,2.9-3.4
		C188.2,393.4,183.2,388,177.2,388.1z"/>
	<path class="st0" d="M252.2,367.5c-19.2-4.6-22.4-4.4-34.7,2.5c-1.1-0.9-0.6-2.1-0.6-3.1c0-21,0-42-0.1-63c0-3.7,0.6-6,4.9-6.4
		c3.3-0.3,5.6-2.5,7.5-5.3c0.6-0.9,0.4-3.4,2.3-2.3c1.8,1.1,4.9,0.7,5.1,4c0.3,7.7,4.1,12,12,12.6c2.1,0.2,3.6,1.7,3.7,4.1
		C252.2,329.5,252.2,348.5,252.2,367.5z"/>
	<path class="st4" d="M314,161.5c1.1,3,2.2,5.9,3.3,8.9c2.3,8.4,5.7,16.3,9.6,24c2.9,5.7,7.4,9.7,12.6,13.2
		c6.5,4.3,13.1,8.5,19.6,12.8c-0.3,0.9-0.9,1.9-0.9,2.8c0.2,10.4-6.2,15.2-14.8,18.6c-9.8,3.8-19.9,2.2-30,2.4
		c-0.1-26.9-0.2-53.7-0.2-80.6C313.1,163,313.7,162.3,314,161.5z"/>
	<path class="st0" d="M324.5,354.5c-12.7-5.5-24-4.4-35.4,3.7c0-10.1,0-19.3,0-28.5c0-5.8,0-11.7,0-17.5c0-3.5,1.4-5.4,5.2-5.9
		c6.6-0.8,10.1-4.5,10.3-11.3c0.1-3.7,2.7-3.8,4.7-4.8c2.6-1.2,2.2,1.7,3,2.7c2.2,2.8,4.9,4.6,8.4,4.8c2.3,0.2,3.8,1.1,3.8,3.7
		C324.5,318.9,324.5,336.4,324.5,354.5z"/>
	<path class="st5" d="M313.4,244.3c10-0.2,20.2,1.4,30-2.4c8.7-3.4,15.1-8.3,14.8-18.6c0-0.9,0.6-1.9,0.9-2.8
		c8.1,4.6,15.7,10,22.1,17c0.3,0.4,0.7,0.7,1,1.1c0,0-0.1-0.1-0.1-0.1c1,5.5,4.3,10.4,4.2,16.3c-0.1,5.4-2.7,8.6-8.1,8.6
		c-17.3,0-34.6-0.1-51.9-0.2c-1-6-4.9-10-9.8-12.9C314,248.7,312.6,247.3,313.4,244.3z M364.3,238.3c-0.2-0.4-0.3-1-0.6-1.2
		c-0.9-0.6-1.6,0-2.2,0.6c-3.7,3.6-7.3,7.3-11,11c-0.7,0.7-1.6,1.5-0.6,2.5c0.9,0.9,1.9,0.2,2.6-0.5c3.7-3.6,7.3-7.3,10.9-11
		C363.8,239.3,364,238.8,364.3,238.3z M365.9,245.8c-0.2-0.4-0.3-1-0.6-1.2c-0.8-0.5-1.6-0.2-2.2,0.5c-3.7,3.6-7.3,7.3-11,10.9
		c-0.7,0.7-1.5,1.6-0.6,2.6c1,1,1.8,0.1,2.5-0.5c3.7-3.6,7.3-7.3,11-11C365.3,246.7,365.5,246.3,365.9,245.8z M377.7,255.4
		c-1.8,0.1-4.3,0.2-4.5,2.6c-0.1,2.7,2.3,3.3,4.6,3.3c2-0.1,4.3-0.4,4.3-3C382.2,255.6,380,255.4,377.7,255.4z"/>
	<path class="st4" d="M157.1,240.9c1.7-1.8,3.4-3.7,5.1-5.5c1.5,0,2.9,0,2.8-2c0,0,0,0,0,0c0.7,0,1.1-0.3,1-1c0,0,0,0,0,0
		c4.8-0.4,7.8-4,11.6-6.2c9.2-5.3,17.9-11.4,27.5-16c-0.1,1.6-0.2,3.2-0.3,4.7c-4.2,1.1-3.2,5.3-4.7,7.9c-0.4,0.6-0.3,1.8,0.7,2.1
		c1.2,0.4,1.9-0.6,2.1-1.6c0.5-2.7,2.4-5.1,2.3-8c7.1,0.5,12.3,6.2,19.4,7.2c3.1,0.4,6.6-0.1,9.6,1.8c-4.7,8.4-13,12.3-20.8,17
		c-0.9-1.6-2.6-2.2-4.2-2.5c-4.1-0.6-4.2-2.4-2.7-5.8c2.8-6.4,2.6-6.5,1.5-9.9c-3.8,4.4-4.6,10.2-7.2,15c-1.5,2.7-2,7-3.3,10.4
		c-1.5,0-3-0.3-4.5,0c-12.7,2.9-25.4,4.5-38.2,0.7c0.4-2.3,0.8-4.6,1.2-6.9c0,0,0,0,0,0C156.8,242.2,157,241.6,157.1,240.9z
		 M200.5,230.6c-0.4-0.7-0.6-1.5-1.1-1.7c-0.5-0.1-1.5,0.3-1.6,0.7c-1.1,4.1-3.5,4.6-6.9,2.6c-1-0.5-2.1-0.2-2.4,0.9
		c-0.3,0.9,0.6,1.6,1.4,1.8c4.1,0.9,5.6,3,3.4,7c-0.4,0.7-0.3,1.7,0.5,2.2c0.6,0.4,1.4,0.1,1.7-0.6
		C197.1,239.3,198.8,235,200.5,230.6z"/>
	<path class="st6" d="M83.9,434.2c4,9.3,12.1,14.2,20.3,18.9c1.5,0.8,3.7,1,3.8,3.4c-1.4,1.5-2.7,3.1-0.7,5c1.1,1,2.4,1.2,3.6,0.2
		c2.1-1.7,1.1-3.4-0.1-5.1c5.1,1.1,10.2,2.3,15.4,3.4c8.8,1.9,17.6,2.1,26.5,0.7c1.7-0.3,4.1-2.5,5.7,0.5c-0.1,0.2-0.1,0.3-0.2,0.5
		c-3.9,9.1-10.6,11.3-20.4,11c-23.5-0.9-47-0.3-70.5-0.3c-1.4,0-3.3,0.9-4.1-0.7c-0.8-1.6,0.6-3.1,1.6-4.5c2.2-3.2,5.3-5.4,9.1-5.4
		c4.5,0,5.1-2.1,5.1-5.9C78.8,448.2,80.1,440.9,83.9,434.2z"/>
	<path class="st5" d="M154.9,249.3c12.8,3.8,25.5,2.2,38.2-0.7c1.4-0.3,3,0,4.5,0c-0.2,0.8-0.4,1.6-0.6,2.4
		c-0.3,1.2-1.4,2.7,0.5,3.3c1.7,0.5,2-1.3,2.5-2.4c0.8-1.8,1.5-3.6,2.2-5.5c2.6-1.3,5.3-2.6,7.9-3.8c1.2,0,2.6,0.2,3.3-1.2
		c7.8-4.6,16.1-8.6,20.8-17c2.5-0.8,1.9-4.7,5-5c0.1,8.1,0.1,16.3,0.2,24.4c0,1.9-0.7,3.1-2.2,4.1c-5.8,3.6-9.2,9-11.2,15.4
		c-20.6,0-41.1,0-61.7,0C155,263.3,151.6,258.2,154.9,249.3z M163.1,258.9c-0.1-1.3-0.8-2.1-2.1-2.2c-1.8-0.1-2.1,1.1-2.1,2.5
		c0.1,1.3,0.7,2.1,2.2,2C162.4,261,163,260.2,163.1,258.9z"/>
	<path class="st7" d="M283.1,310.8c0,22.9,0.1,45.9,0.2,68.8c0,2.7-1.3,2.9-3.4,2.5c-6.4-1.2-12.7-1.8-19.2-0.1
		c-3.5,0.9-2.5-2.3-2.5-4c-0.1-11.3-0.1-22.6-0.1-33.9c0-11,0.1-21.9,0.2-32.9c1.2,2.7,2.5,5.4,3.5,8.1c1.7,4.3,2.7,9,8.9,9
		c6.6,0.1,7.4-4.9,9.1-9.4C280.7,316.3,281.1,313.2,283.1,310.8z"/>
	<path class="st8" d="M313.4,244.3c-0.8,2.9,0.6,4.4,3.1,5.8c4.9,2.9,8.7,6.9,9.8,12.9c-3.4,0.1-6.9,0.2-10.3,0.3
		c-2.6-6.4-5.9-12.2-12.1-15.8c-2.1-1.2-1.8-3.4-1.8-5.3c-0.1-14.9-0.2-29.8-0.3-44.7c0.1-23.3,0.1-46.7,0.2-70c0-1.7,0-3.3,0.7-5.1
		c3.7,13.1,7.5,26.1,11.2,39.2c-0.3,0.7-0.8,1.5-0.8,2.2C313.2,190.6,313.3,217.5,313.4,244.3z"/>
	<path class="st9" d="M239.1,219.4c-3.1,0.3-2.4,4.2-5,5c-2.9-1.9-6.4-1.4-9.6-1.8c-7.1-1-12.2-6.7-19.4-7.2
		c-0.2-0.1-0.3-0.2-0.3-0.4c0.1-1.6,0.2-3.2,0.3-4.7c6-3.8,12.5-7,16-13.9c3.2-6.3,5.8-12.7,8.1-19.3c4.1-11.8,6.3-24.1,9.9-36
		c0.1,17.8,0.1,35.6,0.2,53.3c0,1,0.2,2,0.2,3C239.4,204.8,239.2,212.1,239.1,219.4z"/>
	<path class="st6" d="M391.1,464.5c1.8-1.1,3.8-1.3,5.8-1c11.2,1.9,22-0.3,32.7-3.1c8.3-2.3,15.6-6.5,21.2-13.1
		c1.7-2,3.1-4.4,3.3-7.1c0.1-1.5,0.5-2.6,2.2-2.6c1.7,1.9,2.3,4.4,3.1,6.7c2.1,6.5,2.1,6.5-4.3,7.8c-2.2,0.4-4.7,0.9-4,3.9
		c0.6,2.7,2.8,2.1,4.8,1.9c8.2-1,15.5,3.3,18.4,10.6c1.1,2.7,1.2,4.2-2.6,4.1c-24.1-0.1-48.2-0.1-72.3,0
		C393.8,472.4,393.6,467.3,391.1,464.5z"/>
	<path class="st7" d="M345.9,298c2.4,0.5,1.3,2.4,1.3,3.6c0,16.3-0.1,32.6,0,48.9c0,2.8-0.7,4.7-3.2,6.1c-1.7,1-3.1,2.5-4.7,3.7
		c-1.5,1.1-2.5,4.2-4.5,2.8c-2.1-1.4-4.6-3.3-4.6-6.7c0-19-0.1-37.9-0.1-56.9c0-0.9,0.1-1.7,1.3-1.6c0.9,2.5,1.8,5,2.8,7.4
		c0.8,2,2.4,3,4.7,3c2.1-0.1,3.4-1.2,4.2-3C344,303,344.9,300.5,345.9,298z"/>
	<path class="st7" d="M210,298c1.9,0.9,1.1,2.6,1.1,4c0,23.8,0,47.6-0.1,71.5c0,1.6,0.5,3.4-1.2,4.6c-2.5-1.2-3-3-2.4-5.7
		c2.1-10.6-1.1-17-10.9-21.9c-1.5-0.7-2.4-1.4-2.4-3.3c0.1-15.8,0-31.6,0.1-47.5c0-0.6,0.6-1.1,0.9-1.6c1,2.4,2,4.8,3.1,7.3
		c0.8,2,2.2,3.2,4.5,3.2c2.3,0,3.7-1.2,4.5-3.2C208,302.8,209,300.4,210,298z"/>
	<path class="st4" d="M231.1,276.4c0.1-3.5-0.4-7.1,0.3-10.4c2-9.6,8.5-15.9,19.7-16.4c11.1-0.5,11.1-0.4,11.1,10.7
		c0,6.8-0.2,13.6-0.3,20.4c-6.3,0-12.7-0.2-19,0C238.3,280.8,234.3,279.8,231.1,276.4z M251.8,255.9c-0.2-2-1.5-3.2-3.9-3.3
		c-3.2,0-8.6,5-8.6,8c0,2.4,1.5,3.6,3.8,3.7C246.4,264.4,251.7,259.4,251.8,255.9z"/>
	<path class="st5" d="M269,214.5c0,8.6,0,17.2,0.2,25.8c0,2.5-0.7,3.8-3.3,3.8c-6.3-0.1-12.6,0.6-18.8-0.4c0-8.5,0.1-16.9,0-25.4
		c-0.1-3.1,1-4,4-4C257.1,214.6,263.1,214.5,269,214.5z"/>
	<path class="st10" d="M239.1,141.1c-3.6,11.9-5.8,24.2-9.9,36c-2.3,6.6-4.9,13-8.1,19.3c-3.5,6.9-10,10-16,13.9
		c-9.6,4.6-18.3,10.7-27.5,16c-3.8,2.2-6.8,5.8-11.6,6.2c4.8-5.6,11.4-8.9,17.4-13c6.3-4.2,12.9-8.2,19.2-12.3
		c7.7-5,12.6-12,15.4-20.7c7.2-15.4,11.3-31.9,16-48.2c1.5-5.4,2.9-10.8,5-16C239.1,128.6,239.1,134.9,239.1,141.1z"/>
	<path class="st5" d="M296,214.4c0,8.6,0,17.3,0.2,25.9c0,2.6-1,3.5-3.5,3.4c-6.1-0.1-12.3-0.1-18.4-0.1c0-8.4,0.1-16.9-0.1-25.3
		c-0.1-3.1,1.1-4,4-3.9C284.1,214.6,290,214.4,296,214.4z"/>
	<path class="st11" d="M216.5,154.3c-0.4,7.6,1,15.4-1.1,22.9c0-4.6,0-9.2,0-13.8c-6,7.7-12.4,14.5-20.2,19.9c6,0,11.9,0,17.9,0
		c0,0.3,0.1,0.7,0.1,1c-5.2,1.7-10.5,0.5-15.7,0.7c-4.8,0.2-9.6,0-14.4,0c-0.3-0.3-0.7-0.5-1-0.8c0-6,0-11.9,0-17.9
		c0-3.3,0-6.7,0-10c0-0.7,0.2-1.6,0.9-1.5c0.9,0.1,1.8,0.6,2.6,1.1c0.7,0.4,0.5,1.1,0,1.7c-3,3.3-1.6,7.1-0.9,10.5
		c0.8,3.8,4,4.7,7.4,4.1c3.1-0.6,4.9-2.6,4.9-5.9c0-2.7,0.2-5.3,0-8c-0.2-3,0.9-4.2,4-4.1C206.2,154.6,211.3,154.4,216.5,154.3z"/>
	<path class="st5" d="M296,171.6c0.1,7.6,0.2,15.2,0.4,22.9c-0.1,3.6-0.3,7.3-0.1,10.9c0.1,3-0.6,4.6-4.1,4.4
		c-6-0.3-11.9-0.2-17.9-0.2c0-4.7,0.1-9.4,0.1-14.1c8.8-5.7,13.4-14.6,17.8-23.6C293.4,171.8,294.7,171.7,296,171.6z"/>
	<path class="st12" d="M179.9,215c0-8.9,0-16.6,0-24.4c0-2,1.1-2.5,2.8-2.5c9.3,0,18.5,0,28.5,0C205,202.4,191.5,206.7,179.9,215z"
		/>
	<path class="st11" d="M361.2,154.4c0,3.3-0.1,6.7-0.1,10c-1.3,0-2.1,0.6-2.8,1.7C353.8,172.8,348,178,341,182
		c-1.3,0.7-2.1,1.6-2,3.1c-0.9-0.1-1.8-0.2-2.6-0.3c-2.2-4.7-5.6-8.9-6.2-14.3c0.8,0.3,1.5,0.5,2.3,0.9c6,3.1,10.6,0.5,10.7-6.2
		c0-2.3,0.1-4.6,0-6.9c-0.2-2.8,0.9-3.8,3.7-3.8C351.6,154.5,356.4,154.4,361.2,154.4z"/>
	<path class="st11" d="M361.1,121.4c0.2,3.3,0.3,6.7,0.5,10c-0.1,5-0.3,9.9-0.2,14.9c0.1,2.6-0.8,3.5-3.4,3.4
		c-5-0.2-9.9-0.2-14.9-0.3c0-6.4,0-12.8,0-19.3c1.9-1.1,5.3,1.7,6-2.2c0.4-2.2,0.4-4.4,0.5-6.6c1.6,0,4.1-0.6,4.8,0.2
		C357.1,124.7,359,122.3,361.1,121.4z"/>
	<path class="st9" d="M269.1,171.4c0,9.7-0.1,19.4-0.1,29.1c-6.9,3.1-13.8,6.1-21.7,5c-0.1-10.1-0.1-20.3-0.2-30.4
		c0-2.1,0.2-3.7,2.9-3.5l0,0c0.1,2.7,0.1,5.3,0.2,8c0.1,6.4,2.7,9.7,8,9.9c4.9,0.2,8.4-3.5,8.8-9.4c0.2-2.8,0.2-5.6,0.3-8.5
		C267.8,171.4,268.4,171.4,269.1,171.4z"/>
	<path class="st0" d="M259.9,387.8c0,1.9,1.3,2.2,2.8,2.8c5.4,2.2,6.5,5.6,3.9,10.7c-3,5.8-11.8,10.2-18.1,9
		c-5.4-1-7.4-5.9-4.7-11.5c0.8-1.6,3-3,1.2-5.3C249.6,390.5,254.6,388.7,259.9,387.8z"/>
	<path class="st13" d="M315.9,263.3c3.4-0.1,6.9-0.2,10.3-0.3c17.3,0.1,34.6,0.2,51.9,0.2c5.4,0,8-3.1,8.1-8.6
		c0.1-5.8-3.1-10.8-4.2-16.3c6.9,6.3,10.8,14.2,12.8,23.1c0.7,3.3-0.3,5.1-4,5.1c-23.9-0.1-47.8-0.1-71.7-0.1
		C316.7,266.5,315.7,265.7,315.9,263.3z"/>
	<path class="st4" d="M289.3,249.9c12.2,0.8,18.9,6.1,20.6,16.5c-6,4.3-12.9,6.7-19.8,9C290.3,266.9,288.5,258.4,289.3,249.9z"/>
	<path class="st3" d="M216.5,154.3c-5.2,0-10.3,0.2-15.5,0c-3.1-0.1-4.2,1.1-4,4.1c0.2,2.7,0,5.3,0,8c0,3.3-1.8,5.3-4.9,5.9
		c-3.5,0.6-6.7-0.3-7.4-4.1c-0.7-3.4-2.1-7.2,0.9-10.5c0.5-0.6,0.7-1.3,0-1.7c-0.8-0.5-1.7-1-2.6-1.1c-0.7-0.1-0.9,0.8-0.9,1.5
		c0,3.3,0,6.7,0,10c0,6,0,11.9,0,17.9c-0.1,0.2-0.1,0.5-0.1,0.7c-1.5,0.3-2.1-0.5-2.1-1.9c0.2-10.2-0.5-20.5,0.4-30.7
		c10.6,0,21.2,0,31.8,0.2C213.6,152.7,215.9,151.4,216.5,154.3z"/>
	<path class="st13" d="M154.9,249.3c-3.2,8.9,0.1,14,9.3,14c20.6,0,41.1,0,61.7,0c0.2,2.8-1.4,3.3-3.7,3.3c-23.8,0-47.5,0-71.3,0
		c-3,0-4.9-0.9-4.3-4.4c1.5-7.4,4.1-14.3,9.5-19.8C155.7,244.7,155.3,247,154.9,249.3z"/>
	<path class="st8" d="M289.3,249.9c-0.8,8.6,1,17,0.8,25.6c0,1.7,0,3.4,0,5.1c-3.5,0.1-7,0.1-10.5,0.2c-1-9.4-0.2-18.8-0.5-28.2
		c-0.1-2.4,1.1-3.2,3.3-3.1C284.7,249.7,287,249.7,289.3,249.9z"/>
	<path class="st14" d="M361.1,203.5c0,3.3,0,6.6,0,10.9c-10.1-6.5-20.6-11.1-27.8-20.4c-1.1-1.4-2.8-3-1.8-4.8
		c0.9-1.6,3-0.6,4.6-0.8c1.7-0.1,3.3,0,5,0.1C347.3,194.1,353.9,199.2,361.1,203.5z"/>
	<path class="st3" d="M361.2,154.4c-4.8,0-9.6,0.1-14.4-0.1c-2.8-0.1-3.9,1-3.7,3.8c0.2,2.3,0.1,4.6,0,6.9
		c-0.1,6.6-4.7,9.3-10.7,6.2c-0.7-0.4-1.5-0.6-2.3-0.9c-0.1-0.6-0.1-1.1-0.2-1.7c0.1-4.6,0.6-9.2-1.9-13.7c0,2.9,0,5.7,0,8.6
		c-2-2-1.3-5-3-7.1c0-1.3,0.1-2.6,0.1-3.9c10.6,0,21.3,0,31.9,0.1C358.5,152.7,361,151.2,361.2,154.4z"/>
	<path class="st3" d="M343.1,130.3c0,6.4,0,12.8,0,19.3c-4.3,0-8.7,0-13,0c0-8.6,0.1-17.3,0.1-26c0.1-0.7,0.2-1.3,0.3-2
		c2,0,4-0.1,5.9-0.1C335,129.7,335,129.7,343.1,130.3z"/>
	<path class="st6" d="M175.4,453.2c1,0.2,2.3,0.3,2.3,1.4c0.3,6.5,4.3,10.8,9.9,15.7c-9.2,0-17,0-24.8,0c-1.1,0-1.8-0.8-2.1-1.8
		C164.5,462.4,169.5,457.3,175.4,453.2z"/>
	<path class="st3" d="M279.8,467.5c8.1-10.6,21.9-11.9,32.3-3c-5.2,5.2-11.8,5.3-18.5,4.6C289,468.6,284.4,468,279.8,467.5z"/>
	<path class="st12" d="M339,185c-0.1-1.5,0.7-2.3,2-3.1c7-3.9,12.8-9.2,17.2-15.8c0.7-1,1.6-1.7,2.8-1.7c0.1,6,0.1,12,0.3,18
		c0.1,2.1-0.8,3-2.9,3C352,185.2,345.5,185.1,339,185z"/>
	<path class="st6" d="M386.4,468.7c-0.4,1-1.2,1.6-2.3,1.6c-8,0-16.1,0-25.2,0c5.2-4.3,9.3-8.1,9.3-14.4c0-1.4,1.5-1.6,2.6-1.8
		C377.1,457.9,382.2,462.8,386.4,468.7z"/>
	<path class="st0" d="M283.1,310.8c-1.9,2.4-2.4,5.4-3.4,8.2c-1.7,4.5-2.6,9.4-9.1,9.4c-6.2-0.1-7.2-4.7-8.9-9
		c-1.1-2.8-2.3-5.4-3.5-8.1c0,0-0.2,0.1-0.2,0.1c0.2-0.3,0.2-0.6,0-0.8c1.1-1.1-2.3-3.7,1.4-4.1c3.3-0.3,2.7,1.8,2.8,3.8
		c0.4,5.4,3.9,9.1,8.6,9.1c4.8,0,8.2-3.6,8.5-9.1c0.1-2-0.4-4.2,2.8-3.8C286,307,282.4,309.5,283.1,310.8z"/>
	<path class="st13" d="M352.2,287.8c2.3,1.8,5.2,0.2,7.9,1.6c-1.1,2.6-3.2,2.9-5.6,2.9c-10.4,0-20.8,0.1-31.2,0
		c-2.9,0-6.2-0.1-6-4.5C328.9,287.7,340.5,287.7,352.2,287.8z"/>
	<path class="st13" d="M210.8,287.7c4,2.2,8.5,0.1,13.1,1.4c-1.4,2.4-3.4,3.1-5.8,3.1c-10.6,0-21.3,0-31.9,0c-3,0-5.7-0.7-5.8-4.5
		C190.6,287.7,200.7,287.7,210.8,287.7z"/>
	<path class="st0" d="M230.8,370.7c0.3,0.8,0.3,1.8,0.8,2.2c3,2.2,4.9,4.6,2.2,8.2c-3.4,4.5-9.6,6.8-13.4,4.9
		c-2.9-1.4-2-4.7-3.5-6.8C220.4,374.4,225.2,371.8,230.8,370.7z"/>
	<path class="st13" d="M231.1,276.4c3.2,3.4,7.1,4.5,11.7,4.3c6.3-0.2,12.6,0,19,0c1.3,4.6-0.4,6.3-5.2,5.9
		c-5.1-0.4-10.3,0-15.5-0.1C234.2,286.4,231.3,283.4,231.1,276.4z"/>
	<path class="st8" d="M352.2,287.8c-11.6,0-23.2-0.1-34.9-0.1c-1.8-2.4-1.8-4.1,1.7-4.1c13.1,0,26.2,0,39.3,0c1,0,2.3-0.1,2.4,1.1
		c0.1,1.7-1.5,1.4-2.6,1.4C356,286.3,353.7,285.7,352.2,287.8z"/>
	<path class="st10" d="M268,306.3c0-17.5-0.1-35.1-0.1-52.6c0-2-0.8-4.8,3-3.9c0.1,18.8,0.2,37.7,0.3,56.5
		C270.2,306.3,269.1,306.3,268,306.3z"/>
	<path class="st6" d="M279.8,467.5c4.6,0.5,9.2,1.2,13.8,1.6c6.7,0.7,13.3,0.6,18.5-4.6c2.4,1.8,5.5,4.3,4.8,6.9
		c-0.6,2.2-4.7,0.9-7.2,0.9c-9.3,0.1-18.6,0.1-27.9,0c-1.5,0-3.8,1.1-4.4-0.8C276.9,470.1,278.4,468.5,279.8,467.5z"/>
	<path class="st8" d="M210.8,287.7c-10.1,0-20.2,0-30.4,0c-1.9-2.4-1.8-4.1,1.7-4.1c13.3,0,26.6,0,39.9,0c1.1,0,2.7-0.3,2.5,1.4
		c-0.2,1.6-1.8,1-2.9,1.2C218.1,286.9,214.1,284.7,210.8,287.7z"/>
	<path class="st12" d="M361.1,203.5c-7.2-4.3-13.8-9.4-20-15c5.8-0.1,11.6-0.1,17.4-0.3c2.1-0.1,3,0.8,2.9,2.9
		C361.2,195.2,361.2,199.3,361.1,203.5z"/>
	<path class="st5" d="M290.1,280.6c0-1.7,0-3.4,0-5.1c6.9-2.4,13.8-4.7,19.8-9c0,3.7,0.1,7.4,0.1,11c-1.7,1.1-3.3,2.5-5.4,3
		c-1-1.8,0.6-5.7-1.5-5.6c-2.8,0.2-0.5,4-1.7,5.9c-0.8,0-1.6,0-2.4,0c-1.4-1.8-2.7-0.6-4.1,0C293.4,280.7,291.7,280.6,290.1,280.6z"
		/>
	<path class="st11" d="M330.1,123.6c0,8.6-0.1,17.3-0.1,25.9c-1.7,0.1-3.3,0.2-5,0.3c-1-9.4-0.6-18.7-0.3-28.1
		C327,120.9,327.8,124.6,330.1,123.6z"/>
	<path class="st14" d="M174.2,275.5c-0.6-2.6,0.7-3.1,3-3.1c14.9,0.1,29.9,0.1,44.8,0c2.3,0,3.5,0.6,3.1,3.1
		C208.1,275.5,191.1,275.5,174.2,275.5z"/>
	<path class="st14" d="M316.2,275.5c-0.5-2.5,0.8-3.1,3-3.1c14.9,0.1,29.8,0.1,44.7,0c2.3,0,3.5,0.6,3,3.1
		C350,275.5,333.1,275.5,316.2,275.5z"/>
	<path class="st13" d="M316.2,275.5c16.9,0,33.8,0,50.8,0c-0.5,2.7-2.6,2.7-4.6,2.7c-14.3,0-28.5,0-42.8,0
		C317.8,278.2,315.6,278.5,316.2,275.5z"/>
	<path class="st13" d="M174.2,275.5c17,0,33.9,0,50.9,0c0.5,2.5-1,2.7-2.9,2.7c-14.6,0-29.3,0-43.9,0
		C176.4,278.2,174.5,277.9,174.2,275.5z"/>
	<path class="st14" d="M329.9,168.7c0.1,0.6,0.1,1.1,0.2,1.7c0.7,5.4,4.1,9.6,6.2,14.3c-1.9,1-3.9,0.6-5.8,0.6c-0.9,0-2.2-0.7-2-1.1
		c3-5.1-5-5-4.1-9c0.1-6.3-1-12.6,0.6-18.8c1.8,2,1.1,5.1,3,7.1C327.9,165.5,328.6,167.2,329.9,168.7z"/>
	<path class="st3" d="M210,298c-1,2.4-1.9,4.9-2.9,7.3c-0.8,2-2.2,3.2-4.5,3.2c-2.3,0-3.7-1.2-4.5-3.2c-1-2.4-2-4.8-3.1-7.3
		C200,298,205,298,210,298z"/>
	<path class="st3" d="M345.9,298c-0.9,2.5-1.8,5-2.8,7.4c-0.7,1.8-2.1,2.9-4.2,3c-2.3,0.1-3.8-0.9-4.7-3c-1-2.4-1.9-4.9-2.8-7.4
		C336.2,298,341.1,298,345.9,298z"/>
	<path class="st0" d="M197.1,357.5c-0.9,1.5-0.8,3.1-1,4.8c-0.5,3.3-2.6,5.6-6.1,5.1c-3.3-0.5-5.2-2.8-4.8-6.3
		c0.2-1.6,0.9-3.2-0.2-4.7C189.3,354.1,193.3,354.6,197.1,357.5z"/>
	<path class="st4" d="M271.2,306.3c-0.1-18.8-0.2-37.7-0.3-56.5c3.2-0.4,2.4,2,2.4,3.6c0,17.4-0.1,34.7-0.1,52.1
		C272.5,305.8,271.9,306,271.2,306.3z"/>
	<path class="st10" d="M296,214.4c-6,0-11.9,0.1-17.9,0c-3-0.1-4.1,0.8-4,3.9c0.2,8.4,0.1,16.9,0.1,25.3c-2.1,0.7-2.1-0.7-2.1-2.1
		c0-8.6,0-17.2,0-25.9c0-1.6,0.1-3,2.3-3c6.8,0,13.6,0,20.4,0C295.7,212.7,296,213.5,296,214.4z"/>
	<path class="st10" d="M269,214.5c-6,0-12,0.1-17.9-0.1c-3-0.1-4.1,0.9-4,4c0.2,8.5,0,16.9,0,25.4c-2,0.1-2-1.3-2-2.7
		c0-8.5,0-16.9,0-25.4c0-1.6,0.1-3,2.3-3c6.8,0,13.6,0,20.4,0C268.8,212.7,269.1,213.5,269,214.5z"/>
	<path class="st13" d="M290.1,280.6c1.6,0.1,3.3,0.1,4.9,0.2c2,5.3,1.7,5.8-3.7,5.7c-2.3,0-4.7-0.3-7,0c-4.6,0.5-6.1-1.3-4.8-5.7
		C283.1,280.7,286.6,280.6,290.1,280.6z"/>
	<path class="st10" d="M274.3,195.5c0,4.7-0.1,9.4-0.1,14.1c-3.3,0.2-2.1-2.4-2.1-3.9c-0.1-11.8-0.1-23.5-0.1-35.3
		c6.9,0,13.8-0.1,20.7-0.1c1.2,0,2.8-0.6,3.2,1.3c-1.3,0.1-2.5,0.2-3.8,0.3c-4.9-0.1-9.9-0.2-14.8-0.3c-2.3-0.1-3.3,0.8-3.2,3.2
		C274.3,181.6,274.3,188.6,274.3,195.5z"/>
	<path class="st5" d="M247.3,205.5c7.8,1,14.8-1.9,21.7-5c0,2.7,0,5.3,0,8c-1.8,0.6-2.9-2-4.5-1.3c-5.6,2.7-11.4,0.6-17.1,1.2
		C247.4,207.4,247.4,206.5,247.3,205.5z"/>
	<path class="st10" d="M247.3,205.5c0,1,0.1,2,0.1,2.9c-0.1,0.4-0.1,0.8-0.2,1.1c-3.3,0.2-2.1-2.4-2.1-3.9
		c-0.1-11.8-0.1-23.5-0.1-35.3c0,0,0,0,0,0c1.7,0,3.3,0,5,0c0,0.4-0.1,0.7-0.1,1.1c-2.6-0.2-2.9,1.4-2.9,3.5
		C247.2,185.2,247.3,195.3,247.3,205.5z"/>
	<path class="st13" d="M279.7,300.4c1.6-2.5,3.5-1.9,5.2-1.8c4.1,0.2,7.5-1,9.3-4.9c0.8-1.7,2.1-1.5,3.3-1.2
		c1.9,0.4,1.4,2.1,1.2,3.3c-0.3,2.6-2,4.4-4.5,4.6C289.5,300.6,284.6,300.4,279.7,300.4z"/>
	<path class="st13" d="M262,298.7c0.1,1.6-0.9,1.9-2.2,1.9c-4,0-8,0-11.9-0.1c-0.8,0-1.7-0.2-2.4-0.6c-2.2-1.3-3.6-3.4-2.9-5.8
		c0.8-3.1,3.5-1.3,5.4-1.3c-0.5,4.3,1.4,6.1,5.7,5.8C256.4,298.4,259.2,298.6,262,298.7z"/>
	<path class="st8" d="M262,298.7c-2.8,0-5.6-0.3-8.4-0.1c-4.3,0.3-6.2-1.6-5.7-5.8c4.5-0.4,9-0.7,13.8,0.1c-0.9,1.8-2.2,1.2-3.2,1.4
		c-1.5,0.3-4.1-0.9-4.1,1.3c0,2.7,2.8,1.3,4.4,1.6C259.9,297.5,261.5,296.8,262,298.7z"/>
	<path class="st13" d="M271.2,306.3c0.7-0.3,1.3-0.5,2-0.8c0,0.3,0.2,0.7,0.1,1c-0.4,2.5,1.4,6.7-2.5,6.7c-4.3,0-2.7-4.1-2.8-6.9
		C269.1,306.3,270.2,306.3,271.2,306.3z"/>
	<path class="st13" d="M304.7,280.4c2.1-0.4,3.6-1.9,5.4-3c-0.1,1.3,0.1,2.7-0.4,3.8c-0.8,1.9-2.2,4.4-4.3,3.9
		C303.4,284.7,304.5,282.1,304.7,280.4z"/>
	<path class="st4" d="M247.2,209.6c0.1-0.4,0.1-0.8,0.2-1.1c5.7-0.6,11.5,1.5,17.1-1.2c1.6-0.8,2.7,1.9,4.5,1.3
		c-1.4,2.2-3.6,1.1-5.4,1.2C258.2,209.7,252.7,209.6,247.2,209.6z"/>
	<path class="st11" d="M250,171.5c0-0.4,0.1-0.7,0.1-1.1c6.3,0,12.7,0,19,0c0,0,0,0.1,0,0.1c0.1,0.3,0,0.6-0.1,0.9
		c-0.6,0-1.3,0.1-1.9,0.1C261.4,171.5,255.7,171.5,250,171.5L250,171.5z"/>
	<path class="st13" d="M299.1,280.7c0.8,0,1.6,0,2.4,0c0,2,1.6,5.4-1.1,5.4C297.6,286.1,299.4,282.6,299.1,280.7z"/>
	<path class="st10" d="M165,233.4c0.1,2.1-1.4,2.1-2.8,2C162.7,234,163.8,233.6,165,233.4z"/>
	<path class="st13" d="M157.1,240.9c-0.1,0.7-0.3,1.3-1,1.5C156.4,241.9,156.7,241.4,157.1,240.9z"/>
	<path class="st12" d="M182,185.1c0-0.3,0-0.5,0.1-0.7c0.3,0.3,0.7,0.5,1,0.8C182.7,185.2,182.3,185.1,182,185.1z"/>
	<path class="st2" d="M257.9,310.5c0.2,0.3,0.2,0.5,0,0.8c-0.1-0.2-0.3-0.4-0.3-0.6C257.5,310.7,257.8,310.6,257.9,310.5z"/>
	<path class="st10" d="M166.1,232.4c0.1,0.8-0.3,1.1-1,1C165,232.7,165.4,232.4,166.1,232.4z"/>
	<path class="st13" d="M382.1,238.5c-0.3-0.4-0.7-0.7-1-1.1C381.5,237.8,381.8,238.1,382.1,238.5z"/>
	<path class="st11" d="M223,94.7c-0.9-22.9,3.7-44.6,15.1-64.7c2-3.6,5.2-2,8-2.2c0.3,0.2,0.7,0.5,1,0.7c-0.3,3.9,1.2,7.1,4.6,8.5
		c4.1,1.7,9.5,0.8,11.2-2.5c1.6-3.1,3.4-4.2,6-5.1c0.1,1.5,0.1,3,0.2,4.5c0.3,3.2,0.1,6-3.9,6.6c-2,0.3-2.5,2.5-3.9,3.5
		c-5.1,2.2-7.5,6.7-9.4,11.6c-7.3,10.9-10.2,23.3-12.8,35.9c-0.2,1.1-0.1,2.3-1.2,3.2C233,94.7,228,94.7,223,94.7z M247.1,42.9
		c-0.7-2.1-2.1-3.5-4.6-3.5c-2.3,0.1-3.3,1.2-3.3,3.4c0,2.5,1.2,4.2,3.8,4.4C245.7,47.6,246.2,45.2,247.1,42.9z"/>
	<path class="st11" d="M293.4,61.3c-2.7-2.4-3.3-6.1-5.3-8.9c-3.8-5.4-7.7-10.2-14-13.1c-4.2-1.9-1.6-6.5-1.8-9.9
		c-0.2-2.9,2.7-1.7,4.3-1.8c7-0.1,14,0.2,21-0.2c3.7-0.2,5.4,1.4,6.9,4.3c8.9,16.4,13.3,34,13.8,52.6c-3.9,2.1-4.9,6.1-6.2,9.8
		c-0.6,0-1.2-0.1-1.8-0.1c-0.7-8-4.5-14.9-8-21.9C300.1,68.1,298.2,63.4,293.4,61.3z"/>
	<path class="st9" d="M246.1,88.1c0.8-8.7,4.2-16.7,7.9-24.5c1.4-0.2,2.6-0.1,3.1,1.6c0.3,1.2,1.2,2.2,2.5,2.1
		c5.2-0.4,10-1.7,13.4-6.3c2.6-3.6,2.6-7.4,1.1-11.3c-0.5-1.4-1.3-2.7-1-4.3c4.5,1.6,7.1,5.4,9.4,9.1c6.4,10.4,11.4,21.3,12.5,33.6
		C278.7,88.1,262.4,88.1,246.1,88.1z M270.3,80.7c3.2,0,6.3-0.1,9.5,0c3,0.2,3.6-1.3,3.6-3.9c-0.1-2.5,0-4.6-3.6-4.5
		c-5.6,0.2-11.3,0.2-16.9,0c-3.1-0.1-4.9,0.5-5,4.3c-0.1,4,2,4.3,5,4.1C265.3,80.6,267.8,80.7,270.3,80.7z"/>
	<path class="st9" d="M296,129.4c0,11.4,0,22.8,0.1,34.3c0,2.7-0.7,3.9-3.6,3.8c-6.1-0.2-12.2-0.2-18.4-0.2c0-11.3,0.1-22.6,0-33.8
		c0-3,0.9-4.1,4-4C284,129.5,290,129.4,296,129.4z"/>
	<path class="st9" d="M296,96.4c0,8.1-0.1,16.3,0.2,24.4c0.1,3.2-1.2,4-4.1,3.9c-6-0.2-12-0.1-17.9-0.2c0-9.4,0.1-18.8,0.1-28.2
		C281.5,96.4,288.8,96.4,296,96.4z"/>
	<path class="st11" d="M217,112.8c-12.3,0-23.3,0-34.4,0c-2.2,0-2.3-1-1.9-2.8c1.9-8.9,7.3-15.3,14.6-20.3c2.2-1.5,4.4-1.1,6.5,0.2
		c5.8,3.7,9.6,9.1,12.4,15.2c1.2,2.5,0,2.8-2.1,2.8c-1.1,0-2.7-0.1-2.8,1.4c-0.1,2.1,1.8,1.3,3,1.5C213.6,110.9,215,110.4,217,112.8
		z M199.1,96.3c0-2.1-0.5-3.7-2.9-3.8c-2.5-0.1-6.2,4.1-6,6.9c0.1,2.4,1.6,3.2,3.7,2.9C197.3,101.9,198.9,99.7,199.1,96.3z"/>
	<path class="st11" d="M359.8,107.1c-2.6,1.5-6.4-0.7-6.5,2.3c0,2.5,3.6,0.8,5.5,1.3c0.8,0.2,1.7,0,2,1.2c-0.5,1.3-1.6,0.9-2.5,0.9
		c-9.8,0-19.6,0-29.4,0.1c-3,0-4.3-0.5-3.1-3.9c2.5-7.3,6.3-13.4,12.5-18.2c3.4-2.6,6.6-2.5,9.9,0.1
		C353.6,95.2,357.4,100.6,359.8,107.1z M342.2,92.5c-2.8,0.2-6.3,4.5-6,7.2c0.2,2.4,1.9,3,3.8,2.7c3.6-0.6,5.4-3.2,5.8-6.4
		C346.1,93.8,344.1,92.6,342.2,92.5z"/>
	<path class="st11" d="M216.6,121.7c0,8.1,0,16.2,0.1,24.3c0,2.7-0.9,3.9-3.7,3.7c-5.3-0.2-10.6-0.2-15.9-0.3c0-6.4,0-12.8,0-19.2
		c9-0.6,9-0.6,7.7-8.8C208.8,120.2,212.6,124.8,216.6,121.7z"/>
	<path class="st9" d="M269.3,124.5c-1,0-2.1,0-3.1,0c-0.2-2.1,0.5-4.2,0.1-6.4c-1-5.3-3.7-8-8.5-7.7c-4.8,0.3-7.5,3.3-7.7,8.6
		c-0.1,1.8,0,3.7,0,5.5c-1,0-2,0-3,0c0-9.4,0.1-18.8,0.1-28.2c7.3,0,14.5,0,21.8,0C269.2,105.7,269.2,115.1,269.3,124.5z"/>
	<path class="st14" d="M318.9,126.3c0,9.3,0,18.6,0,27.8c-7.2-18.3-11.4-37.5-15.8-56.7c3,0,6,0,9,0c1,8.1,2.5,16,4.6,23.9
		C317.2,123,315.9,125.7,318.9,126.3z"/>
	<path class="st11" d="M246,19.4c0.5-0.6,1-1.3,1.6-1.9C264.1,1,281.4,2,296.1,20.4c-6.7,0-13.3,0-20,0.1c-2.4,0-4.1-0.2-4.2-3.4
		c-0.1-4.7-2.9-6.6-7.5-6.7c-6-0.1-9.9,3.4-13.2,7.7C249.7,20.4,248.2,20.8,246,19.4z"/>
	<path class="st3" d="M197.1,130.3c0,6.4,0,12.8,0,19.2c-4.3,0-8.7,0-13,0c0.6-1.5,2-3.4,1.5-4.4c-3.3-7.1-0.7-14.4-1.5-21.5
		c2.3-0.8,4.3-4,7.1-1C190.9,129.8,190.9,129.8,197.1,130.3z"/>
	<path class="st3" d="M246,19.4c2.2,1.4,3.6,1,5.3-1.3c3.2-4.3,7.1-7.8,13.2-7.7c4.6,0.1,7.4,2,7.5,6.7c0,3.2,1.8,3.4,4.2,3.4
		c6.7-0.1,13.3,0,20-0.1c0.9,0.3,0.7,1.1,0.9,1.7c-16.9,0-33.9-0.1-50.8-0.1c-0.4-0.5-0.9-1.1-1.3-1.6C245.3,20,245.7,19.7,246,19.4
		z"/>
	<path class="st12" d="M233.4,117.6c-1.9,13-7.1,25.1-10.5,37.8c-0.1-13.4-1.2-26.7,0-40C226.5,115.4,229.6,117.9,233.4,117.6z"/>
	<path class="st11" d="M233.4,117.6c-3.7,0.3-6.9-2.2-10.6-2.2c-0.5-6.1-1.2-12.2,0.3-18.2c5,0.1,10,0.2,15,0.3
		C236.5,104.1,234.9,110.9,233.4,117.6z"/>
	<path class="st10" d="M250.2,124.5c0-1.8-0.1-3.7,0-5.5c0.1-5.3,2.9-8.3,7.7-8.6c4.8-0.3,7.4,2.4,8.5,7.7c0.4,2.2-0.3,4.3-0.1,6.4
		C260.8,124.5,255.5,124.5,250.2,124.5z"/>
	<path class="st10" d="M273.1,45.4c-0.2,1.6,0.5,2.9,1,4.3c1.5,3.9,1.5,7.7-1.1,11.3c-3.4,4.6-8.2,5.9-13.4,6.3
		c-1.3,0.1-2.1-0.9-2.5-2.1c-0.5-1.7-1.7-1.8-3.1-1.6c0.2-0.7,0.4-1.4,0.6-2.1c1.7-1.7,2.4-3.8,2.9-6.1c4.1,0.5,3.2,4,3.5,6.5
		c0.4,2.9,1.1,1.5,2,0.4c4.8-0.5,7.2-3.1,7-8c0-0.3,0-0.6,0-0.9c-0.1-5.1-3.3-3.6-6.1-2.9c-0.6-0.7-0.8-1.5-0.4-2.4
		C266.3,46,269,43.5,273.1,45.4z"/>
	<path class="st14" d="M293.4,61.3c4.8,2.1,6.8,6.8,8.9,11c3.5,6.9,7.3,13.9,8,21.9c-2.4,0.2-4.8,0.3-7.2,0.5c-1-4.5-2-9-3.1-13.5
		c-1.3-6-3.6-11.6-6.4-17C293.1,63.2,293.1,62.2,293.4,61.3z"/>
	<path class="st12" d="M213,183.5c-6,0-11.9,0-17.9,0c7.9-5.4,14.2-12.2,20.2-19.9c0,4.6,0,9.2,0,13.8c-0.1,1.5-0.1,2.8-2.2,3.2
		C210,181.2,213,182.5,213,183.5z"/>
	<path class="st3" d="M269,29.4c-2.7,0.9-4.4,2-6,5.1c-1.7,3.3-7.2,4.1-11.2,2.5c-3.4-1.4-4.9-4.7-4.6-8.5c0.1-0.2,0.1-0.5,0.1-0.7
		c6.2,0,12.5-0.1,18.7-0.1C267.1,27.7,269.1,26.8,269,29.4z"/>
	<path class="st12" d="M318.9,126.3c-3-0.6-1.7-3.3-2.2-5c-2.1-7.8-3.6-15.8-4.6-23.9c2.3-0.3,4.6-0.4,6.9,0.1
		C319,107.2,318.9,116.8,318.9,126.3z"/>
	<path class="st14" d="M191.3,122.5c-2.8-3-4.8,0.2-7.1,1c-1.8,0.2-2.1-2.4-4-2.1c-0.4-2.2,0.5-3,2.7-3c10.3,0,20.5,0,30.8,0
		c2.2,0,3.6,0.6,3,3.2c-4,3.1-7.8-1.5-11.8-0.2C200.3,121.9,195.6,120.4,191.3,122.5z"/>
	<path class="st10" d="M296,129.4c-6,0-11.9,0.2-17.9,0c-3.1-0.1-4,1-4,4c0.1,11.3,0,22.6,0,33.8c-0.6,0.1-1.2,0.1-1.9,0.2
		c-0.3-13.3-0.5-26.6,0.1-39.9c6.6,0,13.3,0,19.9,0.1C293.6,127.7,295.8,126.5,296,129.4z"/>
	<path class="st1" d="M272.3,127.5c-0.7,13.3-0.4,26.6-0.1,39.9c-1,0-2.1,0.1-3.1,0.1c0,0-0.1-0.1-0.1-0.1c0-12.7,0-25.3,0-38
		c0-0.7-0.1-1.3-0.1-2C270.1,127.5,271.2,127.5,272.3,127.5z"/>
	<path class="st11" d="M180.1,121.5c1.9-0.3,2.2,2.3,4,2.1c0.8,7.1-1.8,14.5,1.5,21.5c0.5,1-1,2.9-1.5,4.4c-2.8,0.6-4.3,0.1-4.2-3.3
		C180.1,137.9,180.1,129.7,180.1,121.5z"/>
	<path class="st10" d="M268.9,127.5c0,0.7,0.1,1.3,0.1,2c-1,0-1.9,0-2.9,0c-5.3-1.8-10.7-1.7-16.1-0.1c-3.5-0.3-3,2.3-3,4.4
		c0,11.2,0,22.3,0,33.5c-0.7,0-1.4,0-2,0c0-11.8,0.1-23.6-0.1-35.4c-0.1-3.6,1.1-4.5,4.5-4.4C256,127.7,262.5,127.5,268.9,127.5z"/>
	<path class="st1" d="M269.3,124.5c-0.1-9.4-0.1-18.7-0.2-28.1c0.1-0.3,0.2-0.6,0.3-0.9c0.8,0,1.6,0,2.4,0c0.1,0.2,0.2,0.4,0.3,0.6
		c-0.1,9.5-0.1,18.9-0.2,28.4C271.1,124.5,270.2,124.5,269.3,124.5z"/>
	<path class="st0" d="M263,62.3c-0.9,1.1-1.6,2.5-2-0.4c-0.3-2.4,0.7-6-3.5-6.5c-0.8-0.5-1.7-0.9-3.1-1.7c6.8-0.5,6.3-5.5,6.9-9.7
		c2.8,0.4,1.5,2.8,2.2,4.3c-0.4,0.9-0.2,1.7,0.4,2.4c1.3,2.6,3.8,2.4,6.1,2.9c0,0.3,0,0.6,0,0.9C264.7,54.4,263,57.6,263,62.3z"/>
	<path class="st1" d="M245.1,167.3c0.7,0,1.4,0,2,0c1,0,2,0,3,0c5.3,0,10.6,0,16,0c1,0.1,2,0.1,2.9,0.2c0,0,0.1,0.1,0.1,0.1
		c0,1,0,1.9,0,2.9c-6.3,0-12.7,0-19,0c-1.7,0-3.3,0-5,0C245.1,169.4,245.1,168.3,245.1,167.3z"/>
	<path class="st8" d="M272.1,96.1c-0.1-0.2-0.2-0.4-0.3-0.6c0.4-1.6,1.4-2.1,2.9-2c6.1,0,12.3,0.1,18.4,0c2.1,0,3.1,0.8,2.8,2.9
		c-7.2,0-14.5-0.1-21.7-0.1C273.6,96.3,272.8,96.2,272.1,96.1z"/>
	<path class="st14" d="M261.3,44c-0.6,4.3-0.1,9.2-6.9,9.7c1.4,0.8,2.3,1.3,3.1,1.7c-0.5,2.3-1.2,4.4-2.9,6.1
		c-1.9-1.5-2.8-3.5-2.6-5.9C253.9,50.8,256.3,46.3,261.3,44C261.4,44,261.3,44,261.3,44z"/>
	<path class="st8" d="M269.4,95.5c-0.1,0.3-0.2,0.6-0.3,0.9c-7.3,0-14.5,0-21.8,0c-0.7-0.2-1.3-0.4-2-0.6c-0.2-1.5,0.5-2.2,1.9-2.2
		c6.6,0,13.1,0,19.7,0C268.3,93.5,269,94.3,269.4,95.5z"/>
	<path class="st14" d="M361.1,121.4c-2.1,0.9-4,3.2-6.6,0.3c-0.7-0.8-3.2-0.2-4.8-0.2c-1.9-0.1-3.8-0.2-5.7-0.3c0-0.8,0-1.5-0.1-2.3
		c5.1-0.1,10.2-0.3,15.2-0.4C361.2,118.5,362.5,119.1,361.1,121.4z"/>
	<path class="st10" d="M245.3,95.7c0.7,0.2,1.3,0.4,2,0.6c0,9.4-0.1,18.8-0.1,28.2c-0.7,0-1.5,0-2.2-0.1c0-9.3-0.1-18.7-0.1-28
		C245.1,96.3,245.2,96,245.3,95.7z"/>
	<path class="st1" d="M244.9,96.5c0,9.3,0.1,18.7,0.1,28c-1.4-0.2-1.9-1.1-1.9-2.5c0-7.7,0-15.3,0-23
		C243.1,97.7,243.4,96.7,244.9,96.5z"/>
	<path class="st10" d="M272.1,96.1c0.7,0.1,1.4,0.2,2.2,0.2c0,9.4-0.1,18.8-0.1,28.2c-0.7,0-1.5,0-2.2-0.1
		C272,115,272.1,105.6,272.1,96.1z"/>
	<path class="st1" d="M246.2,22c16.9,0,33.9,0.1,50.8,0.1c-0.7,1.6-2.2,1.3-3.5,1.3c-15.4,0-30.9,0-46.3,0c-1.2,0-2.4,0.1-3.2-1
		C244.8,22.3,245.5,22.1,246.2,22z"/>
	<path class="st12" d="M312,94.3c1.3-3.8,2.3-7.7,6.2-9.8c1.3,3.2,0.4,6.6,0.8,9.8C316.7,94.7,314.4,94.7,312,94.3z"/>
	<path class="st1" d="M246.1,88.1c16.3,0,32.6,0,48.9,0c-0.7,1.5-2.2,1.3-3.5,1.3c-14,0-28,0-42,0C248.3,89.4,246.9,89.7,246.1,88.1
		z"/>
	<path class="st1" d="M312,94.3c2.3,0.4,4.7,0.5,7,0c0,1.1,0,2.2,0,3.4c-2.3-0.5-4.6-0.4-6.9-0.1c-3,0-6,0-9,0c0-1,0-1.9-0.1-2.9
		c2.4-0.2,4.8-0.3,7.2-0.5C310.8,94.2,311.4,94.2,312,94.3z"/>
	<path class="st1" d="M238.1,97.4c-5-0.1-10-0.2-15-0.3c0-0.8-0.1-1.7-0.1-2.5c5,0,10,0,15,0C238.1,95.6,238.1,96.5,238.1,97.4z"/>
	<path class="st12" d="M343.9,118.9c0,0.8,0,1.5,0.1,2.3c-2.5,0.1-5.1,0.2-7.6,0.3c-2,0-4,0.1-5.9,0.1c-0.1-0.9-0.1-1.9-0.2-2.8
		C334.8,118.9,339.4,118.9,343.9,118.9z"/>
	<path class="st14" d="M330.2,118.8c0.1,0.9,0.1,1.9,0.2,2.8c-0.1,0.7-0.2,1.3-0.3,2c-2.4,1.1-3.1-2.7-5.4-1.8
		C324,115.9,328.1,119.3,330.2,118.8z"/>
	<path class="st14" d="M246.2,22c-0.7,0.1-1.4,0.3-2.2,0.4c-0.1-0.8,0-1.6,0.9-2.1C245.4,20.9,245.8,21.5,246.2,22z"/>
	<path class="st12" d="M247.2,27.8c0,0.2,0,0.5-0.1,0.7c-0.3-0.2-0.7-0.5-1-0.7C246.5,27.7,246.8,27.8,247.2,27.8z"/>
	<path class="st3" d="M117.1,374c-0.4,3.4-2.2,5.6-5.7,5.6c-3.2,0-5.3-2-5.5-5.2c-0.2-3.5,1.8-5.8,5.3-5.9
		C114.7,368.4,116.6,370.6,117.1,374z"/>
	<path class="st3" d="M467.5,408.3c-0.4,3.5-2.4,5.5-5.9,5.3c-3.3-0.1-5.3-2.3-5.3-5.4c0-3.4,2.1-5.7,5.6-5.6
		C465.4,402.6,467.2,404.8,467.5,408.3z"/>
	<path class="st3" d="M61.8,432.3c1.6,0.2,2.5,1.1,2.7,2.5c0.1,1.8-1,2.9-2.7,2.9c-1.4,0-2.6-0.9-2.7-2.4
		C59,433.5,60.2,432.6,61.8,432.3z"/>
	<path class="st3" d="M498.3,458.3c-0.2,1.5-1.2,2.5-2.6,2.4c-1.6-0.1-2.9-1.1-2.7-2.9c0.2-1.7,1.3-2.7,3.1-2.4
		C497.6,455.7,498.3,456.8,498.3,458.3z"/>
	<path class="st6" d="M158.5,351.4c-1.7-0.2-2.9-1.1-3-2.7c-0.1-1.7,1.1-2.8,2.7-2.9c1.7-0.1,2.8,1,2.9,2.6
		C161.2,350.1,160.1,351,158.5,351.4z"/>
	<path class="st3" d="M386.3,332c-0.4,1.8-1.4,2.8-3.2,2.5c-1.5-0.2-2.4-1.3-2.2-2.8c0.2-1.7,1.3-2.7,3.1-2.4
		C385.6,329.5,386.2,330.6,386.3,332z"/>
	<path class="st0" d="M371.4,356.4c2.9-0.1,5.7-0.1,8.1,1.9c3.3,2.7,3.7,6.3,0.8,9.5c-7.5,8.2-17.1,10.3-27.7,9.5
		c-2.8-0.2-5.2-2-6.1-4.6c-1.1-3,0.7-5.8,2.8-7.5C355.5,359.8,362.8,356.3,371.4,356.4z"/>
	<path class="st1" d="M363.2,400.4c-3.1,4-4.2,4-6.2-0.5c-0.6-1.4-1.2-2.4-2.8-2.4c-1.5,0-2.4,1.1-2.7,2.5c-0.5,2.2-1.6,3.9-4.1,2.6
		c-2.4-1.2-1.8-3.4-1.1-5.3c1.5-4.1,4.8-6.4,8.9-5.5c3.3,0.8,5-0.3,7.4-2.1c7.6-5.6,18.5-0.9,20,8.3c0.3,1.7,0.4,3.3-1.3,4.4
		c-1.9,1.2-3.1-0.1-4.3-1.2c0.1-4.6-2-7.8-6.8-8C365.8,393.3,363.2,395.7,363.2,400.4z"/>
	<path class="st0" d="M310.1,371.4c0-4.6,4.4-9,8.7-8.9c4.2,0.1,8.3,4.5,8.3,8.9c0,4.5-4,8.8-8.3,8.9
		C314.3,380.4,310.1,376,310.1,371.4z"/>
	<path class="st1" d="M430.4,443.6c-0.1,1.9-0.6,3.6-1.8,5c-1,1.2-2.2,2.2-3.8,1.3c-1.7-1-2.2-2.4-1.1-4.2c1-1.5,1.5-3-0.1-4.4
		c-1.4-1.3-2.7-0.5-4,0.3c-1.7,1.1-3.3,0.7-4.2-1.1c-0.9-1.8,0.2-3.2,1.7-4.1c2.9-1.9,5.9-2.2,8.9-0.5
		C428.9,437.6,430.4,440.2,430.4,443.6z"/>
	<path class="st0" d="M363.2,400.4c0-4.7,2.6-7.1,7-7c4.8,0.2,6.8,3.4,6.8,8c-2.4,0-1.4-2.6-2.7-3.5
		C370.4,402.1,370.4,402.1,363.2,400.4z"/>
	<path class="st1" d="M391.6,402.6c1.6,0.3,2.8,1.1,2.8,2.9c0,1.7-1.1,2.8-2.8,2.8c-1.7,0-2.8-1-2.8-2.8
		C388.9,403.8,390,402.9,391.6,402.6z"/>
	<path class="st1" d="M435.8,450.9c-1.7-0.1-2.8-0.9-2.9-2.7c-0.1-1.8,1-2.8,2.7-2.9c1.5,0,2.5,0.9,2.7,2.4
		C438.5,449.5,437.6,450.5,435.8,450.9z"/>
	<path class="st1" d="M253,422.9c0.2-4.7,4.7-8.8,9.7-8.9c5.1-0.1,9.6,3.8,10.1,8.5c0.2,1.8-0.1,3.5-2.1,4c-2,0.5-3.2-0.6-3.5-2.5
		c-0.4-2.4-1.6-4.2-4.1-4.3c-2.8-0.1-4,1.8-4.5,4.4c-0.3,1.7-1.4,2.7-3.2,2.5C253.4,426.2,252.9,424.7,253,422.9z"/>
	<path class="st2" d="M220,456.8c-0.3,1.6-1.3,2.7-3,2.6c-1.7-0.1-2.8-1.1-2.8-2.8c0-1.9,1.3-3.1,3.2-2.9
		C219.1,453.9,220,455.1,220,456.8z"/>
	<path class="st2" d="M207.1,462.3c0.2-1.7,1.1-2.8,2.8-2.8c1.9,0,3.1,1.2,3,3.1c-0.1,1.6-1.2,2.7-2.9,2.6
		C208.3,465,207.3,464,207.1,462.3z"/>
	<path class="st2" d="M354.9,462.2c-0.2,1.7-1.1,2.9-2.8,3c-1.7,0.1-2.9-1-2.9-2.7c-0.1-1.8,1-2.8,2.7-2.9
		C353.6,459.4,354.5,460.5,354.9,462.2z"/>
	<path class="st1" d="M313.4,439c1.7,0.4,2.8,1.3,2.6,3c-0.1,1.7-1.3,2.6-3,2.5c-1.7-0.1-2.7-1.2-2.5-2.9
		C310.6,440,311.7,439.1,313.4,439z"/>
	<path class="st1" d="M108.3,442.8c0.2-5.3,2.5-9.3,7.2-11.7c4.6-2.3,9-1.7,13.2,1.2c1.6,1.1,3.1,2.5,1.8,4.5
		c-1.4,2.3-3.2,1.6-5,0.3c-3.3-2.4-6.6-2.2-9.4,0.7c-2.7,2.8-2.7,5.9-0.4,9.1c1.3,1.8,2.2,3.7-0.2,5.1c-2.4,1.4-3.7-0.5-4.9-2.2
		C109.1,447.8,108.4,445.4,108.3,442.8z"/>
	<path class="st1" d="M177.2,388.1c6-0.1,11,5.3,10.1,11.1c-0.3,1.8-0.8,3.4-2.9,3.4c-2.1,0-3-1.4-2.8-3.3c0.2-2.7-0.8-4.6-3.5-5.3
		c-2.5-0.6-4,1-5,3.1c-0.8,1.7-2,2.8-3.9,1.8c-2.1-1.1-1.8-3-1-4.8C169.9,390.3,173,388.3,177.2,388.1z"/>
	<path class="st2" d="M110.8,456.6c1.2,1.7,2.2,3.4,0.1,5.1c-1.2,1-2.5,0.8-3.6-0.2c-2-1.9-0.7-3.5,0.7-5
		C109,456.5,109.9,456.5,110.8,456.6z"/>
	<path class="st1" d="M364.3,238.3c-0.3,0.5-0.5,1-0.8,1.3c-3.6,3.7-7.3,7.3-10.9,11c-0.7,0.7-1.7,1.4-2.6,0.5c-1-1,0-1.8,0.6-2.5
		c3.6-3.7,7.3-7.3,11-11c0.6-0.6,1.3-1.2,2.2-0.6C364,237.3,364.1,237.8,364.3,238.3z"/>
	<path class="st1" d="M365.9,245.8c-0.4,0.5-0.6,1-0.9,1.3c-3.6,3.7-7.3,7.3-11,11c-0.7,0.7-1.6,1.6-2.5,0.5
		c-0.9-0.9-0.1-1.9,0.6-2.6c3.6-3.7,7.3-7.3,11-10.9c0.6-0.6,1.4-1,2.2-0.5C365.6,244.8,365.7,245.4,365.9,245.8z"/>
	<path class="st13" d="M377.7,255.4c2.2,0.1,4.5,0.3,4.4,2.9c0,2.6-2.3,2.9-4.3,3c-2.3,0.1-4.7-0.6-4.6-3.3
		C373.4,255.6,375.9,255.5,377.7,255.4z"/>
	<path class="st1" d="M202.1,246.4c-0.7,1.8-1.4,3.7-2.2,5.5c-0.5,1.2-0.8,2.9-2.5,2.4c-1.9-0.6-0.8-2.1-0.5-3.3
		c0.2-0.8,0.4-1.6,0.6-2.4c1.3-3.5,1.8-7.7,3.3-10.4c2.6-4.7,3.3-10.5,7.2-15c1,3.4,1.2,3.5-1.5,9.9c-1.5,3.4-1.4,5.2,2.7,5.8
		c1.6,0.2,3.3,0.8,4.2,2.5c-0.7,1.4-2.1,1.2-3.3,1.2C203.5,239.7,203.2,239.8,202.1,246.4z"/>
	<path class="st1" d="M200.5,230.6c-1.7,4.3-3.4,8.6-5.1,12.9c-0.3,0.6-1,1-1.7,0.6c-0.8-0.5-0.9-1.5-0.5-2.2c2.3-4,0.8-6.1-3.4-7
		c-0.8-0.2-1.6-0.9-1.4-1.8c0.3-1.1,1.5-1.5,2.4-0.9c3.5,2,5.8,1.5,6.9-2.6c0.1-0.4,1.2-0.8,1.6-0.7
		C199.8,229.1,200,229.9,200.5,230.6z"/>
	<path class="st1" d="M204.8,215c0,0.2,0.1,0.4,0.3,0.4c0.1,2.9-1.8,5.3-2.3,8c-0.2,1-0.9,2-2.1,1.6c-0.9-0.3-1-1.5-0.7-2.1
		C201.6,220.2,200.7,216.1,204.8,215z"/>
	<path class="st4" d="M202.1,246.4c1.1-6.6,1.4-6.8,7.9-3.8C207.4,243.9,204.7,245.2,202.1,246.4z"/>
	<path class="st13" d="M163.1,258.9c-0.1,1.3-0.7,2.2-2,2.3c-1.4,0.2-2.1-0.7-2.2-2c-0.1-1.4,0.3-2.7,2.1-2.5
		C162.3,256.8,163,257.6,163.1,258.9z"/>
	<path class="st10" d="M251.8,255.9c-0.1,3.5-5.4,8.5-8.6,8.4c-2.3,0-3.8-1.2-3.8-3.7c0-3.1,5.4-8.1,8.6-8
		C250.3,252.7,251.6,253.9,251.8,255.9z"/>
	<path class="st9" d="M274.3,195.5c-0.1-6.9-0.1-13.9-0.2-20.8c-0.1-2.4,0.9-3.3,3.2-3.2c4.9,0.2,9.9,0.2,14.8,0.3
		C287.8,180.9,283.2,189.8,274.3,195.5z"/>
	<path class="st2" d="M336.3,121.5c2.5-0.1,5.1-0.2,7.6-0.3c1.9,0.1,3.8,0.2,5.7,0.3c-0.2,2.2-0.1,4.5-0.5,6.6c-0.8,3.8-4.1,1-6,2.2
		C335,129.7,335,129.7,336.3,121.5z M346.6,125c-2.9-0.9-5.1-0.6-7.4,0c-0.1,0-0.2,1.5,0.2,1.7c2.2,1.5,4.3-0.2,6.4-0.6
		C345.8,126,345.9,125.8,346.6,125z"/>
	<path class="st10" d="M250,171.6c5.7,0,11.4-0.1,17.2-0.1c-0.1,2.8-0.1,5.7-0.3,8.5c-0.4,5.9-3.9,9.6-8.8,9.4
		c-5.3-0.2-7.9-3.4-8-9.9C250.1,176.9,250,174.2,250,171.6z"/>
	<path class="st11" d="M329.9,168.7c-1.3-1.5-2-3.1-1.9-5.1c0-2.9,0-5.7,0-8.6C330.5,159.5,330.1,164.1,329.9,168.7z"/>
	<path class="st3" d="M247.1,42.9c-0.8,2.2-1.3,4.6-4.2,4.4c-2.5-0.2-3.7-1.9-3.8-4.4c0-2.2,1.1-3.4,3.3-3.4
		C245,39.4,246.4,40.8,247.1,42.9z"/>
	<path class="st2" d="M270.3,80.7c-2.5,0-5-0.1-7.5,0c-3,0.2-5-0.2-5-4.1c0-3.8,1.9-4.3,5-4.3c5.6,0.1,11.3,0.2,16.9,0
		c3.5-0.1,3.5,1.9,3.6,4.5c0.1,2.6-0.5,4.1-3.6,3.9C276.6,80.6,273.5,80.7,270.3,80.7z M274.3,78c2,0,4.2,0.9,6-0.6
		c0.5-0.4,0.5-1.4-0.2-1.7c-2-0.7-4.1-0.9-5.9,0.8c-4.4-2.4-8.7-1.3-13.2,0.3C265.3,79.3,269.9,77.9,274.3,78z"/>
	<path class="st3" d="M199.1,96.3c-0.2,3.4-1.8,5.6-5.3,6.1c-2.1,0.3-3.6-0.5-3.7-2.9c-0.1-2.8,3.5-7.1,6-6.9
		C198.6,92.6,199.1,94.3,199.1,96.3z"/>
	<path class="st3" d="M342.2,92.5c1.9,0.1,3.9,1.3,3.6,3.5c-0.4,3.2-2.3,5.8-5.8,6.4c-2,0.3-3.6-0.3-3.8-2.7
		C335.9,97,339.4,92.6,342.2,92.5z"/>
	<path class="st2" d="M191.3,122.5c4.4-2.1,9-0.6,13.5-1.1c1.4,8.2,1.4,8.2-7.7,8.8C190.9,129.8,190.9,129.8,191.3,122.5z"/>
	<path class="st11" d="M263,62.3c0-4.7,1.7-8,7-8C270.1,59.2,267.7,61.8,263,62.3z"/>
	<path class="st11" d="M270,53.5c-2.3-0.4-4.8-0.2-6.1-2.9C266.7,49.9,269.9,48.4,270,53.5z"/>
	<path class="st9" d="M269.1,167.4c-1-0.1-2-0.1-2.9-0.2c0-6.4,0-12.7,0-19.1c0-6.2,0-12.4,0-18.6c0,0,0,0,0,0c1,0,1.9,0,2.9,0
		C269.1,142.1,269.1,154.8,269.1,167.4z"/>
	<path class="st9" d="M250.2,167.2c-1,0-2,0-3,0c0-11.2,0-22.3,0-33.5c0-2.1-0.6-4.6,3-4.4l0,0C250.1,142,250.2,154.6,250.2,167.2z"
		/>
	<path class="st11" d="M250.1,129.4c5.4-1.6,10.7-1.7,16.1,0.1c0,0,0,0,0,0C260.8,129.5,255.5,129.4,250.1,129.4L250.1,129.4z"/>
	<path class="st10" d="M250.1,129.4c5.3,0,10.7,0.1,16,0.1c0,6.2,0,12.4,0,18.6c0,6.4,0,12.7,0,19.1c-5.3,0-10.6,0-16,0
		C250.2,154.6,250.1,142,250.1,129.4z"/>
	<path class="st6" d="M346.6,125c-0.7,0.8-0.8,1-0.9,1.1c-2.1,0.4-4.1,2.1-6.4,0.6c-0.3-0.2-0.3-1.6-0.2-1.7
		C341.4,124.3,343.7,124.1,346.6,125z"/>
	<path class="st6" d="M274.3,78c-4.4-0.1-8.9,1.3-13.3-1.2c4.5-1.6,8.8-2.7,13.2-0.3C274.2,76.9,274.3,77.5,274.3,78z"/>
	<path class="st7" d="M274.3,78c0-0.5,0-1-0.1-1.5c1.8-1.7,3.8-1.5,5.9-0.8c0.7,0.3,0.7,1.2,0.2,1.7C278.5,78.9,276.3,78,274.3,78z"
		/>
</g>
</svg>
