<?xml version="1.0" encoding="utf-8"?>
<!-- Generator: Adobe Illustrator 19.0.0, SVG Export Plug-In . SVG Version: 6.00 Build 0)  -->
<svg version="1.1" id="Layer_1" xmlns="http://www.w3.org/2000/svg" xmlns:xlink="http://www.w3.org/1999/xlink" x="0px" y="0px"
	 viewBox="0 0 365.4 298.6" style="enable-background:new 0 0 365.4 298.6;" xml:space="preserve">
<style type="text/css">
	.st0{fill:#4F576A;}
	.st1{fill:#33B770;}
	.st2{fill:#2FAA68;}
	.st3{fill:#EAA46B;}
	.st4{fill:#278954;}
	.st5{fill:#F1CFB2;}
	.st6{fill:#C68F69;}
	.st7{fill:#68D78F;}
	.st8{fill:#CDD6E2;}
	.st9{fill:#A2FCB2;}
	.st10{fill:#52C485;}
</style>
<g>
	<path class="st0" d="M358.8,298.6c-22.7,0-45.3-0.1-68-0.1c-1.2,0-2.3,0-3.5,0c-1.9,0-3.9-0.3-4-2.7c-0.1-2.5,1.9-2.8,3.9-2.8
		c5.8,0,11.7-0.2,17.5,0c3.2,0.1,5.4-0.4,6.5-3.8c0.4-1.2,1.4-2.6,2.4-3.1c4.6-2.2,3.5-4.6,1.1-7.9c-3.9-5.2-7.3-10.7-10.8-16.2
		c-1.3-2-2.8-2.9-5.3-2.9c-22.2,0.1-44.3,0.1-66.5,0c-3.1,0-4,1-3.8,4c0.2,3.5,0.2,7,0,10.5c-0.2,5-0.8,10,5.6,11.9
		c0.8,0.2,1.8,1.2,2.1,2.1c1.6,6.2,6.4,5.4,11.1,5.4c9.2-0.1,18.3,0,27.5,0c2,0,4.5-0.2,4.6,2.5c0.2,3.1-2.5,3-4.7,3
		c-39,0-78,0-117,0c-2.2,0-4.9,0.2-5-2.7c0-3,2.7-2.8,4.9-2.8c9.8,0,19.7-0.1,29.5,0c3.1,0,5.4-0.2,6.5-3.7c0.6-1.9,2.1-3.8,4-4.3
		c5-1.5,5.1-5.2,4.8-9.3c-0.2-4-0.3-8,0-12c0.2-3.5-0.9-4.5-4.4-4.5c-18,0.2-36.1,0.9-54-0.2c-11.7-0.8-19.4,2.4-23.9,13.2
		c-0.6,1.4-1.6,2.5-2.5,3.7c-2.6,3.9-5.3,6.2-0.1,11.8c4.5,4.9,8.3,5.2,13.4,5.3c4.5,0,9,0,13.5,0c1.9,0,4,0,4.1,2.6
		c0.1,2.9-2.1,2.9-4.2,3c-10.7,0-21.3,0-32,0c-31.8,0-63.7,0-95.5,0c-1.5,0-3,0.1-4.5-0.2c-1.5-0.3-2.3-1.3-2.2-2.9
		c0.1-1.4,1-2.1,2.3-2.3c1.3-0.2,2.7-0.2,4-0.2c16,0,32-0.1,48,0c2.9,0,5-0.2,6.1-3.5c0.9-2.6,3-4.8,5.6-5.4
		c4.4-1.1,6.3-4.3,8.6-7.7c13.7-20.7,27.5-41.3,41.2-62c0.9-1.3,1.7-2.7,3.1-4.9c-16.8,0-32.6,0.1-48.4,0c-6.2,0-10.2-3.2-11.3-8.5
		c-1-4.5,1.3-9.1,5.3-11.4c2.8-1.6,5.9-0.8,9.1-1.4c-2.7-7.4-1.7-15.1-1.7-22.6c-0.1-43.3,0-86.7,0-130c0-13,4.2-17.2,17.4-17.2
		c32.7,0,65.3-0.1,98,0.1c4.2,0,5.7-1.2,5.1-5.3c-0.3-1.8-0.1-3.7,0-5.5c0.4-5.4,3.6-7.7,10.7-7.8c11.5-0.1,14.9,1.5,15.4,7.6
		c0.2,2.3,0.2,4.7,0,7c-0.3,3,0.8,4,3.9,4c9.8-0.2,19.7-0.1,29.5-0.1c23.7,0,47.3,0,71,0c11.5,0,16.1,4.5,16.1,16
		c0,47.8,0,95.7,0,143.5c0,3.5-0.7,6.9-1.8,10.4c1.6,0.1,2.9,0.1,4.2,0.2c6.2,0.3,10.6,4.5,10.7,10.3c0.1,5.9-4.4,10.6-10.9,10.7
		c-11.2,0.2-22.3,0.1-33.5,0.1c-4.9,0-9.9,0-14.8,0c-0.4,2,0.8,2.8,1.5,3.9c14.5,21.9,29.1,43.8,43.6,65.8c1.3,2,2.7,3.6,5.2,4.3
		c3.4,0.9,6,3.2,7.3,6.4c1.1,2.7,2.6,3.3,5.3,3.2 M189.2,182.8c0.4-0.5,1.2-1.4,1.1-1.4c-1.5-1.7-9.5-0.7-10.9,1.3
		c-1.3,5,1,6.1,5.6,5.9C189.5,188.5,188.2,185,189.2,182.8z M216.2,5.7c-1.8-0.1-3.6-0.1-5.3-0.2c-2.7,0-3.9,1.3-3.4,4
		c-0.1,2-0.2,4-0.2,5.9c0,1-0.4,2.6,1.2,2.8c1.3,0.2,1.3-1.2,1.5-2.1c0.4-1.7,1.3-1.7,2.4-0.6c0.7,6.2,5.4,2.6,8,2.8
		c4.4,0.3,2.2-3.5,2.4-5.8c-0.1-2.3,1.4-5.2-1.8-6.6c-1.6,1.7,0.3,4.2-1.9,5.5C216.4,10.4,219.7,6.3,216.2,5.7z M229.8,289.7
		c-0.8-1.3-2.3-1.5-3.5-1.5c-7.4-0.1-14.9-0.1-22.3-0.1c-1.3,0-2.7,0.3-3.5,1.6c-1,0.3-2,0.9-2,2c0,1.4,1.3,1.2,2.2,1.2
		c9.6,0,19.2,0,28.8,0c0.9,0,2.2,0.2,2.2-1.2C231.7,290.6,230.8,289.9,229.8,289.7z M112.1,289.6c-11.6-2.9-23.1-3-34.7,0
		c-1,0.3-1.9,1-1.9,2c0,1.5,1.3,1.2,2.2,1.2c11.3,0,22.7,0,34,0c0.9,0,2.2,0.3,2.3-1.2C114,290.6,113.1,290,112.1,289.6z
		 M352.9,289.7c-11.6-3-23.1-3-34.7,0c-1,0.4-2,1-1.8,2.1c0.2,1.7,1.8,1.2,2.8,1.2c11,0,22,0,33,0c0.9,0,2.2,0.4,2.6-0.8
		C355.2,290.7,353.9,290.1,352.9,289.7z M98,181.6c-0.9,0.8-1.9,1.4-2.6,2.3c-0.9,1.2-3.4,2-2.5,3.7c0.8,1.6,3,0.9,4.6,0.9
		c9.7,0,19.5-0.3,29.2,0.1c4.8,0.2,6.3-1.4,5.3-5.9c0.3-2.5-1.5-2-2.9-2c-9.7-0.1-19.4-0.1-29.1-0.2C99.1,180.5,98.4,180.8,98,181.6
		z M141.4,249c-3.7-0.5-7.3-0.7-8.3,4.5c2.1,0,4.2,0,6.2,0c0.5,0.1,1,0.2,1.5,0.2c50.9,0,101.8,0,152.7,0c0.5,0,1,0,1.5,0
		c3.5-0.2,1.8-1.7,0.7-3c-1-3-3.6-1.9-5.5-1.9c-47.9-0.1-95.9,0-143.8,0C144.7,248.7,143.1,248.9,141.4,249z M337.9,178.8
		c1.3,1.6,2.3,3.5,5.3,4c0-2.4,0-4.4,0-6.3c0-46.7,0-93.3,0-140c0-2.2,1.2-5.7-0.8-6.4c-2.4-0.9-3.7,2.6-5.4,4.3
		c-1.7,0.7-1.7,2.1-1.7,3.7c0,45.4,0.1,90.7,0,136.1C335.2,176.5,335.9,177.9,337.9,178.8z M332.9,182.7c-0.4-2.2-1.9-2.2-3.7-2.2
		c-35.5,0.1-70.9,0.1-106.4,0.2c-1.3,0-2.8-0.2-4,0.2c-1.1,0.4-0.3,1.3,0.3,1.9c0.1,4.5,2.2,5.8,6.9,5.8
		c35.3-0.2,70.5-0.1,105.8-0.2c2,0,4.3,0.8,6.1-1.4c-3.1-2.8-7.4,0.1-10.6-2.1c0.6-1.9,2-1.2,3-1.6
		C331.1,183.1,332.4,184.4,332.9,182.7z M89.4,181.9c2.5-2.2,5.7-3.7,5.7-8c-0.2-44.1-0.2-88.2,0-132.4c0-5.2-1.4-8.6-5.6-11.1
		c-0.6-0.6-1.3-2.1-2.1-0.6c-0.6,1.1-0.3,2.6-0.3,3.9c0,48.1,0,96.1,0,144.2c0,1.3-0.1,2.7,0.2,4C87.7,183.4,88.7,182.7,89.4,181.9z
		 M291.4,214.5c-1.4-6.1-6.2-4.8-10.4-4.7c-1.5,0-3.8-1-4.4,0.9c-0.4,1.4,1,3,2.5,4c11.8,19.6,24.9,38.3,37.8,57.1
		c1.5,2.4,2.8,4.9,4.4,7.1c1,1.4,1.5,3.6,3.7,3.6c5.9,0.1,11.7,0,18.8,0c-6.7-9.7-12.7-18.3-18.7-27c-8.6-14-17.7-27.6-27.2-40.9
		c-1.2-2-1.8-4.8-5.5-5c0.7,2.3,1.8,3.8,3.3,4.9c0.5,1,1,2.1,1.5,3.1c0.5,0.9,1.1,2,0,2.6c-1.1,0.6-1.7-0.5-2.4-1.2
		C293.9,217.6,292.6,216,291.4,214.5z M96.1,268.7c-3,4.4-6,8.8-9.3,13.6c8,1,15,1.6,18.3-6.9c0.4-0.9,1.3-2.1,2.9-0.9
		c-0.2,2.1-1.8,3.4-2.7,5.1c-0.4,0.8-1.6,1.7-0.6,2.6c1.2,1,2.1,0,2.7-1.1c4-6.1,7.9-12.3,11.9-18.4c2.2-3.1,4.4-6.2,6.5-9.4
		c8.3-13,17.5-25.4,25.3-38.7c1.3-1.3,2.4-2.6,2.8-5c-4.6,0-8.9,0.3-13.2-0.1c-4.2-0.3-7.1,1-8.5,5.1
		C119.7,232.3,107.9,250.5,96.1,268.7z M336.2,26.7c1.1-0.9,3.1-1.9,0.1-2.8c-1.2-0.4-2.6-0.1-4-0.1c-78.1,0-156.2,0-234.4,0
		c-1.3,0-2.8-0.2-4,0.1c-3,0.9-1,1.9,0.1,2.8c2.2,2.4,3.7,5,7.9,5c74.8-0.2,149.6-0.2,224.4,0C331,31.7,333.9,30.2,336.2,26.7z
		 M345.2,197.8c3.4,0,6.9,0,10.7,0c-1.7-4.6-5.1-4-8.1-4c-72.8,0-145.6,0-218.5,0c-16,0-32,0-48,0c-3.6,0-6.8,0.5-7.1,5.1
		c0.3,5.9,4.7,5.6,8.7,5.6c88.2,0,176.5,0,264.7,0c1.3,0,2.7,0,4-0.2c1.9-0.4,3.7-1.2,4.2-4.1c-2.6,0-4.9,0-7.2,0
		C347,200,345,200.5,345.2,197.8z M104.2,175.5c8.2,0,16.3,0,24.5,0.2c2.9,0.1,4.7-0.9,6-3.3c2.4-4.5,6.7-6.8,11.3-7.3
		c6.7-0.7,13.6-0.8,20.4,0.2c4.9,0.7,8.4,3.4,10.6,7.5c1.4,2.5,3.1,3,5.6,3c15.8-0.1,31.6,0,47.4,0c31.1,0,62.3,0,93.4,0
		c4,0,6.8-0.6,6.7-5.6c-0.2-27.8-0.1-55.6-0.2-83.4c0-15.3,0-30.6,0-45.9c0.4-5-3.3-4-6.2-4c-65.8,0-131.6,0-197.3,0
		c-7.3,0-14.7,0.1-22,0c-3.2,0-4.6,1.2-4.5,4.4c0.1,5,0,10,0,15c0,37.6,0,75.3,0,112.9C100.1,172,99.8,175.3,104.2,175.5z
		 M138.9,243.5c20.9,0,40.8,0,60.7,0c2.6,0,2.5-1.6,2.5-3.3c0-9.2-0.1-18.3,0.1-27.5c0.1-2.9-1.3-3.2-3.6-3.2c-11.3,0.1-22.7,0-34,0
		c-1.5,0-3-0.3-4,1.3C153.5,221.5,146.4,232.1,138.9,243.5z M211.1,236.8c1.1,0.8,1.2,1.8,1.1,2.8c-0.2,5.9,4.3,3.5,7.1,4
		c3.4,0.6,3.7-1.5,3.7-4.2c-0.1-8.8-0.1-17.6-0.2-26.4c0-1.1,0.4-2.7-1.2-2.8c-1.7-0.1-1.2,1.6-1.3,2.7c-0.1,0.9,0.2,2.4-1,2.5
		c-1.8,0.2-1.4-1.5-1.5-2.5c-0.7-5.5-4.8-2.3-7.4-2.9c-2.8-0.7-3.2,1.3-3.2,3.6c0,7.7-0.2,15.3,0,23c0,2.3-1.4,6.2,1.2,6.5
		C211.3,243.2,209,238.8,211.1,236.8z M218.9,278.9c2.2,0.6,0.5,4.1,3.1,3.4c1.8-0.5,0.9-2.6,1-4c0.1-3.7,0.1-7.3,0-11
		c0-1.1,0.3-2.4-0.7-3.3c-0.7-0.7-13.5-0.7-14.3-0.1c-1.3,1-1.2,17.6,0.1,18.5C210.8,284.1,217.3,282.1,218.9,278.9z M155.8,177.8
		c3.8,0,7.7,0.1,11.5,0c1.9-0.1,4.8,1.1,5.3-0.9c0.6-2.4-2-3.8-4-5.2c-1.3-0.9-2.8-1.1-4.3-1.2c-5.7,0-11.3,0-17,0
		c-3.5,0-6,1.8-8,4.4c-1.4,1.8-1.3,3,1.4,2.9C145.8,177.7,150.8,177.8,155.8,177.8z M155.8,188.5
		C155.8,188.4,155.8,188.4,155.8,188.5c5.3,0,10.6,0,15.9,0c1,0,2.1-0.2,2.2-1.5c0.1-1,0.1-2.2-0.4-2.8c-0.8-0.9-1.7-0.3-2.4,0.7
		c-0.4,0.6-0.9,0.7-1.7,0.5c-7.5-1.7-15.2,0.4-22.6-1.8c-2.5-0.8-4.2,2-6.2,1.5c-1.4-0.3-2.7-2.8-3.2,0.5c-0.4,2.5,1.4,3,3.5,3
		C145.9,188.4,150.8,188.5,155.8,188.5z M204,188.4C204,188.4,204,188.4,204,188.4c2.5,0,5,0,7.4,0c1.3,0,2.9-0.2,2.8-2.1
		c-0.1-1.9-1.7-1.7-3-1.7c-4.6,0-9.3,0-13.9,0c-1.4,0-3.4-0.3-3.2,1.9c0.1,2.1,2.1,1.8,3.5,1.8C199.7,188.5,201.9,188.4,204,188.4z"
		/>
	<path class="st0" d="M2.5,298.4c-1.5-0.3-2.4-1-2.5-2.6c-0.1-1.6,0.9-2.5,2.4-2.6c1.7-0.1,2.8,0.9,2.7,2.7
		C5,297.5,3.9,298.2,2.5,298.4z"/>
	<path class="st1" d="M330.1,40.7c0,15.3,0,30.6,0,45.9c-2.2,0.3-2.7,2.3-3.7,3.7c-9.2,13.2-21.9,21.7-36.2,28.3
		c0-2.3,0.2-4.7-0.1-7c-0.4-3.8,0.8-5.6,4.9-5.1c2.6,0.3,5.3,0.1,8,0c1.7-0.1,4.5,0.7,4.5-1.7c0-2.2-2.7-1.1-4.2-1.2
		c-3.3-0.2-6.7-0.1-10,0c-2.4,0.1-3.3-1-3.2-3.3c0.1-4.8,0.1-9.7,0-14.5c0-2.4,0.9-3.3,3.3-3.2c4,0.1,8,0,12,0c1,0,2.3,0.1,2.3-1.3
		c0-1.1-1.1-1.6-2.1-1.6c-1.5-0.1-3-0.1-4.5-0.1c-10.9,0-10.9,0-10.9-11.1c0-2,0-4,0-6c0.9-1.5,1.6-3.1-0.2-4.4
		c-1.8-1.3-3.2-0.1-4.4,1c-6.1,5.8-12.2,11.6-18.3,17.5c-2.1-3.9-0.4-8.1-1.1-12.1c-0.2-1.6,1-4.5-1.3-4.6c-2.7-0.1-1.5,2.8-1.6,4.3
		c-0.1,5.1,0,10.2,0,15.4c-0.3,0.1-0.5,0.3-0.8,0.3c-5-0.9-10-0.4-14.9-0.3c-3.6,0.1-4.6-1.2-4.5-4.6c0.2-4.5,0.1-9,0-13.5
		c0-1.2-0.3-2.5-1.9-2.4c-1.3,0.2-1,1.5-1,2.4c0,4.8-0.1,9.7,0,14.5c0.1,2.6-0.9,3.6-3.5,3.5c-4.5-0.1-9-0.2-13.5,0
		c-3,0.1-4.2-0.9-4.1-4c0.2-4.3,0.1-8.7,0-13c0-1.1,0.3-2.7-1.3-2.8c-2.1-0.1-1.6,1.7-1.7,2.9c-0.1,4.2-0.2,8.3,0,12.5
		c0.2,3.1-0.8,4.6-4.2,4.4c-4-0.2-8-0.2-12,0c-3,0.1-4.2-0.9-4.1-4c0.2-4.5,0.1-9,0-13.5c0-1.3,0-3-1.8-2.9
		c-1.6,0.1-1.1,1.8-1.1,2.8c-0.1,4.7-0.1,9.3,0,14c0.1,2.5-0.8,3.6-3.4,3.6c-4.7-0.1-9.3-0.2-14,0c-3,0.1-3.7-1.2-3.6-3.9
		c0.1-4.5,0-9,0-13.5c0-1.1,0.1-2.6-1.7-2.4c-1.3,0.1-1.2,1.4-1.2,2.4c0,4.5-0.1,9,0,13.5c0.1,2.6-0.6,4-3.6,3.9
		c-4.7-0.2-9.3-0.1-14,0c-2.6,0.1-3.5-1-3.5-3.5c0.1-4.5,0.1-9,0-13.5c0-1.5,0.7-3.6-1.9-3.8c-2.4-0.3-3.5-2.4-5.1-3.7
		c-5-3.8-10.5-5-16.2-2.3c-5.3,2.6-9.6,6.4-9.4,13.2c-0.4,1.6,0.3,3,0.8,4.5c-1,0.6-1.1,1.6-1.1,2.6c0,13.9-0.1,27.9,0.1,41.8
		c0.1,3.6,1.6,7.1,5.5,8.7c0.1,8.4,0.2,16.8,0.3,25.2c0,2-0.2,4,1.2,5.7c-6.1,0.4-12.1-0.5-18-2c0-35.5,0-70.9-0.1-106.4
		c0-3.9,0.9-5.7,5.3-5.7C182.9,40.7,256.5,40.7,330.1,40.7z"/>
	<path class="st2" d="M104.2,152.7c5.9,1.4,11.9,2.4,18,2c56.5,0,113,0,169.5,0c2,0,5.2-1.5,4.8,3c-0.1,1.6,1.9,2.5,3.4,1.7
		c2.9-1.6,5.8-3.3,8.4-5.4c1.6-1.3,1.6-3.4-0.3-4.7c-2.6-1.8-5.3-3.4-8-5c-1.4-0.8-3.3-0.1-3.2,1.1c0.4,5.7-3.4,3.9-6.3,4
		c-0.1-5.3-0.1-10.6-0.4-15.9c-0.2-3.2,1.3-3.9,4.2-3.8c3.6,0.2,7.3,0.1,10.9,0c0.9,0,2.3,0.3,2.4-1c0.2-1.6-1.2-1.8-2.4-1.8
		c-3.1-0.1-6.3,0-9.4-0.1c-7.3,0-8-0.9-5.6-8.1c14.3-6.5,27-15.1,36.2-28.3c1-1.4,1.5-3.4,3.7-3.7c0,27.8,0,55.6,0.2,83.4
		c0,5-2.7,5.6-6.7,5.6c-31.1-0.1-62.3,0-93.4,0c-15.8,0-31.6,0-47.4,0c-2.5,0-4.2-0.5-5.6-3c-2.3-4-5.8-6.8-10.6-7.5
		c-6.8-1-13.6-0.9-20.4-0.2c-4.6,0.5-8.9,2.8-11.3,7.3c-1.3,2.4-3.1,3.4-6,3.3c-8.1-0.2-16.3-0.2-24.5-0.2
		C104.2,167.9,104.2,160.3,104.2,152.7z"/>
	<path class="st3" d="M345.2,197.8c-0.2,2.7,1.8,2.2,3.4,2.3c2.3,0.1,4.6,0,7.2,0c-0.5,2.9-2.3,3.7-4.2,4.1c-1.3,0.3-2.6,0.2-4,0.2
		c-88.2,0-176.5,0-264.7,0c-4,0-8.4,0.3-8.7-5.6c1.9-0.4,3.8-1.1,5.8-1.1c59.4,0.1,118.8,0.1,178.2,0.1c-0.4,2,0.5,2.7,2.4,2.7
		c6.1,0,12.2,0,18.3,0c1.8,0,2.8-0.7,2.4-2.7c12.3,0,24.6,0,36.8,0C327.1,197.7,336.1,197.7,345.2,197.8z"/>
	<path class="st4" d="M104.2,152.7c0,7.6,0,15.2,0.1,22.8c-4.5-0.2-4.1-3.5-4.1-6.5c0-37.6,0-75.3,0-112.9c0-5,0.1-10,0-15
		c-0.1-3.2,1.3-4.5,4.5-4.4c7.3,0.1,14.7,0,22,0c65.8,0,131.6,0,197.3,0c2.8,0,6.5-1,6.2,4c-73.6,0-147.2,0-220.7-0.1
		c-4.4,0-5.3,1.8-5.3,5.7C104.2,81.7,104.2,117.2,104.2,152.7z"/>
	<path class="st3" d="M336.2,26.7c-2.3,3.6-5.2,5.1-9.9,5.1c-74.8-0.2-149.6-0.1-224.4,0c-4.2,0-5.7-2.6-7.9-5
		C174.8,26.7,255.5,26.7,336.2,26.7z"/>
	<path class="st5" d="M258.2,197.8c-59.4,0-118.8,0-178.2-0.1c-2.1,0-3.9,0.7-5.8,1.1c0.3-4.5,3.5-5.1,7.1-5.1c16,0,32,0,48,0
		c72.8,0,145.6,0,218.5,0c3.1,0,6.4-0.5,8.1,4c-3.8,0-7.3,0-10.7,0c-9,0-18.1-0.1-27.1-0.1c-12.3,0-24.6,0-36.8,0
		C273.5,197.7,265.8,197.8,258.2,197.8z"/>
	<path class="st3" d="M151.1,214.7c-7.8,13.3-17,25.7-25.3,38.7c-2.1,3.2-4.3,6.3-6.5,9.4c-3.8,1.7-7.6,3.7-11.6,5
		c-3.7,1.3-7.5,3.5-11.6,0.9c11.8-18.1,23.5-36.3,36.1-54C138.5,214.7,144.8,214.7,151.1,214.7z"/>
	<path class="st3" d="M316.9,271.8c-12.9-18.9-25.9-37.6-37.8-57.1c4.1-0.1,8.2-0.1,12.3-0.2c1.2,1.5,2.4,3.1,3.7,4.6
		c0.6,0.8,1.3,1.8,2.4,1.2c1.1-0.6,0.5-1.7,0-2.6c-0.6-1-1-2-1.5-3.1c0.7,0,1.4,0,2.1,0c9.5,13.4,18.6,27,27.2,40.9
		c-1.1,0.8-1.2,2-1.1,3.1C324.6,264.7,321.7,268.8,316.9,271.8z"/>
	<path class="st3" d="M89.5,30.4c4.2,2.5,5.6,5.9,5.6,11.1c-0.2,44.1-0.1,88.2,0,132.4c0,4.4-3.1,5.8-5.7,8
		c-0.1-2.2-0.2-4.3-0.2-6.5c0-46,0-92,0-138.1C89.2,35,89.4,32.7,89.5,30.4z"/>
	<path class="st5" d="M336.2,26.7c-80.7,0-161.4,0-242.1,0c-1.1-0.9-3.2-1.9-0.1-2.8c1.2-0.4,2.6-0.1,4-0.1c78.1,0,156.2,0,234.4,0
		c1.3,0,2.7-0.2,4,0.1C339.3,24.7,337.3,25.7,336.2,26.7z"/>
	<path class="st3" d="M332.9,182.7c-0.5,1.7-1.8,0.4-2.6,0.7c-1,0.3-2.4-0.3-3,1.6c3.2,2.2,7.5-0.7,10.6,2.1
		c-1.7,2.2-4.1,1.4-6.1,1.4c-35.3,0.1-70.5-0.1-105.8,0.2c-4.6,0-6.8-1.3-6.9-5.8C257,182.8,295,182.8,332.9,182.7z"/>
	<path class="st3" d="M336.9,34.3c1.7-1.7,3.1-5.1,5.4-4.3c2,0.7,0.8,4.2,0.8,6.4c0.1,46.7,0,93.3,0,140c0,2,0,3.9,0,6.3
		c-2.9-0.5-4-2.3-5.3-4c0.1-19.1,0.2-38.1,0.3-57.2c2.4,0.5,2.7-1,2.6-2.8c-0.1-1.7,0.5-3.8-2.5-3.6c-0.1-0.9-0.1-1.7-0.2-2.6
		c2,0.4,2.6-0.7,2.6-2.5c0-4.8,0-9.6,0-14.3c0-1.6-0.4-3-2.6-2.7c-0.1-17.3-0.1-34.6-0.2-51.9C338.2,38.7,338.3,36.4,336.9,34.3z"/>
	<path class="st6" d="M211.1,236.8c-2.2,2,0.1,6.4-2.7,6.1c-2.6-0.3-1.2-4.2-1.2-6.5c-0.1-7.6,0.1-15.3,0-23c0-2.3,0.4-4.3,3.2-3.6
		c2.5,0.6,6.7-2.6,7.4,2.9c0.1,1-0.3,2.7,1.5,2.5c1.2-0.1,0.9-1.6,1-2.5c0.1-1.1-0.4-2.8,1.3-2.7c1.6,0.1,1.2,1.7,1.2,2.8
		c0.1,8.8,0.1,17.6,0.2,26.4c0,2.7-0.3,4.8-3.7,4.2c-2.8-0.5-7.3,2-7.1-4C212.3,238.6,212.3,237.7,211.1,236.8z"/>
	<path class="st3" d="M295.7,250.6c1.1,1.3,2.8,2.8-0.7,3c-0.5,0-1,0-1.5,0c-50.9,0-101.8,0-152.7,0c-0.5,0-1-0.1-1.5-0.2
		c0.7-0.9,1.4-1.9,2-2.8C192.8,250.6,244.2,250.6,295.7,250.6z"/>
	<path class="st5" d="M338.3,112.5c0.1,0.9,0.1,1.7,0.2,2.6c-0.1,2.1-0.1,4.3-0.2,6.4c-0.1,19.1-0.2,38.1-0.3,57.2
		c-2-1-2.7-2.4-2.7-4.7c0.1-45.4,0.1-90.7,0-136.1c0-1.6,0-3,1.7-3.7c1.4,2.1,1.2,4.4,1.2,6.7c0,17.3,0.1,34.6,0.2,51.9
		C338.3,99.5,338.3,106,338.3,112.5z"/>
	<path class="st5" d="M295.7,250.6c-51.5,0-102.9,0-154.4,0c0-0.6,0.1-1.1,0.1-1.7c1.7-0.1,3.3-0.3,5-0.3c47.9,0,95.9,0,143.8,0
		C292.1,248.8,294.7,247.6,295.7,250.6z"/>
	<path class="st5" d="M89.5,30.4c-0.1,2.3-0.2,4.6-0.2,7c0,46,0,92,0,138.1c0,2.2,0.1,4.3,0.2,6.5c-0.7,0.8-1.7,1.5-2.1-0.1
		c-0.4-1.2-0.2-2.6-0.2-4c0-48.1,0-96.1,0-144.2c0-1.3-0.3-2.9,0.3-3.9C88.1,28.3,88.9,29.8,89.5,30.4z"/>
	<path class="st6" d="M316.9,271.8c4.8-3,7.7-7.1,7.2-13.1c-0.1-1.2-0.1-2.3,1.1-3.1c6,8.7,12,17.3,18.7,27c-7.1,0-13,0.1-18.8,0
		c-2.2,0-2.7-2.2-3.7-3.6C319.8,276.7,318.4,274.2,316.9,271.8z M326.9,262.9c-1.9,0.2-1.9,1.3-1.2,2.4c2.5,3.9,5.1,7.8,7.7,11.7
		c0.5,0.7,1.1,1.6,2,1.1c1.1-0.6,0.9-1.8,0.3-2.6c-2.5-3.9-5.1-7.8-7.8-11.6C327.7,263.4,327.3,263.1,326.9,262.9z"/>
	<path class="st6" d="M218.9,278.9c-1.6,3.2-8.1,5.3-10.8,3.5c-1.3-0.9-1.4-17.5-0.1-18.5c0.8-0.6,13.6-0.5,14.3,0.1
		c1,0.9,0.7,2.2,0.7,3.3c0,3.7,0.1,7.3,0,11c0,1.4,0.9,3.5-1,4C219.4,282.9,221.1,279.4,218.9,278.9z"/>
	<path class="st6" d="M96.1,268.7c4.1,2.6,7.9,0.4,11.6-0.9c4-1.3,7.7-3.3,11.6-5c-4,6.1-7.9,12.3-11.9,18.4c-0.7,1-1.5,2.1-2.7,1.1
		c-1-0.9,0.2-1.8,0.6-2.6c0.9-1.7,2.5-3.1,2.7-5.1c-1.6-1.2-2.5-0.1-2.9,0.9c-3.3,8.5-10.2,7.9-18.3,6.9
		C90.1,277.5,93.1,273.1,96.1,268.7z"/>
	<path class="st3" d="M132,182.7c1,4.4-0.5,6.1-5.3,5.9c-9.7-0.4-19.5-0.1-29.2-0.1c-1.6,0-3.9,0.7-4.6-0.9
		c-0.9-1.8,1.6-2.5,2.5-3.7c0.7-0.9,1.7-1.5,2.6-2.3c1.4,1.7,3.4,1.2,5.1,1.2C112.7,182.8,122.4,182.7,132,182.7z"/>
	<path class="st5" d="M332.9,182.7c-37.9,0-75.9,0.1-113.8,0.1c-0.6-0.6-1.4-1.5-0.3-1.9c1.2-0.4,2.6-0.2,4-0.2
		c35.5,0,70.9-0.1,106.4-0.2C331,180.5,332.5,180.5,332.9,182.7z"/>
	<path class="st3" d="M155.8,177.8c-5,0-10,0-15,0c-2.7,0-2.8-1.1-1.4-2.9c2-2.6,4.5-4.4,8-4.4c5.7,0,11.3,0,17,0
		c1.5,0,3,0.3,4.3,1.2c1.9,1.3,4.6,2.8,4,5.2c-0.6,2.1-3.5,0.9-5.3,0.9C163.5,177.9,159.6,177.8,155.8,177.8z"/>
	<path class="st7" d="M155.8,188.5c-5,0-9.9,0-14.9,0c-2.1,0-3.9-0.5-3.5-3c0.6-3.3,1.8-0.8,3.2-0.5c2,0.5,3.7-2.2,6.2-1.5
		c7.4,2.2,15.2,0.1,22.6,1.8c0.8,0.2,1.3,0.1,1.7-0.5c0.6-1,1.6-1.6,2.4-0.7c0.5,0.6,0.4,1.9,0.4,2.8c-0.1,1.3-1.2,1.5-2.2,1.5
		C166.4,188.4,161.1,188.4,155.8,188.5C155.8,188.4,155.8,188.4,155.8,188.5z"/>
	<path class="st3" d="M352.9,289.7c1.1,0.5,2.3,1.1,1.9,2.5c-0.4,1.2-1.7,0.8-2.6,0.8c-11,0-22,0-33,0c-1,0-2.6,0.5-2.8-1.2
		c-0.1-1.1,0.9-1.7,1.8-2.1C329.7,289.6,341.3,289.6,352.9,289.7z"/>
	<path class="st3" d="M112.1,289.6c1,0.4,1.9,1,1.9,2.1c-0.1,1.4-1.4,1.2-2.3,1.2c-11.3,0-22.7,0-34,0c-0.9,0-2.3,0.3-2.2-1.2
		c0-1,0.9-1.7,1.9-2C89,289.6,100.5,289.6,112.1,289.6z"/>
	<path class="st6" d="M229.8,289.7c1,0.3,2,0.9,2,2c0,1.4-1.3,1.2-2.2,1.2c-9.6,0-19.2,0-28.8,0c-0.9,0-2.2,0.2-2.2-1.2
		c0-1.1,0.9-1.7,2-2C210.2,289.7,220,289.7,229.8,289.7z"/>
	<path class="st3" d="M212.4,15.6c-1.1-1.1-2-1.1-2.4,0.6c-0.2,0.9-0.2,2.2-1.5,2.1c-1.7-0.2-1.2-1.7-1.2-2.8c0-2,0.1-3.9,0.2-5.9
		c6.3,2.1,8.2,1.3,8.7-3.8c3.5,0.5,0.3,4.7,3,5.8c2.2-1.4,0.3-3.9,1.9-5.5c3.2,1.5,1.7,4.3,1.8,6.6
		C219.4,13.7,216.3,16.1,212.4,15.6z"/>
	<path class="st6" d="M151.1,214.7c-6.3,0-12.6,0-18.9,0c1.4-4.1,4.3-5.4,8.5-5.1c4.3,0.3,8.6,0.1,13.2,0.1
		C153.5,212.1,152.3,213.4,151.1,214.7z"/>
	<path class="st8" d="M204,188.4c-2.1,0-4.3,0.1-6.4,0c-1.4-0.1-3.3,0.2-3.5-1.8c-0.2-2.3,1.8-1.9,3.2-1.9c4.6-0.1,9.3,0,13.9,0
		c1.3,0,2.9-0.2,3,1.7c0.1,1.8-1.4,2-2.8,2.1C209,188.4,206.5,188.4,204,188.4C204,188.4,204,188.4,204,188.4z"/>
	<path class="st5" d="M132,182.7c-9.7,0-19.3,0-29,0c-1.8,0-3.7,0.6-5.1-1.2c0.5-0.8,1.2-1.1,2.1-1.1c9.7,0.1,19.4,0.1,29.1,0.2
		C130.5,180.7,132.3,180.2,132,182.7z"/>
	<path class="st6" d="M291.4,214.5c-4.1,0.1-8.2,0.1-12.3,0.2c-1.5-0.9-2.9-2.6-2.5-4c0.6-2,2.9-0.9,4.4-0.9
		C285.2,209.7,290,208.4,291.4,214.5z"/>
	<path class="st5" d="M112.1,289.6c-11.6,0-23.1,0-34.7,0C89,286.7,100.5,286.7,112.1,289.6z"/>
	<path class="st5" d="M352.9,289.7c-11.6,0-23.1,0-34.7,0C329.7,286.7,341.3,286.6,352.9,289.7z"/>
	<path class="st3" d="M189.2,182.8c-1,2.2,0.3,5.6-4.2,5.8c-4.6,0.2-6.9-1-5.6-5.9C182.7,182.7,185.9,182.8,189.2,182.8z"/>
	<path class="st5" d="M229.8,289.7c-9.8,0-19.5,0-29.3,0c0.8-1.3,2.2-1.6,3.5-1.6c7.4-0.1,14.9-0.1,22.3,0.1
		C227.5,288.2,229,288.4,229.8,289.7z"/>
	<path class="st6" d="M212.4,15.6c3.9,0.5,6.9-1.9,10.4-3c-0.2,2.2,2,6.1-2.4,5.8C217.9,18.2,213.1,21.8,212.4,15.6z"/>
	<path class="st5" d="M216.2,5.7c-0.5,5.1-2.4,6-8.7,3.8c-0.5-2.7,0.7-4,3.4-4C212.6,5.6,214.4,5.7,216.2,5.7z"/>
	<path class="st6" d="M141.4,249c0,0.6-0.1,1.1-0.1,1.7c-0.7,0.9-1.4,1.9-2,2.8c-2,0-4.1,0-6.2,0C134.1,248.3,137.7,248.5,141.4,249
		z"/>
	<path class="st5" d="M189.2,182.8c-3.3,0-6.5-0.1-9.8-0.1c1.4-2,9.4-3,10.9-1.3C190.4,181.5,189.6,182.3,189.2,182.8z"/>
	<path class="st6" d="M298.1,214.7c-0.7,0-1.4,0-2.1,0c-1.6-1.2-2.6-2.7-3.3-4.9C296.3,209.9,296.8,212.7,298.1,214.7z"/>
	<path class="st9" d="M290.4,149.3c2.9,0,6.7,1.7,6.3-4c-0.1-1.2,1.8-1.9,3.2-1.1c2.7,1.6,5.5,3.2,8,5c1.9,1.3,1.9,3.4,0.3,4.7
		c-2.6,2.1-5.4,3.8-8.4,5.4c-1.5,0.8-3.6-0.1-3.4-1.7c0.4-4.6-2.8-3-4.8-3c-56.5-0.1-113,0-169.5,0c-1.4-1.7-1.2-3.7-1.2-5.7
		c-0.1-8.4-0.2-16.8-0.3-25.2c0-17.8,0-35.5,0-53.2c-1.5,0-3,0-4.5,0c-0.4-1.5-1.1-2.9-0.8-4.5c2.7-1.4,3.7-4.2,5.1-6.5
		c0.9-1.5,2.2-2.6,3.6-1.7c3.5,2.2,5.1,6,6.8,9.5c0.5,1-0.1,2.3-1.3,2.9c-0.3,0.1-0.7,0.3-0.9,0.2c-3.1-0.9-2.6,1.3-2.6,3.1
		c0,2,0.1,4,0.1,6c0,1,0,2.1,0,3.1c0,7,0,13.9,0,20.9c0,1-0.1,2.1-0.1,3.1c0,7.7,0.1,15.4,0.1,23c0,4.8,0,9.6,0,15.6
		c5.3-6.1,10.8-10.1,14.7-15.6c1.1-1,2.1-1.9,3.2-2.9c0.6-0.7,1.3-1.4,1.9-2.1c0.9-0.4,1.6-1,1.9-2c2.3-1.1,3.8-3.2,5.5-4.9
		c5.2-5.1,5.1-5.1,10.1-0.2c1.4,1.4,2.9,2.7,4.3,4.1c1.1,1.5,2.2,2.9,4.1,0.9c5.8-4.9,10.9-10.4,16.1-15.9c1.2-0.6,1.9-1.6,2.1-2.9
		c1.7-0.4,2.7-1.4,3-3.1c1.3-0.2,2.3-0.8,2.9-2c2.3-2.2,4.6-4.3,6.8-6.5c2-2.1,3.9-2.1,6,0c2.3,2.3,4.8,4.6,7.2,6.8
		c0.2,1.6,1.5,1.7,2.7,1.8c0.3,1.8,1.3,2.8,3.1,3c0.1,0.7,0.3,1.5,1.2,1.8c4.3,7.8,5.9,8,11.6,2c0.5-0.6,0.9-1.3,1.4-2
		c0.8-0.3,1.1-1,1.3-1.8c1.8-0.3,2.8-1.3,3.1-3.1c1.6-0.1,3.1-0.5,3.8-2.1c5.5-5.2,11.2-10.2,16.1-16c1.2-0.5,1.8-1.4,2.1-2.6
		c0.3-0.1,0.6-0.2,0.8-0.3c1.8-0.3,3-1.6,3.9-3c6.1-5.8,12.2-11.7,18.3-17.5c1.2-1.1,2.6-2.3,4.4-1c1.8,1.3,1.1,2.9,0.2,4.4
		c-1.3,0.8-2.3,1.7-2.9,3.1c-4.7,4.3-9.4,8.6-14.1,12.9c-1.5,0.9-2.7,2-3.1,3.8c-2.1,0.6-3.5,2-4.1,4.1c-1.2,0.2-2.2,0.8-2.7,2
		c-5.2,4.5-10.5,9-15.1,14.1c-1.3,0.7-2.2,1.8-2.9,3.1c-0.7,0.6-1.4,1.2-2.2,1.9c-0.9,1-1.9,2.1-2.8,3.1c-2.5,2.1-5.2,4-7.5,6.3
		c-2.6,2.6-4.7,2.3-7.1-0.2c-2-2.1-4.3-4-6.5-6c-0.6-1.4-1.7-2.3-2.9-3.1c-0.7-0.6-1.4-1.3-2.1-1.9c-0.4-1-1.1-1.7-2.1-2.1
		c-5.8-7.7-6-7.7-11.8-1c-1.3,0.5-1.9,1.5-2.1,2.9c-1.3,0.7-2.9,1.1-3,3c-1.3,0.2-2.4,0.8-2.9,2.1c-5,5-10,10-15.1,14.9
		c-1.6,0.9-2.7,2.1-3.1,3.8c-0.6,0.4-1.3,0.8-1.9,1.2c-1,0-2,0-2.9,0c-0.6-0.4-1.2-0.8-1.9-1.2c-0.5-1.7-1.6-2.9-3.1-3.8
		c-6.1-6.3-4.3-6.1-10.4-0.1c-0.3,0.3-0.6,0.8-0.8,1.2c-1.2,0.5-1.7,1.5-2,2.7c-1.4,0.2-2.3,1-2.8,2.2c-0.9,0.4-1.6,1.1-2,2.1
		c-5.6,4.2-9.9,9.6-15.9,15.2c6.2,0.6,11.1,1.2,15.9-0.3c0.7,0,1.3,0,2,0c6.9,1.6,13.8,0.6,20.8,0.6c1.2,0,2.3,0,3.5,0
		c6.8,0,13.7-0.1,20.5-0.1c0.8,0,1.7,0,2.5,0c6.8,0.6,13.7,0.3,20.5,0.1c1.2,0,2.3,0,3.5-0.1c6.8,0,13.6,0,20.5-0.1
		c0.9,0,1.7-0.1,2.6-0.1c6.8,0.7,13.6,0.3,20.4,0.2c1.2,0,2.3,0,3.5,0c6.8,0,13.6,0,20.5,0C288,149.3,289.2,149.3,290.4,149.3z"/>
	<path class="st7" d="M242.5,149.1c-0.9,0-1.7,0.1-2.6,0.1c0-3.5,0.1-7,0.1-10.5c0.3-11.2,0.7-8.9-8.1-9c-13-0.1-13,0-12.6,14
		c0.1,1.9,0.1,3.7,0.2,5.6c-1.2,0-2.3,0-3.5,0.1c0.1-5.5,0.1-10.9,0.2-16.4c0.1-2.3-0.9-3.3-3.2-3.2c-4.8,0.1-9.6,0.1-14.4,0
		c-2.7-0.1-3.4,1.2-3.4,3.6c0.1,5.3,0.2,10.6,0.2,15.9c-0.8,0-1.7,0-2.5,0c0.1-5.3,0-10.6,0.2-15.9c0.1-2.8-1-3.8-3.8-3.7
		c-5.1,0.1-10.2-0.1-15.4-0.1c0.4-1.8,1.6-3,3.1-3.8c4.5,2.2,9.3,0.6,14,1c1.1,0.1,2-0.7,1.9-1.8c-0.3-4.7,1.1-9.5-0.8-14.1
		c0.5-1.3,1.5-2,2.9-2.1c0.1,0.8,0.1,1.7,0.2,2.5c0.5,5.1-2.3,11.8,1.2,14.7c3.6,3,10.2,0.5,15.5,0.9c3.2,0.2,4.5-0.9,4.3-4.2
		c-0.2-5,0-10,0-14.9c1.2,0.8,2.3,1.7,2.9,3.1c0,4,0.1,7.9,0,11.9c-0.1,2.9,0.7,4.3,3.9,4.1c4.5-0.2,8.9-0.2,13.4,0
		c2.8,0.1,3.9-0.9,3.8-3.7c-0.2-4.1,0-8.3,0-12.4c0.9-1,1.9-2.1,2.8-3.1c0,1.3,0,2.7,0.1,4c0.4,4.9-2.2,11.3,1.2,14.3
		c3.3,2.9,9.6,0.5,14.5,0.9c3.1,0.2,4.6-0.7,4.4-4.1c-0.2-4.3-0.2-8.7,0-13c0.2-3.1-1.2-4-4.1-3.9c-4.7,0.2-9.3,0-14,0
		c0.7-1.3,1.6-2.3,2.9-3.1c4.6,2.1,9.8,2,13.8,0.4c3.2-1.3,0.8-6.6,1.3-10.1c0.2-1.5,0-3,0-4.4c0.6-1.1,1.5-1.7,2.7-2
		c0.1,4.5,0.3,9,0.2,13.5c0,2.4,0.5,3.8,3.3,3.7c4.8-0.1,9.7-0.1,14.5,0c2.3,0,3.3-0.9,3.2-3.2c-0.1-4.8-0.1-9.7,0-14.5
		c0.1-2.8-1.3-3.3-3.7-3.3c-4.5,0-9-0.1-13.5-0.2c0.4-1.8,1.6-2.9,3.1-3.8c3.9,2.2,8.1,0.8,12.1,0.9c2.1,0.1,1.9-1.9,1.9-3.4
		c0-3.5,0-7,0-10.5c0.6-1.4,1.7-2.4,2.9-3.1c0,2,0,4,0,6c0,11.1,0,11.1,10.9,11.1c1.5,0,3,0,4.5,0.1c1.1,0.1,2.1,0.5,2.1,1.6
		c0,1.4-1.3,1.3-2.3,1.3c-4,0-8,0.1-12,0c-2.3-0.1-3.3,0.9-3.3,3.2c0.1,4.8,0.1,9.7,0,14.5c0,2.3,0.8,3.3,3.2,3.3
		c3.3-0.1,6.7-0.1,10,0c1.5,0.1,4.1-1,4.2,1.2c0,2.4-2.8,1.6-4.5,1.7c-2.7,0.1-5.4,0.3-8,0c-4.1-0.5-5.3,1.3-4.9,5.1
		c0.2,2.3,0.1,4.7,0.1,7c-2.4,7.1-1.7,8,5.6,8.1c3.1,0,6.3,0,9.4,0.1c1.2,0,2.5,0.3,2.4,1.8c-0.1,1.3-1.5,1-2.4,1
		c-3.6,0-7.3,0.1-10.9,0c-2.8-0.1-4.3,0.6-4.2,3.8c0.3,5.3,0.3,10.6,0.4,15.9c-1.2,0-2.4-0.1-3.5-0.1c0.1-5.5,0.1-10.9,0.3-16.4
		c0.1-2.4-1-3.2-3.3-3.1c-4.8,0.1-9.6,0.1-14.5,0c-2.3,0-3.3,0.8-3.3,3.2c0.2,5.5,0.2,10.9,0.3,16.4c-1.2,0-2.3,0-3.5,0
		c0.1-6.2,0.2-12.4,0.2-18.6c-4.2-2.2-8.8-0.7-13.1-0.9c-6.9-0.3-6.9-0.1-6.9,6.9C242.4,140.8,241.8,144.9,242.5,149.1z
		 M276.8,126.7c10.4,0,10.4,0,10.3-8.5c0-11.6,0-11.6-11.8-11.6c-9.1,0-9.1,0-9.1,9.3C266.2,126.7,266.2,126.7,276.8,126.7z"/>
	<path class="st7" d="M218.8,100.9c-1.2-0.1-2.5-0.2-2.7-1.8c0-4.3,0-8.6,0.1-13c0-2.2-0.6-3.5-3-3.4c-5,0.1-10,0-14.9,0
		c-1.4,0-3,0.1-2.9,1.9c0.2,4.7-1.2,9.5,0.9,14.1c-0.6,1.2-1.6,1.9-2.9,2c-0.1-4.8-0.2-9.6-0.2-14.5c0-2.4-0.5-3.8-3.3-3.7
		c-4.8,0.1-9.7,0.1-14.5,0c-2.4,0-3.3,0.9-3.2,3.2c0.1,4.8,0.1,9.7,0,14.5c-0.1,2.8,1.4,3.3,3.7,3.3c4.8,0,9.6,0.1,14.5,0.2
		c-0.2,1.3-0.8,2.3-2.1,2.9c-4.1-2.1-8.4-0.5-12.6-1c-2.6-0.3-3.6,0.9-3.5,3.5c0.1,4.5,0,8.9,0,13.4c-1.9,2.1-3,0.6-4.1-0.9
		c2.3-4,0.5-8.4,1-12.5c0.3-2.5-0.8-3.6-3.4-3.5c-4.5,0.1-8.9,0.1-13.4,0c-2.9-0.1-4.2,1.1-4.2,4.1c0.1,4.3,0,8.6,0,12.9
		c-0.3,1-1,1.6-1.9,2c0-1.3-0.1-2.6-0.1-4c-0.3-3.4-1.3-6.8-0.9-10.3c0.4-3.1-1.2-4-4.1-3.9c-4.9,0.2-9.9,0.1-14.8,0.1
		c0-1,0.1-2.1,0.1-3.1c5.1,0,10.3-0.1,15.4,0.1c3.1,0.1,4.6-0.6,4.4-4.1c-0.2-4.3-0.2-8.6,0-12.9c0.1-3-0.9-4.2-4-4.1
		c-5.3,0.2-10.6,0.1-15.9,0.1c0-1,0-2.1,0-3.1c5,0,10-0.1,14.9,0.1c3.1,0.1,4-1.1,4-4.1c-0.1-5.6-0.6-11.3,1-16.8
		c2.6,0.3,1.9,2.3,1.9,3.8c0.1,4.5,0.1,9,0,13.5c-0.1,2.5,0.9,3.6,3.5,3.5c4.7-0.1,9.3-0.2,14,0c3,0.1,3.7-1.3,3.6-3.9
		c-0.1-4.5,0-9,0-13.5c0-1-0.1-2.2,1.2-2.4c1.7-0.2,1.7,1.3,1.7,2.4c0,4.5,0.1,9,0,13.5c-0.1,2.7,0.7,4,3.6,3.9
		c4.7-0.2,9.3-0.1,14,0c2.7,0.1,3.5-1.1,3.4-3.6c-0.1-4.7-0.1-9.3,0-14c0-1-0.5-2.7,1.1-2.8c1.8-0.1,1.8,1.6,1.8,2.9
		c0,4.5,0.2,9,0,13.5c-0.1,3.1,1,4.1,4.1,4c4-0.2,8-0.2,12,0c3.4,0.2,4.3-1.2,4.2-4.4c-0.2-4.1-0.1-8.3,0-12.5c0-1.2-0.4-3,1.7-2.9
		c1.6,0.1,1.3,1.7,1.3,2.8c0,4.3,0.2,8.7,0,13c-0.1,3.1,1.1,4.1,4.1,4c4.5-0.2,9-0.1,13.5,0c2.6,0.1,3.6-0.9,3.5-3.5
		c-0.1-4.8-0.1-9.6,0-14.5c0-0.9-0.3-2.3,1-2.4c1.6-0.2,1.8,1.2,1.9,2.4c0.1,4.5,0.2,9,0,13.5c-0.2,3.4,0.9,4.7,4.5,4.6
		c5-0.1,10-0.6,14.9,0.3c-0.4,1.1-1,2.1-2.1,2.6c-4.6,0-9.2,0-13.8,0c-1.3,0-3.1-0.2-3.1,1.5c0,4.8-1.4,9.8,0.8,14.4
		c-0.7,1.7-2.2,2.1-3.8,2.1c-0.1-0.8-0.2-1.7-0.3-2.5c-0.7-5.1,2.5-12.2-1.6-14.9c-3.7-2.5-10.3-0.6-15.6-0.8
		c-2.8-0.1-3.8,0.9-3.8,3.7C219.2,91.2,218.9,96,218.8,100.9z M169.1,93.3c0-10.6,0-10.6-10.3-10.6c-10.7,0-10.7,0-10.7,10.7
		c0.1,11.7-1.4,10.2,10.4,10.2C169.1,103.7,169.1,103.6,169.1,93.3z"/>
	<path class="st10" d="M146.3,58.9c-1.7,5.5-1.1,11.2-1,16.8c0,3-0.9,4.2-4,4.1c-5-0.2-10-0.1-14.9-0.1c0-2-0.1-4-0.1-6
		c0-1.7-0.5-3.9,2.6-3.1c0.3,0.1,0.7-0.1,0.9-0.2c1.2-0.6,1.8-1.9,1.3-2.9c-1.7-3.6-3.3-7.3-6.8-9.5c-1.4-0.9-2.7,0.2-3.6,1.7
		c-1.5,2.4-2.4,5.2-5.1,6.5c-0.2-6.8,4.1-10.6,9.4-13.2c5.7-2.8,11.3-1.5,16.2,2.3C142.8,56.5,143.9,58.6,146.3,58.9z"/>
	<path class="st10" d="M116.3,70.6c1.5,0,3,0,4.5,0c0,17.7,0,35.4,0,53.2c-3.9-1.6-5.4-5.1-5.5-8.7c-0.2-13.9-0.1-27.9-0.1-41.8
		C115.2,72.2,115.3,71.2,116.3,70.6z"/>
	<path class="st7" d="M267.2,76.8c-1,1.5-2.1,2.7-3.9,3c0-5.1-0.2-10.2,0-15.4c0-1.6-1.1-4.5,1.6-4.3c2.4,0.1,1.1,3,1.3,4.6
		C266.7,68.7,265,72.9,267.2,76.8z"/>
	<path class="st0" d="M258.2,197.8c7.7,0,15.4,0,23.1,0c0.5,2-0.5,2.7-2.4,2.7c-6.1,0-12.2,0-18.3,0
		C258.7,200.5,257.7,199.7,258.2,197.8z"/>
	<path class="st0" d="M338.3,112.5c0-6.5,0-13.1,0.1-19.6c2.1-0.3,2.5,1.1,2.6,2.7c0,4.8,0,9.6,0,14.3
		C340.9,111.8,340.3,112.9,338.3,112.5z"/>
	<path class="st0" d="M338.2,121.6c0.1-2.1,0.1-4.3,0.2-6.4c2.9-0.2,2.4,1.9,2.5,3.6C341,120.6,340.6,122.1,338.2,121.6z"/>
	<path class="st0" d="M326.9,262.9c0.3,0.3,0.8,0.5,1.1,0.9c2.6,3.9,5.2,7.7,7.8,11.6c0.6,0.9,0.8,2-0.3,2.6c-0.9,0.5-1.5-0.4-2-1.1
		c-2.6-3.9-5.2-7.7-7.7-11.7C325,264.1,325,263,326.9,262.9z"/>
	<path class="st1" d="M190.3,103.9c-4.8-0.1-9.6-0.2-14.5-0.2c-2.4,0-3.8-0.5-3.7-3.3c0.1-4.8,0.1-9.7,0-14.5c0-2.3,0.9-3.3,3.2-3.2
		c4.8,0.1,9.7,0.1,14.5,0c2.8-0.1,3.3,1.3,3.3,3.7c0,4.8,0.1,9.6,0.2,14.5C193,102.5,191.9,103.5,190.3,103.9z"/>
	<path class="st1" d="M218.8,100.9c0.1-4.8,0.3-9.6,0.3-14.5c-0.1-2.8,1-3.9,3.8-3.7c5.3,0.2,11.9-1.7,15.6,0.8
		c4.1,2.8,1,9.8,1.6,14.9c0.1,0.8,0.2,1.7,0.3,2.5c-0.3,1.8-1.3,2.8-3.1,3.1c-5.1-0.4-10.2-0.4-15.4,0
		C220.2,103.6,219.1,102.6,218.8,100.9z"/>
	<path class="st1" d="M270,82.4c4.5,0.1,9,0.2,13.5,0.2c2.4,0,3.8,0.5,3.7,3.3c-0.1,4.8-0.1,9.7,0,14.5c0,2.4-0.9,3.3-3.2,3.2
		c-4.8-0.1-9.7-0.1-14.5,0c-2.8,0.1-3.3-1.3-3.3-3.7c0-4.5-0.2-9-0.2-13.5C266.5,84.4,267.9,83.1,270,82.4z"/>
	<path class="st1" d="M216.2,107.6c0,5-0.2,10,0,14.9c0.1,3.3-1.1,4.4-4.3,4.2c-5.3-0.4-11.9,2.1-15.5-0.9
		c-3.5-2.9-0.7-9.7-1.2-14.7c-0.1-0.8-0.1-1.7-0.2-2.5c0.1-1.9,1.7-2.3,3-3c5.3,0,10.7,0.1,16,0.1
		C214.8,106.3,215.5,107,216.2,107.6z"/>
	<path class="st2" d="M266.4,149.3c-0.1-5.5-0.1-11-0.3-16.4c-0.1-2.4,1-3.2,3.3-3.2c4.8,0.1,9.6,0.1,14.5,0c2.3,0,3.4,0.7,3.3,3.1
		c-0.2,5.5-0.2,10.9-0.3,16.4C280,149.2,273.2,149.2,266.4,149.3z"/>
	<path class="st1" d="M195.4,149.2c-0.1-5.3-0.1-10.6-0.2-15.9c-0.1-2.4,0.6-3.7,3.4-3.6c4.8,0.1,9.6,0.1,14.4,0
		c2.3,0,3.3,0.9,3.2,3.2c-0.1,5.5-0.2,10.9-0.2,16.4C209.1,149.5,202.2,149.8,195.4,149.2z"/>
	<path class="st10" d="M126.3,82.7c5.3,0,10.6,0.1,15.9-0.1c3.1-0.1,4.1,1.1,4,4.1c-0.2,4.3-0.2,8.6,0,12.9c0.2,3.5-1.4,4.2-4.4,4.1
		c-5.1-0.2-10.3-0.1-15.4-0.1C126.3,96.6,126.3,89.7,126.3,82.7z"/>
	<path class="st1" d="M174,129.5c5.1,0.1,10.2,0.2,15.4,0.1c2.8-0.1,3.9,0.9,3.8,3.7c-0.2,5.3-0.2,10.6-0.2,15.9
		c-6.8,0-13.7,0.1-20.5,0.1c-0.1-6.2-0.2-12.4-0.3-18.6C172.8,130.3,173.4,129.9,174,129.5z"/>
	<path class="st1" d="M245.2,105.7c4.7,0,9.3,0.2,14,0c3-0.1,4.3,0.8,4.1,3.9c-0.2,4.3-0.2,8.7,0,13c0.2,3.4-1.3,4.4-4.4,4.1
		c-4.9-0.4-11.2,2-14.5-0.9c-3.4-3-0.8-9.4-1.2-14.3c-0.1-1.3-0.1-2.7-0.1-4C243.7,106.9,244.4,106.3,245.2,105.7z"/>
	<path class="st1" d="M148.1,131.6c0.6-1.2,1.5-2,2.8-2.2c5.5,0.5,10.9,0.4,16.4,0.1c0.6,0.4,1.2,0.8,1.9,1.2
		c-0.1,6.2-0.2,12.4-0.3,18.7c-6.9,0-13.9,1-20.8-0.6C148.1,143,148.1,137.3,148.1,131.6z"/>
	<path class="st10" d="M126.3,106.7c4.9,0,9.9,0.1,14.8-0.1c2.9-0.1,4.5,0.7,4.1,3.9c-0.4,3.5,0.6,6.8,0.9,10.3
		c-2.9,0.8-3.5,4.1-7.4,5.6c2.8,0.2,4.2,0.3,5.6,0.4c-1.1,1-2.1,1.9-3.2,2.9c-4.9,0-9.8,0.1-14.7,0.1
		C126.3,122.1,126.3,114.4,126.3,106.7z"/>
	<path class="st2" d="M263.1,130.7c-0.1,6.2-0.2,12.4-0.2,18.6c-6.8,0.2-13.6,0.5-20.4-0.2c-0.7-4.2-0.1-8.3,0.7-12.4
		C250.2,136,256.5,132.8,263.1,130.7z"/>
	<path class="st1" d="M148.1,122.7c0-4.3,0.1-8.6,0-12.9c-0.1-3,1.2-4.2,4.2-4.1c4.5,0.1,8.9,0.1,13.4,0c2.6-0.1,3.7,1,3.4,3.5
		c-0.5,4.2,1.2,8.5-1,12.5c-1.4-1.4-2.9-2.7-4.3-4.1c-5-4.9-4.9-4.9-10.1,0.2C151.9,119.5,150.5,121.6,148.1,122.7z"/>
	<path class="st1" d="M196.2,98.8c-2.1-4.6-0.6-9.4-0.9-14.1c-0.1-1.8,1.5-1.9,2.9-1.9c5,0,10,0.1,14.9,0c2.5,0,3.1,1.2,3,3.4
		c-0.1,4.3,0,8.6-0.1,13c-2.4-2.3-4.8-4.5-7.2-6.8c-2.1-2-3.9-2-6,0C200.8,94.5,198.5,96.6,196.2,98.8z"/>
	<path class="st1" d="M240.1,110.6c0,4.1-0.1,8.3,0,12.4c0.1,2.8-1,3.8-3.8,3.7c-4.5-0.2-8.9-0.2-13.4,0c-3.2,0.2-4-1.2-3.9-4.1
		c0.2-4,0-7.9,0-11.9c2.2,2,4.4,3.8,6.5,6c2.4,2.5,4.5,2.8,7.1,0.2C235,114.6,237.6,112.7,240.1,110.6z"/>
	<path class="st2" d="M240,138.7c0,3.5-0.1,7-0.1,10.5c-6.8,0-13.6,0-20.5,0c-0.1-1.9-0.1-3.7-0.2-5.6
		C226.2,142,233.1,140.4,240,138.7z"/>
	<path class="st1" d="M244.2,98.7c-2.3-4.7-0.8-9.6-0.8-14.4c0-1.8,1.8-1.5,3.1-1.5c4.6,0,9.2,0,13.8,0
		C255.4,88.5,249.7,93.5,244.2,98.7z"/>
	<path class="st1" d="M172.1,122.6c0-4.5,0.1-8.9,0-13.4c-0.1-2.6,0.9-3.7,3.5-3.5c4.2,0.5,8.6-1.1,12.6,1
		C183.1,112.3,177.9,117.8,172.1,122.6z"/>
	<path class="st1" d="M192.2,110.7c1.9,4.6,0.6,9.4,0.8,14.1c0.1,1.1-0.8,1.9-1.9,1.8c-4.7-0.3-9.5,1.2-14-1
		C182.1,120.7,187.2,115.7,192.2,110.7z"/>
	<path class="st1" d="M146.1,148.7c-4.9,1.4-9.7,0.9-15.9,0.3c6-5.6,10.4-11,15.9-15.2C146.1,138.7,146.1,143.7,146.1,148.7z"/>
	<path class="st1" d="M263.1,88.5c0,1.5,0.2,3,0,4.4c-0.5,3.5,2,8.7-1.3,10.1c-4,1.7-9.3,1.7-13.8-0.4
		C252.7,97.5,257.9,93,263.1,88.5z"/>
	<path class="st1" d="M126.4,129.8c4.9,0,9.8-0.1,14.7-0.1c-3.9,5.5-9.4,9.6-14.7,15.6C126.4,139.3,126.4,134.5,126.4,129.8z"/>
	<path class="st1" d="M287.1,65.8c0,3.5,0,7,0,10.5c0,1.5,0.2,3.4-1.9,3.4c-4-0.2-8.2,1.3-12.1-0.9C277.8,74.3,282.5,70,287.1,65.8z
		"/>
	<path class="st7" d="M168.9,149.3c0.1-6.2,0.2-12.4,0.3-18.7c1,0,2,0,2.9,0c0.1,6.2,0.2,12.4,0.3,18.6
		C171.2,149.3,170.1,149.3,168.9,149.3z"/>
	<path class="st1" d="M236.1,105.7c-0.5,0.7-0.8,1.4-1.4,2c-5.7,6.1-7.3,5.8-11.6-2C227.4,105.7,231.8,105.7,236.1,105.7z"/>
	<path class="st7" d="M167.3,129.5c-5.5,0.3-10.9,0.4-16.4-0.1c0.3-1.2,0.9-2.2,2-2.7c3.8-0.4,7.7,1.2,11.3-1.1
		C165.7,126.5,166.9,127.7,167.3,129.5z"/>
	<path class="st1" d="M200.2,102.7c5.8-6.8,6-6.8,11.8,1C208.1,103.1,204,104.7,200.2,102.7z"/>
	<path class="st1" d="M164.2,125.6c-3.6,2.2-7.5,0.6-11.3,1.1c0.3-0.4,0.5-0.9,0.8-1.2C159.9,119.5,158.1,119.3,164.2,125.6z"/>
	<path class="st7" d="M146.1,148.7c0-5,0-10,0-14.9c0.3-1,1-1.7,2-2.1c0,5.7,0,11.4,0,17C147.5,148.7,146.8,148.7,146.1,148.7z"/>
	<path class="st7" d="M200.2,102.7c3.8,2,7.9,0.4,11.8,1c1,0.3,1.7,1,2.1,2.1c-5.3,0-10.7-0.1-16-0.1
		C198.2,104.2,198.9,103.2,200.2,102.7z"/>
	<path class="st7" d="M236.1,105.7c-4.3,0-8.6,0-13,0c-0.8-0.3-1-1-1.2-1.8c5.1-0.4,10.2-0.4,15.4,0
		C237.2,104.7,236.9,105.4,236.1,105.7z"/>
	<path class="st1" d="M144.3,126.8c-1.4-0.1-2.8-0.2-5.6-0.4c3.9-1.5,4.5-4.8,7.4-5.6c0,1.3,0.1,2.6,0.1,4
		C145.6,125.4,144.9,126.1,144.3,126.8z"/>
	<path class="st1" d="M276.8,126.7c-10.6,0-10.6,0-10.6-10.8c0-9.3,0-9.3,9.1-9.3c11.8,0,11.8,0,11.8,11.6
		C287.1,126.8,287.1,126.8,276.8,126.7z"/>
	<path class="st1" d="M240,138.7c-6.9,1.7-13.9,3.3-20.8,5c-0.3-14-0.3-14.1,12.6-14C240.7,129.8,240.3,127.5,240,138.7z"/>
	<path class="st1" d="M263.1,130.7c-6.6,2.1-12.9,5.3-20,6c-0.1-7-0.1-7.2,6.9-6.9C254.4,129.9,258.9,128.5,263.1,130.7z"/>
	<path class="st1" d="M169.1,93.3c0,10.4,0,10.4-10.5,10.3c-11.8-0.1-10.4,1.4-10.4-10.2c-0.1-10.7,0-10.7,10.7-10.7
		C169.1,82.7,169.1,82.7,169.1,93.3z"/>
</g>
</svg>
