<?xml version="1.0" encoding="utf-8"?>
<!-- Generator: Adobe Illustrator 19.0.0, SVG Export Plug-In . SVG Version: 6.00 Build 0)  -->
<svg version="1.1" id="Layer_1" xmlns="http://www.w3.org/2000/svg" xmlns:xlink="http://www.w3.org/1999/xlink" x="0px" y="0px"
	 viewBox="0 0 492.8 342.7" style="enable-background:new 0 0 492.8 342.7;" xml:space="preserve">
<style type="text/css">
	.st0{fill:#FEFEFE;}
	.st1{fill:#353536;}
	.st2{fill:#57BBD2;}
	.st3{fill:#8D8D8D;}
	.st4{fill:#E9B36C;}
	.st5{fill:#C8EBFD;}
	.st6{fill:#F95050;}
	.st7{fill:#98D6F9;}
	.st8{fill:#408C9C;}
	.st9{fill:#AC7659;}
	.st10{fill:#D4D4D4;}
	.st11{fill:#F98468;}
	.st12{fill:#F4D8B4;}
	.st13{fill:#F7F7F7;}
	.st14{fill:#F0F0F0;}
	.st15{fill:#BD8D73;}
</style>
<g>
	<path class="st0" d="M35.7,342.6C35.7,342.6,35.7,342.6,35.7,342.6c1.7,0,3.3,0,5,0c2.3,0,3.9-1.1,4-3.5c0-2.4-1.6-3.5-3.9-3.5
		c-3.3,0-6.6-0.1-9.9,0c-2.1,0.1-3.4,1.3-3.5,3.4c0,2.2,1.4,3.3,3.4,3.5C32.4,342.7,34.1,342.6,35.7,342.6z"/>
	<path class="st1" d="M422.9,272.4c0,8.8,0,17.7-0.2,26.5c-0.1,2.6,0.8,3.5,3.4,3.5c13.1-0.1,26.4,1.3,38.7-5
		c6.3-3.2,11.9-0.9,17.8,0.8c11.8,3.4,10.3,1.4,10.2,13.1c-0.1,15.1,2.4,11.2-12,16.5c-6.3,2.3-12.1,2.7-18.1-0.3
		c-11.9-5.9-24.8-3.8-37.3-4.1c-1.9,0-2.5,0.6-2.6,2.6c-0.8,9.6-0.9,9.6,8.6,9.6c6,0,12,0.1,18,0c2.6,0,5,0.6,5,3.5
		c0,2.9-2.4,3.7-5,3.5c-0.8-0.1-1.7,0-2.5,0c-129.1,0-258.3,0-387.4,0c-3,0-7.4,1.1-7.5-3.4c-0.1-4.7,4.3-3.5,7.3-3.5
		c6.5-0.1,6.5,0,6.5-6.7c0-35.8,0-71.7,0.1-107.5c0-3.2,0-5.5-4.3-4.9c-3.1,0.4-4.5-1.6-4.5-4.6c0-3.7,0.1-7.3,0-11
		c-0.1-3.7,1.3-5.8,5.3-5.4c2.9,0.3,3.7-0.9,3.6-3.6c-0.2-4.5,0.1-9-0.1-13.5c-0.2-4.4,1.2-8.9-2.9-13c-4.8-4.9-9-7-16.6-6.1
		c-29.6,3.3-52.3-24-44.7-52.6c1.9-7.2,4.3-7.9,9.5-2.7c9.3,9.3,18.7,18.5,27.9,28c2.2,2.3,3.4,2.9,6.1,0.3
		c11.7-10.9,13.1-17-0.1-28.9c-6-5.5-11.6-11.5-17.4-17.3c-4.5-4.5-3.9-6.7,2.4-8.5c13.3-3.9,25.8-1.7,37,6.4c2.9,2.1,5.6,3.2,9.1,3
		c4.3-0.2,8.7,0,13-0.1c3.3,0,4.9,1.4,4.8,4.9c-0.1,3,0.1,6-0.1,9c-0.2,2.6,0.4,3.9,3.5,3.8c15.8-0.1,31.7-0.1,47.5,0
		c2.5,0,3.4-0.2,3-3.3c-1.6-11.9-1.5-11.9-13.7-11.1c-6.3,0.4-12.6,0.8-19,1c-7.7,0.3-13.6-4-15.1-11.7c-2.3-12.1-4.5-24.2-6.4-36.4
		c-1.3-8.1,2.6-14,10.4-16.4c8.1-2.5,16.2-5.1,24.4-7.3c3.7-1,4.7-2.5,3.9-6.2c-1.7-7.8-1.5-7.9,6.5-9.3c6.9-1.2,13.8-2.1,20.6-3.7
		c4.7-1.1,6.8,0.6,6.9,5c0.1,5.3,2.3,6.9,7.6,6.3c8.3-1,16.6-1.1,24.9-1.6c7-0.4,12.7,3.4,14.8,9.5c0.9,2.8,0.8,4.9-2.2,6.1
		c-1.9,0.7-3.3,1.9-2.8,4.1c0.4,2.1,2,2.9,4.1,2.8c2.8-0.1,3.7,1.6,4.1,4c1.2,7.4,2.8,14.7,3.8,22.1c1.1,7.6-2.8,13.4-10.1,15.7
		c-8.9,2.8-17.8,5.6-26.8,8.1c-2.8,0.8-3.9,1.9-3.1,4.8c0.7,2.4,1,4.9,1.4,7.3c1.9,9.9,1.9,9.9,12.1,9.9c24.2,0,48.3,0,73.1,0
		c-2.7-3-1.7-6-1.4-9.2c0.9-13.2,7.1-24.4,12.7-35.9c4.6-9.2,9-18.5,13.5-27.8c0.6-1.3,1.2-2.6,1.9-3.9c1.8-5,5.2-6,10.2-4.6
		c4.1,1.2,8.4,1.7,12.7,2.2c2.8,0.3,4.6,1.4,5.2,4.3c0.2,0.9,0.3,1.9,0.5,2.8c0.1,2.4-0.5,4.9,0.6,7.2c0.1,0.6,0.3,1.2,0.4,1.8
		c-0.4,5.5,0.9,10.8,1.5,16.2c0.1,0.6,0.3,1.2,0.4,1.8c0,1,0,2,0,3c0.9,13.2,4.6,26.3,1,39.6c-0.9,3.3,1.9,2.3,3.4,2.3
		c13,0.1,26,0,38.9,0c4.4,0,8.7,0,13.5,0c-4.7-7.2-4.8-9.7,0-16.2c1.5-2.1,0.3-2.9-0.7-4.1c-9.4-12.3-21.7-19.3-37.1-20.8
		c-2.8-0.3-5.9,0-6.5-3.9c0.5-3,3.1-3.7,5.4-4.5c16.2-6.2,32.2-5.1,48,1.7c2.2,1.2,4.3,2.5,6.5,3.7c1.2,0.9,2.5,1.7,3.4,2.8
		c2.3,2.5,4,2.3,6.3-0.3c3.1-3.4,9.4-3.2,13.4,0.6c13.7,13.4,27.2,27,40.6,40.6c2.9,3,3.6,7,1.7,10.7c-1.6,3,0.8,3.7,2,5.3
		c1.2,1.6,2.3,1.5,4.2,0.6c7.3-3.4,11.8,0.6,18.1,8.5c3.6,4.6,2.5,9.6-2.4,14.6c-7.9,7.9-15.7,15.8-23.7,23.7
		c-5.7,5.6-11.1,5.5-17-0.1c-5-4.8-9.7-9.5-5.2-17.2c1-1.8-3.5-5.8-5.6-5.1c-1.8,0.5-3.7,1.7-5.3,1c-7-3-5.7,2-5.7,5.7
		c0,13,0.1,26-0.1,39c0,3.1,0.1,5.2,4.1,4.7c3.3-0.4,4.9,1.4,4.7,4.8c-0.1,2.7-0.2,5.3,0,8c0.4,5.1-0.1,9.2-6.9,8.3
		c-2.4-0.3-1.9,1.7-1.9,3.1c0,6.3,0.1,12.6,0.2,19c0,0.6,0.1,1.1,0.1,1.7c0,0.8,0,1.6,0,2.3c0,0.6-0.1,1.2-0.1,1.8
		c0,7.3,0,14.7,0,22c0.1,1,0.1,1.9,0.2,2.9c0,0.4,0,0.8,0,1.3C423,271.3,422.9,271.9,422.9,272.4z M437,132.3c0.3-0.4,0.7-0.7,1-1.1
		c0.5-0.5,1-1.1,1.5-1.6c6-5.4,11.7-10.9,16.9-17c1.8-2.3,0-3.7-1.3-5.1c-12.4-12.5-24.9-24.9-37.3-37.4c-2.5-2.5-4.6-2.8-7.1-0.2
		c-7.6,7.7-15.3,15.3-22.9,23c-1.3,1.3-2.7,2.6-1.2,4.7c1.2,2.4,3.5,3.8,5.2,5.8c0.5,0.6,1.1,1.3,2.1,1c1.3-0.4,0.9-1.6,0.9-2.5
		c-0.1-3.4-0.2-6.9-0.3-10.3c0-3.4,2.2-4.5,5.1-5c1.3,0,2.7,0.1,4,0.1c5.3,0.5,10.6,0.5,15.9,0c0.4,0.1,0.9,0.2,1.3,0.3
		c0.8,0.7,1.6,1.4,2.4,2.1c-0.1,1.3-0.2,2.6-0.2,3.9c-0.1,11.5-0.1,11.5,11.5,11.4c0.8,0.7,1.6,1.5,2.4,2.2
		c0.1,7.8,0.1,15.7,0.2,23.5c-0.2,0.4-0.5,0.8-0.7,1.3c-0.4,0.3-0.7,0.6-1.1,0.9c-0.3,0-0.5,0-0.7,0.3c-3.2,0-6.3,0-9.5,0
		c-1,0-2.4,0-1.9,1.4c0.7,2.1,2.5,3.4,4.3,4.6c1.5,1,2.9,0.4,4.1-0.7c1.4-1.4,2.7-2.9,4.1-4.3c0.3,0,0.5-0.2,0.6-0.5
		C436.4,132.9,436.7,132.6,437,132.3z M422.9,112.5c0,1.3,0.1,2.7,0.1,4c-0.1,1.8-0.1,3.6-0.3,5.4c-0.3,2.6,0.5,3.8,3.5,3.8
		c2.9,0,3.8-1,3.5-3.7c-0.2-1.8-0.2-3.6-0.2-5.4c1.6-6.3-2.6-5.1-6.1-4.7C422.8,111.9,422.7,112.1,422.9,112.5z M402.3,94.6
		c-0.7,0-0.7,0.4-0.5,0.9c0.1,1,0.1,2,0.2,3c-0.1,1.8-0.3,3.6-0.3,5.5c0,27.2,0,54.3,0,81.5c0,10.6,0,10.5,10.7,10.1
		c2.7-0.1,3.4-0.9,3.3-3.5c-0.1-31.5-0.2-63-0.2-94.5c0.4-1.8,0.4-3.2-2.2-3.1C409.6,94.7,406,94.6,402.3,94.6z M177.4,312.6
		c0-3,0-6,0-9c0.9-3.7-1.7-2.9-3.7-3c-2.4-0.2-3.3,0.7-3,3.1c0.2,1.8,0.4,3.7,0.1,5.4c-0.8,4.7,1.3,6.1,5.6,5.4
		c0.7,0.2,1.1,0,1.2-0.8C177.5,313.4,177.5,313,177.4,312.6z M134.4,314.5c0.7,0.2,1.1,0,1.2-0.8c0-0.4-0.1-0.7-0.1-1.1c0-3,0-6,0-9
		c0.9-3.7-1.7-2.9-3.7-3c-2.4-0.2-3.3,0.7-3,3.1c0.2,1.8,0.4,3.7,0.1,5.4C128,313.8,130.1,315.2,134.4,314.5z M275.5,129.6
		c-0.8-1.2-1.6-2.4-2.3-3.7c-0.8-1.6-2.3-1.9-3.7-1.8c-1.9,0.1-1.4,1.9-1.9,3c-2.2,5.1-0.1,7.9,4.8,9.4c1.1,0.5,2.5,3,3.3,0.5
		C276.5,134.7,278.1,131.9,275.5,129.6z M147.4,270.6c1.9-2.4,2.3-5.8,4.8-7.8c0.8-0.7,1.4-1.5,0.1-2.3c-1.1-1.9-2.1-3.8-3.5-6.2
		c-3.5,6.1-6.6,11.5-9.9,17.3C142.4,271.4,145,272.3,147.4,270.6z M384.5,314.6c0,1.9,1.4,1.5,2.5,1.5c19.1,0,38.2,0,57.3,0
		c1,0,2.6,0.6,2.2-1.5c0-0.4-0.1-0.7-0.1-1.1c0.2-2.1,1.2-4.2-2.6-4.2c-18.8,0.1-37.6,0.1-56.5,0c-2.5,0-3.3,0.9-2.7,3.3
		C384.5,313.3,384.5,314,384.5,314.6z M283.3,290.5c-0.9,0.6-0.7,1.4-0.5,2.3c0,13,0,26-0.1,38.9c0,3.1,0.9,4,4,4
		c12.6-0.1,25.3-0.1,37.9,0c2.6,0,3.9-0.5,3.8-3.5c-0.2-13.1-0.2-26.3-0.3-39.4c0.6-2.1-0.6-2.7-2.4-2.6
		C311.6,290.3,297.4,289.4,283.3,290.5z M162.8,257.8L162.8,257.8c2.1,1.1,4.1,3.4,5.8-0.7c0.7-1.7,2.7-1.8,4.1-0.1
		c-1.9,2.9-2,5.5,0.9,8c1,0.9,1.5,2.6,1.9,4c0.4,1.6,0.6,3,2.7,2.5c1-0.2,2.1-0.6,2.4,0.8c0.3,1.5-1.2,1.4-2,1.6
		c-4.1,1.1-3.5,5.5-5.8,7.9c-3.9,4,1.3,5.8,2.3,9.4c0.8-1.2,1.2-1.7,1.5-2.2c2.7-4.7,5.4-9.5,8.3-14.2c0.9-1.5,0.9-2.6,0-4.1
		c-3.1-5.1-6.1-10.2-9.1-15.4c-0.5-1.4-1-3.2-2.7-3.2c-6.8-0.2-13.7-0.1-20.9-0.1c5.1,9.9,3.7,7.9,9,5.6l0,0
		C161.5,258.6,162.1,258.6,162.8,257.8z M86.5,97.7c1.3-6-3.4-3.1-5.6-3.6c-1-0.2-2.6-0.8-3.2,0.4c-0.7,1.4,0.8,2.3,1.5,3.3
		c4.6,9.9,6.1,20.1,3.4,30.8c-0.8,3,1.1,4.5,3.8,5.1l0.1,0.4l-0.1-0.3C86.5,121.8,86.5,109.7,86.5,97.7z M316.3,45.6
		c-0.3-3.6-0.6-7.2-0.9-10.9c-0.1-1.3-0.5-2.2-1.9-2.5c-0.8-0.2-1.9-0.4-2,0.7c-0.3,4.2-3.1,8.3-1.1,12.7c6.7,9.4,6.8,25.2,0.3,35.6
		c-1.2,1.5-2.6,3-3.7,4.7c-1.6,2.4-6.6,2.1-5.7,5.9c0.7,2.9,4.8,3,7,5c1.7,2,3.3,4,5,6.1c0.9,1.2,2.2,2.2,3.6,1.9
		c1.4-0.3,2.3-1.6,2.5-3.3c0.3-2.9,0.8-5.8,1.2-8.8c1.1-5.8-0.3-11.4-1-17C318.4,65.6,317.3,55.6,316.3,45.6z M324.5,181.6
		c-2,0.6-3.2,2.4-4.5,3.8c-1.5,1.6-1.3,8.6,0.2,9.8c1.6,1.3,12.5,0.2,14.1-1.5c3.1-3.3,5.8-3.3,8.8,0c1.1,1.2,1.8,2.9,4,1
		c-4.7-4.7-9.4-9.4-14.1-14.1C328.3,176.2,328.3,176.2,324.5,181.6L324.5,181.6z M128.4,334.6c0-0.3,0-0.7,0-1c0-3,0-6,0-9
		c0.5-2,0.2-3.2-2.3-3.1c-2.1,0.1-4.3,0-6.4,0c-12.9,0-12.9,0-11.6,13.2C115,335.9,121.7,336.4,128.4,334.6z M477,128.6
		c-1.6-2.2-3.5-2.6-5.5-0.7c-8.6,8.5-17.2,17.1-25.7,25.8c-1,1-2.5,2.7,0.3,3.6c0.3,2.5,0.8,5.1,3.8,2.2
		c9.3-9.1,18.5-18.4,27.7-27.6C479.3,130.3,478.6,129.4,477,128.6z M198.5,324.6c0.5-1.9,0.2-3.2-2.3-3c-2.1,0.1-4.3,0-6.4,0
		c-12.6,0-12.6,0-11.8,12.7c0,0.2,0.1,0.3,0.2,0.5c3.2,1.6,6.7,0.7,10,0.7C199.2,335.7,199.2,335.6,198.5,324.6z M143.2,313.9
		c3.3,1.5,6.7,0.6,10.1,0.7c10.9,0.1,10.9,0,10.2-10.9c0.5-2,0.1-3.2-2.3-3c-2.1,0.1-4.3,0-6.4,0c-12.6,0-12.6,0-11.7,12.8
		C143,313.5,143.1,313.7,143.2,313.9z M144.5,283.6c1.2,2.6,2.5,5.2,4.5,7.3c2-1,2-4.8,4.4-3.6c3.3,1.7-1.1,3.8-0.5,6.1
		c6.1,0,12.3,0,19.1,0c-2.3-4.2-3.1-8.3-9.6-6.8c-5.6,1.3-11.2-2.7-13.2-8.4c-1.2-3.3-2.7-4.1-5.8-3.3c-1.3-0.1-2.5-0.7-4,0.4
		C141.1,278,142.8,280.8,144.5,283.6z M368.3,63.1c4.8,3.2,9.5,6.6,13.8,10.6c2.5,2.4,3.9,7.5,7.3,6.9c3-0.6,5.3-4.7,7.8-7.3
		c0.2-0.2,0.3-0.6,0.5-0.9c1.5-0.7,2.2-1.4,0.5-2.8c-11.6-9-24.6-12.9-40.6-11.1C362,60.4,365.2,61.7,368.3,63.1z M301.4,175.6
		c5.9,0.2,10.9-0.6,11.7-8.1c0.2-1.9,1.8-4,3.3-5.4c2.1-1.9,2.5-3.6,0.9-5.9c-1-1.5-1.8-3.1-2.6-4.7c-0.4-2.1-1.4-3.3-3.8-2.8
		c-2.8,0.6-5.5,1.1-8.3,1.5c-1.9,0.3-2.5,1.5-2.7,3.1c-1,6.9-0.7,13.9-0.1,20.9C299.8,175.2,300.5,175.6,301.4,175.6z M273.7,148.7
		c1.2-1.6,0.6-2.7-1-3.6c-1.9-1-3.9-2-5.5-3.3c-2.9-2.3-5.4-2.2-7.3,0.9c-1.5,2.4-6,2.8-4.6,7c1.3,3.6,1.9,7.3,1.5,11.2
		c-0.3,3.1,5.7,8.8,8.8,8.5c1-0.1,1.4-0.9,1.7-1.6C270,161.7,273.1,155.6,273.7,148.7z M283.3,126.8c3.8,3.7,8.4,4.5,13.4,3.6
		c6.6-1.2,7.6-0.2,6.3,6.6c-1.2,6.3-1.2,6.3,5.1,5.1c0.7-0.1,1.3-0.2,2-0.4c4.4-1.2,2.6-5.2,3.4-7.9c0.9-3.1-2.1-2.4-3.5-2.7
		c-5.7-1.4-6.3-2.7-3.2-7.7c4-6.5,3.5-12.8-1.3-18.8c-2.2-3.3-5.3-5-9.2-5.4c-3-1.3-3.3-3.6-2.7-6.5c0.3-1.7,1.8-3.7,0.2-5.1
		c-5.4-5.2-5.4-12-5.9-18.7c1.3-8.1,2.5-16.7,9.4-21.8c4.6-3.4,6.1-7.2,6.6-12.2c0.1-1.4,1.9-3.2-0.6-4.2c-2.6-1.1-3,1.2-3.8,2.8
		c-6.5,13.2-12.8,26.6-19.5,39.7c-3.1,6.1-5,12.5-6.4,19.2c-1,4.8,0.5,6.2,4.9,6c4,1.6,4.2,4,1.8,7.3c-2.6,3.6-3.7,7.7-2.4,12.2
		C278.4,121.5,280,124.6,283.3,126.8z M316.6,116.5c-0.1,0.6-0.3,1.3-0.4,1.9c-1.6,7.1-1.7,7.1,5.7,7.1c0.7,0,1.3,0,2,0
		c20.7,0,41.5,0,62.2,0c9,0,9,0,8.4-9c1.2-4-0.4-5.1-4.4-5c-19.8,0.2-39.7,0.2-59.5,0c-3.7-0.1-7.1,2.1-10.6,1.3
		C316,112,316.2,113.9,316.6,116.5z M135,195.4c0.4-0.1,0.8-0.2,1.3-0.3c-0.2-0.2-0.4-0.5-0.6-0.7c-18-18.1-36-36.2-54-54.3
		c-1.4-1.4-2.4-2.1-3.8,0.1c-3.4,5.6-8,10.1-13.7,13.5c-2.1,1.3-1.6,2.1,0.3,2.8c0,1.3,1,1.8,1.8,2.4c11.3,11.9,22.8,23.4,34.7,34.7
		c2.4,3.1,5.3,1.4,8.9,1.5c-1.4-1.3-2.1-1.9-2.8-2.5c-10.1-10.2-20.1-20.4-30.2-30.5c-2.9-2.9-4.5-5.9-2.3-9.8
		c2.5-4.4,7.7-4.6,11.8-0.5c13.5,13.4,27,26.8,40.3,40.3C129.2,194.6,131.6,196.2,135,195.4z M94.3,111.9c-0.9,0.3-0.7,0.9-0.5,1.6
		c0.1,1,0.1,2,0.2,3c-1.1,9.1-1.1,9.1,7.7,9.1c49.3,0,98.6,0,148,0c3.2,0,6.5,0.7,9.4-0.2c3.6-1.1,1.3-5.8,3.4-8.2
		c0.1-0.1,0.1-0.3,0.2-0.5c1.8-0.9,3.6-0.6,5.4-0.2c1.5,0.3,2.2-0.3,2.1-1.8c-0.1-1.2,0.8-2.9-1.4-3c-1-0.1-2,0-3,0
		c-56,0-112,0-168.1,0C96.6,111.6,95.5,111.8,94.3,111.9z M39.4,152.4c14.4,1.6,28.8-6.8,34.7-20.7c5.4-12.7,2.9-31.1-9.2-40.2
		c-8.3-7.4-18-9.8-29.5-8.1c1.6,1.9,3.5,4.7,4.5,3.7c3.3-3.3,4.4-0.5,6,1.4l-0.2-0.3l-0.3,0.2c-1.2,0.6-3.8,0.4-2.3,3
		c1.3,2.2,2.3,0.1,3.4-0.6c0.5-0.3,1.2-0.4,1.8-0.6c0.7,0.7,1.4,1.4,1,2.6c-0.4,1.3-3.2,1.9-1.1,4c1.9,1.8,2.4-0.5,3.6-1.1
		c0.9-0.4,1.7-0.4,2.2,0.4c0.3,0.5,0.4,1.5,0.2,1.8c-3.4,2.9-0.4,4.4,1.3,6.1c2.5,2.5,4.1,5.6,5.4,8.8c1.6,8.2-0.9,14.9-6.9,20.7
		c-6.3,6-12.3,12.2-19.2,19.1C37.1,152.4,38.3,152.4,39.4,152.4z M351.4,159.6c2.9,0.5,3.4,1.8,1.3,4c-1.5,1.5-2.9,3.2-4.6,4.6
		c-2.4,2-2.1,3.7,0.1,5.6c3.1,2.8,6.1,5.7,8.9,8.7c1.7,1.8,2.9,2.1,4.8,0.1c10.2-10.3,20.5-20.4,30.7-30.6c1.2-1.2,2-2.5,2-4.3
		c-0.1-4-0.1-8,0-12c0.1-2.4-0.9-3.2-3.2-3.1c-5,0.1-10,0.1-14.9,0.2c-1.8-0.2-3.6-0.3-5.1,1.2c-9.8,9.9-19.7,19.8-29.6,29.6
		c-1.1,1.1-1.7,2-0.3,3.3c1.4,1.3,2.4,0.4,3.3-0.5C347,164.1,349.2,161.9,351.4,159.6z M64.3,206.6c-0.8,5,3.1,2.9,4.9,2.9
		c116.7,0.1,233.5,0.1,350.2,0.1c1,0,2,0,3,0c2.4,0,2.1-1.5,1.8-3c1.3-4.3-1.5-4-4.4-4c-117.1,0-234.2,0-351.3,0c-0.3,0-0.7,0-1,0
		C64.2,202.1,63.5,203.7,64.3,206.6z M260.6,331.7c-3.9-8.4-2.1-17.4-2.2-26.1c-0.2-14,8.6-22.6,22.7-22.6c9,0,18,0.5,27-0.1
		c17.1-1.1,33.4,1.8,49.4,7.7c0.6,0.2,1.3,0.4,1.9,0.6c2.3,0.9,3.7,0.9,5-1.9c2.4-5.1,6.9-6.9,12-5.8c4.7,1.1,7.8,5.1,8,10.7
		c0.1,1.5,0.1,3,0,4.5c-0.3,2.7,0.5,3.9,3.5,3.8c8.2-0.2,16.3-0.1,24.5,0c2.6,0,3.4-0.8,3.4-3.4c-0.1-21.8-0.1-43.6-0.2-65.4
		c0-4.4,0-8.9,0.1-13.3c0-1.9,0.1-3.7-2.7-3.6c-2.5,0.1-2.5,1.6-2.4,3.4c0.1,5.3,0.2,10.5,0.3,15.8c-0.4,1.3-0.1,3.4-2.2,3.2
		c-1.7-0.2-1.4-1.9-1.4-3.2c-0.1-2.3-0.1-4.6-0.2-6.9c0.1-3.3,0.2-6.5,0.3-9.8c0-1.2-0.3-2.3-1.8-2.3c-1.5,0-1.9,1-1.9,2.3
		c0.1,3.6,0.2,7.2,0.3,10.8c-0.4,1.1-0.8,2.4-2.2,2.1c-1.5-0.2-1.4-1.6-1.5-2.7c-0.1-2.8-0.2-5.6-0.3-8.3c1.7-5.5-2.4-4.2-5.1-4.2
		c-105.5,0-211,0-316.5,0c-0.7,0-1.3,0.1-2,0c-3.4-0.4-4.1,1.3-3.2,4.2c-0.1,26.2-0.1,52.4-0.2,78.6c0,0.6,0.3,1.3,0.5,1.9
		c-1.4,10.1-0.3,20.2-0.6,30.3c0,1.5-0.8,3.8,1.9,3.7c2.6-0.1,1.8-2.4,1.8-3.9c0.1-10,0.1-20,0.1-29.9c3.2-2.2,3.2,0.1,3.2,2.3
		c0,7.5,0,15,0,22.5c0,2.1,0.4,4.3,0.6,6.4c0.3,3,2.7,1.8,4.2,2.1c2.3,0.5,1.8-1.3,1.8-2.5c0.1-3.8,0.5-7.7,0.2-11.5
		c-0.3-4.7,1.4-6.7,6.3-6.5c8,0.3,16-0.2,24,0.2c4.1,0.2,5.2-1.3,4.9-5.1c-0.3-3.6,0-7.3-0.1-11c-0.1-3.6,1.6-5.2,5.1-5.1
		c4.7,0.1,9.5,0,15.1,0c-3.6-6.2-6.6-11.7-9.9-17c-1.6-2.6-1.7-4.7-0.1-7.4c4.1-6.7,8-13.5,11.7-20.3c1.6-2.8,3.6-4,6.8-4
		c8,0.2,16,0.3,24,0.2c2.6,0,4.3,0.9,5.6,3.2c4,7.1,8.1,14.2,12.3,21.2c1.4,2.3,1.4,4.2,0,6.5c-2.9,4.7-5.5,9.5-8.3,14.3
		c-0.6,1-1.6,2.6-1.3,3c3.9,5.5,1.4,11.6,1.8,17.4c0.2,3.1,1,4,4,3.9c8.2-0.2,16.3-0.1,24.5-0.1c6.3,0,6.6,0.3,6.7,6.9
		c0,3.3,0.1,6.7,0.1,10c-1,3.5,0.7,4.2,3.9,4.2c11.6-0.1,23.3-0.2,34.9,0C262.8,335.7,263.1,334.5,260.6,331.7z M258.5,132.9
		c0.1,0-0.2-0.2-0.4-0.3c-22,0-44,0-65.9-0.1c-3,0-3.2,1-2.7,3.5c3.4,18.8,6.7,37.7,10,56.5c0.4,2.3,1.3,3,3.5,3
		c9.5-0.1,19,0,28.5,0c1.3,0,2.5,0,3.3-1.5c4.9-10,11-19.4,14.4-30c1.4-4.4,1.7-8.9-1.6-12.8c-2.5-2.8-1.7-4.8,0.7-7.2
		C251.7,140.4,255.1,136.6,258.5,132.9z M191.3,17.6c0-0.1,0-0.1,0-0.2c-11.6,0.7-23.3,1.5-34.9,1.9c-3.7,0.1-4.4,1.3-3.7,4.8
		c3.3,17.7,6.6,35.3,9.6,53c0.6,3.4,1.5,4.1,4.8,3c13.5-4.3,27.1-8.2,40.6-12.4c5.1-1.6,6.7-4.1,5.8-9.4c-0.8-4.9-2-9.8-2.6-14.7
		c-0.3-2.5-1.1-4-3.6-5.3c-6-3-7.4-9.8-3.8-15.3c0.8-1.2,3.3-2,1.8-4c-1.3-1.7-3.3-2.2-5.4-2.1C197,17.1,194.1,17.4,191.3,17.6z
		 M123.4,83.7c9.5-0.5,21.1-1.2,32.7-1.8c2-0.1,3.4,0,2.9-3c-3.3-18.5-6.4-37-9.5-55.5c-0.3-2-0.9-2.9-3.3-2.2
		c-13.5,4.2-27,8.2-40.5,12.4c-4.4,1.4-5.8,4.6-5,9c1.8,9.6,3.4,19.3,5.3,28.9C108.2,84.1,108.3,84.1,123.4,83.7z M124,132.6
		c-8.8,0-17.7,0-26.5,0c-1.3,0-3.6-0.9-3.6,1.4c-0.1,3.8-1,7.6,2.6,11c14.1,13.7,28.3,27.4,41.6,41.8c6.2,6.7,12.6,10.3,21.6,8.7
		c0.3-0.1,0.7-0.1,1,0c3.1,0.5,3.4-0.8,2.9-3.6c-3.4-18.5-6.7-37-9.8-55.6c-0.6-3.4-2-3.8-4.9-3.8
		C140.7,132.7,132.3,132.6,124,132.6z M171.2,132.6c-2.2,0-4.3,0.1-6.5,0c-3-0.2-4.5,0.1-3.7,4.1c2.2,10.6,3.7,21.3,5.6,31.9
		c1.3,7.7,2.9,15.3,4.1,23c0.7,4.8,4,3.9,7.1,3.8c4.1-0.1,1.5-3,1.4-4.4c-0.3-4-1.2-7.9-1.7-11.8c-0.2-1.2-0.8-3,1-3.4
		c2.3-0.6,2.2,1.6,2.5,2.9c1,4.5,2,9.1,2.6,13.7c0.7,4.7,4.2,2.9,6.6,2.9c3.3,0.1,1.9-2.3,1.6-4c-2.8-16-5.6-32.1-8.3-48.1
		C181.8,132.7,181.9,132.6,171.2,132.6z M278.5,195.5c4.2,0,8.4-0.3,12.5,0.1c4.2,0.4,4.9-1.1,4.2-5c-2.8-15.1-4.7-30.3-0.8-45.6
		c0.5-2.1,1.5-4.6,0.9-6.3c-1-2.5-4.2-0.5-6.2-1.4c-0.4-0.2-1-0.2-1.4-0.4c-4.2-2.3-4.8,0.1-5.2,3.6c-1,8.9-3,17.7-6.7,26
		c-3.8,8.3-8.3,16.3-12.7,24.3c-2.6,4.7-2.6,4.7,3,4.7C270.1,195.6,274.3,195.5,278.5,195.5z M335.4,313.1
		C335.4,313.1,335.4,313.1,335.4,313.1c0,5.2,0.3,10.3-0.1,15.5c-0.3,4.4,0.6,6.1,5.4,4.2c5.1-2,10.4-3.6,15.8-4.6
		c5.6-1.1,7.6-3.6,7-9.4c-0.6-5.6-0.2-11.3-0.1-16.9c0-1.6-0.7-2.7-2.2-2.8c-2.3-0.2-1.4,1.7-1.5,2.8c-0.1,2.5,0,5,0,7.5
		c0,1.4,0.4,3.4-1.8,3.4c-1.7-0.1-1.4-1.9-1.5-3.2c-0.5-4,1.9-9.1-1.1-11.8c-2.8-2.5-7.7-2.8-11.6-4c-1.1-0.3-2.3-0.5-3.3-1
		c-3.7-1.6-5.3-1.1-5,3.5C335.6,301.8,335.4,307.5,335.4,313.1z M361.4,132.6c-12.6,0-25.3,0-38.1,0c-1.5,0-2.5,0.3-2.8,2
		c-0.8,4.9-2.4,9.7,1,14.4c1.7,2.4,2.5,5.4,4.1,8c2.1,3.5,1.9,5.9-1.9,8.2c-3.9,2.4-5.3,6.3-5.1,10.3
		C332.7,161.3,347,147,361.4,132.6z M360.2,195.5c8.6,0,16.7,0,24.9,0c9.6,0,9.6,0,9.6-9.5c0-8.3,0-16.7,0-25
		C383.1,172.7,371.9,183.9,360.2,195.5z M124.6,195.1c-14-14-27.4-27.4-40.7-40.8c-0.2-0.2-0.5-0.5-0.7-0.7
		c-1.6-1.3-3.3-1.7-4.9-0.2c-1.6,1.5-1.4,3.3-0.2,4.9c0.7,0.9,1.6,1.7,2.4,2.5c10.2,10.2,20.7,20.2,30.6,30.8
		C114.9,195.8,118.9,196.2,124.6,195.1z M7.9,110.9C5.3,126.8,12,141,24.6,148.2c2.1,1.2,3.3,1.1,5.1-0.6c7.8-7.5,7.9-7.4,0.2-14.8
		c-1.1-1-2.4-1.8-3.4-2.8c-1.2-1.2-2.2-1.9-3.8-0.5c-0.8,0.7-1.7,1-2.6,0.1c-0.9-1-0.4-1.8,0.3-2.6c0.9-1,2-1.8,0.5-3.3
		c-1.3-1.2-2-0.2-2.8,0.6c-0.9,0.9-2,1.4-3,0.2c-0.8-1-0.2-1.8,0.5-2.6c0.8-0.8,1.8-1.5,0.6-2.9c-1.4-1.6-2.2-0.6-3.2,0.4
		c-0.7,0.7-1.6,1.3-2.6,0.4c-0.7-0.6-1.1-1.5-0.4-2.1C13.7,114.4,10.1,113.3,7.9,110.9z M275.7,291.1c-6,1.7-9.9,5.6-10.2,11.1
		c-0.4,7-0.3,14,0,21c0.2,4.8,3.1,8.3,7.3,10.7c1.5,0.8,2.9,1.3,2.9-1.3C275.7,318.8,275.7,305,275.7,291.1z M399.9,335.6
		c4.2,0,8.3-0.1,12.5,0c2.3,0.1,3.4-0.8,3.2-3.2c-0.1-1.5-0.2-3,0-4.5c0.4-3.4-0.8-4.7-4.4-4.6c-7.3,0.3-14.6,0.3-21.9,0
		c-4-0.2-5.2,1.2-5,5.1c0.4,8-1.4,7.1,7.1,7.2C394.3,335.6,397.1,335.6,399.9,335.6z M377.3,313.1
		C377.3,313.1,377.3,313.1,377.3,313.1c0-6,0-12,0-17.9c0-2.6-0.5-4.9-3.6-4.9c-2.8,0-3.4,2.1-3.4,4.5c0,12,0,23.9,0,35.9
		c0,2.4,0.7,4.6,3.3,4.7c3,0.1,3.7-2.2,3.7-4.8C377.3,324.8,377.3,318.9,377.3,313.1z M308.6,62.3c0-2.7-0.1-5.3-1-7.9
		c-0.6-1.6-1.1-3.4-2.9-3.8c-1.9-0.4-3.1,1.2-4,2.5c-5.3,7.6-6.7,16-4.5,25.1c0.4,1.6,1.1,3.5,2.8,3.8c2,0.4,3.3-1.4,4.3-2.9
		C307,74.2,308.3,68.4,308.6,62.3z M169.3,104.6c1.7,0,3.3,0,5,0c1.4,0,2.3-0.6,2-2.1c-0.9-4.5-1.8-9.1-2.7-13.6
		c-0.2-1.2-0.6-2.3-2.2-2.1c-1.9,0.2-1.8,1.6-1.7,3c0.3,2.3,0.6,4.6,1,6.9c0.3,1.7,1.7,4.2-1,4.5c-2.3,0.3-2-2.5-2.4-4.2
		c-0.4-1.9-0.9-3.9-1.1-5.8c-0.3-3.3-2.7-2.2-4.5-2.2c-2.4,0-2,1.5-1.6,3.1c0.3,1.4,0.2,3,0.3,4.4
		C161.1,104.2,161.6,104.6,169.3,104.6z M468.3,321.9c0-3.4,0-6.2,0-9.1c0-9.2,0.1-9-9.1-6.3c-3.8,1.1-5.4,2.6-5.1,6.9
		c0.2,3,1,4.5,3.9,5.2C461.2,319.4,464.3,320.6,468.3,321.9z M73.9,176.5c-0.4,0.3-0.8,0.5-1.1,0.8c0,2.9,0,5.9,0,8.8
		c0,9.4,0,9.5,9.3,9.3c1.5,0,3.7,1,4.3-1.2c0.5-2,0.7-4.2-1.2-6C81.4,184.4,77.7,180.4,73.9,176.5z M445.2,143.7
		c0.4-0.2,0.7-0.2,1-0.5c5-5,10.2-9.9,15-15.1c1.9-2-1.1-3-2-4.3c-0.9-1.3-1.9-1.6-3.2-0.3c-4.6,4.7-9.3,9.4-14,14.1
		c-0.9,0.9-1.5,1.9-0.4,3C442.7,141.8,443.5,143.3,445.2,143.7z M162.1,265.8c-3.6,0-7,3.3-7.1,7c0,3.7,3.2,7,6.9,7
		c3.7,0,7.1-3.2,7.1-6.9C169.1,269.2,165.7,265.8,162.1,265.8z M485.6,312.4c-0.6-1.8,1.4-4.7-1.1-6c-2.6-1.3-5.8-2.5-8.4-2
		c-1.6,0.3-0.5,4.1-0.6,6.4c-0.2,2.8-0.1,5.6,0,8.4c0,1-0.5,2.3,1.6,2.2C482.7,321.1,485.6,318.3,485.6,312.4z M334.9,170.7
		c-1,0.9-2.1,1.7-2.9,2.7c-1.1,1.4,0.5,2,1.2,2.7c5.1,5.2,10.3,10.3,15.4,15.5c1.5,1.6,2.5,2.1,4.3,0.3c1.9-2,0.5-2.8-0.6-3.9
		c-5.2-5.2-10.3-10.3-15.5-15.5C336.3,171.9,335.7,171.4,334.9,170.7z M451.7,163.6c1.6,1.3,3,0.6,4.1-0.4
		c8.6-8.5,17.2-17.1,25.7-25.7c1-1,1.8-2.5,0.6-3.5c-1.5-1.1-2.2,0.8-3.1,1.6c-7.7,7.6-15.3,15.2-22.9,22.8
		C454.5,160,452.4,161.2,451.7,163.6z M156.6,328.3C156.6,328.3,156.6,328.3,156.6,328.3c0-0.7,0-1.3,0-2c0.2-2.7,0.2-4.8-3.7-4.7
		c-3.8,0.1-3.2,2.4-3.2,4.7c0,2.3,0,4.7,0,7c0,2.5,1.7,2.4,3.4,2.4c1.7,0,3.5,0.2,3.5-2.3C156.5,331.6,156.6,329.9,156.6,328.3z
		 M205.5,327.8c0,1.2-0.2,2.1,0,2.9c0.6,1.7-1.8,4.9,2.1,4.8c3-0.1,5.8-1,5-5.2c-0.3-1.4-0.3-3,0-4.5c0.7-3.7-0.9-4.5-4.3-4.3
		C202.6,321.9,207.1,326.3,205.5,327.8z M93.7,328.5C93.7,328.5,93.7,328.5,93.7,328.5c0.1,0.7-0.1,1.4,0.1,2c0.5,1.8-1.6,5,2.1,5
		c2.9,0,5.8-1,4.9-5.3c-0.4-1.9-0.2-4,0-6c0.3-2.9-1.5-2.8-3.5-2.7c-1.7,0.1-3.9-0.6-3.7,2.5C93.7,325.5,93.7,327,93.7,328.5z
		 M135.7,328.1c0,1-0.2,1.7,0,2.3c0.6,1.8-1.7,5.4,2.5,5.1c2.7-0.2,5.4-1.3,4.5-5.2c-0.4-1.9-0.2-4,0-6c0.2-2.3-0.8-2.6-2.9-2.8
		C133.2,320.8,136.5,325.8,135.7,328.1z M163.5,328.2c0,1.3-0.1,2.7,0,4c0.1,1.5-0.7,4,2.1,3.3c1.8-0.4,5,0.6,5-3.1
		c0-2.8,0-5.6,0.1-8.5c0.1-1.7-0.7-2.1-2.3-2.4C162.1,320.4,163.6,324.8,163.5,328.2z M160.1,10.5c-0.4-1.4-0.5-3.1-2.7-2.7
		c-5.4,1-10.8,2-16.2,2.9c-2.1,0.4-2.1,1.7-1.8,3.3c0.4,2.1,1.7,1.6,3,1.1c5-1.8,10.2-2.9,15.6-2.7
		C159.3,12.4,160.4,12.1,160.1,10.5z M246.9,195.5c3.2,0.2,7.1,0.6,6.8-3.1c-0.2-2.5-4.4-3.7-6.8-3.9c-2.9-0.3-4.1,3.5-4.2,5.6
		C242.7,197.2,245.9,194.6,246.9,195.5z M248.4,184.5c8.2,4.9,9.8,4.2,11.6-4.7C256.3,181.3,252.6,182.8,248.4,184.5z M158.3,101.8
		c-0.7-3.5-1.5-7.4-2.3-11.3c-0.1-0.5-0.8-1.2-1.3-1.2c-1-0.1-1.2,0.8-1.2,1.7c-0.1,4,0.9,7.8,1.6,11.7c0.2,1,0.8,1.9,2,1.7
		C158.6,104.3,158.4,103.2,158.3,101.8z M301.6,186.4c1.3,9.6,1.3,9.6,9.7,8.7C308,192.2,305.2,189.6,301.6,186.4z M311.8,190.8
		c-0.7-10.3-1.4-10.8-7.9-7.2C306.3,185.9,308.7,188.1,311.8,190.8z M261,175.6c-7.5-4.8-7.5-4.8-10.4,4.2
		C254.1,178.4,257.2,177.1,261,175.6z"/>
	<path class="st1" d="M35.7,342.6c-1.7,0-3.3,0.1-5,0c-2.1-0.2-3.5-1.3-3.4-3.5c0-2.1,1.3-3.4,3.5-3.4c3.3-0.1,6.6,0,9.9,0
		c2.4,0,3.9,1.1,3.9,3.5c0,2.4-1.6,3.5-4,3.5C39.1,342.6,37.4,342.6,35.7,342.6C35.7,342.6,35.7,342.6,35.7,342.6z"/>
	<path class="st2" d="M415.5,233.6c0,21.8,0.1,43.6,0.2,65.4c0,2.6-0.8,3.5-3.4,3.4c-8.2-0.1-16.3-0.2-24.5,0
		c-3,0.1-3.8-1.1-3.5-3.8c0.2-1.5,0.1-3,0-4.5c-0.2-5.6-3.3-9.6-8-10.7c-5.1-1.1-9.6,0.7-12,5.8c-1.3,2.8-2.7,2.8-5,1.9
		c-0.6-0.2-1.3-0.4-1.9-0.6c-15.9-5.9-32.3-8.8-49.4-7.7c-9,0.6-18,0.1-27,0.1c-14.2,0-23,8.6-22.7,22.6c0.2,8.7-1.7,17.7,2.2,26.1
		c-13.6-0.1-27.1-0.2-40.7-0.3c0-3.3-0.1-6.7-0.1-10c0-6.5-0.3-6.9-6.7-6.9c-8.2,0-16.3-0.1-24.5,0.1c-3,0.1-3.8-0.8-4-3.9
		c-0.4-5.8,2.1-11.9-1.8-17.4c-0.3-0.5,0.7-2.1,1.3-3c2.7-4.8,5.4-9.6,8.3-14.3c1.4-2.3,1.3-4.2,0-6.5c-4.2-7-8.3-14.1-12.3-21.2
		c-1.3-2.3-3-3.2-5.6-3.2c-8,0.1-16,0-24-0.2c-3.2-0.1-5.2,1.1-6.8,4c-3.8,6.9-7.7,13.6-11.7,20.3c-1.6,2.6-1.5,4.8,0.1,7.4
		c3.3,5.3,6.3,10.8,9.9,17c-5.6,0-10.3,0.1-15.1,0c-3.6-0.1-5.2,1.5-5.1,5.1c0.1,3.7-0.2,7.3,0.1,11c0.3,3.8-0.7,5.3-4.9,5.1
		c-8-0.3-16,0.1-24-0.2c-4.9-0.2-6.5,1.8-6.3,6.5c0.2,3.8-0.1,7.6-0.2,11.5c0,1.2,0.5,3-1.8,2.5c-1.6-0.3-4,0.9-4.2-2.1
		c-0.2-2.1-0.6-4.3-0.6-6.4c-0.1-7.5,0-15,0-22.5c0-2.2,0-4.5-3.2-2.3c-1.1-0.1-2.1-0.2-3.2-0.3c-0.2-0.6-0.5-1.3-0.5-1.9
		c0-26.2,0.1-52.4,0.2-78.6c1.2-0.1,2.3-0.2,3.5-0.2c106.6,0,213.2,0,319.8,0c1.2,0,2.3,0.1,3.5,0.2c0.1,2.8,0.2,5.6,0.3,8.3
		c0,1.2,0,2.5,1.5,2.7c1.5,0.2,1.8-1.1,2.2-2.1c1-0.3,2.1-0.6,3.1-0.9c0.1,2.3,0.1,4.6,0.2,6.9c0,1.3-0.3,3,1.4,3.2
		c2.1,0.2,1.8-1.9,2.2-3.2C412.4,235,413.9,234.3,415.5,233.6z M219.2,251.1c0-6.2,0-12.3,0-18.5c0-1.4,0.3-3.5-1.7-3.6
		c-2.4-0.1-1.9,2.2-1.9,3.7c0,12.6,0,25.3,0,37.9c0,1.4-0.3,3.4,1.8,3.4c2.1-0.1,1.8-2,1.8-3.5C219.2,264.1,219.2,257.6,219.2,251.1
		z M227.7,262.2c0-6.3,0-12.6,0-18.9c0-1.4,0.5-3.5-1.6-3.6c-2.1-0.1-1.8,2-1.8,3.4c0,12.6,0,25.2,0,37.9c0,1.4-0.4,3.6,1.6,3.6
		c2.5,0,1.7-2.4,1.7-3.9C227.8,274.5,227.7,268.3,227.7,262.2z M219.2,284.4c0-2,0-3.7,0-5.3c0-1.2-0.3-2.5-1.8-2.4
		c-1.5,0-1.7,1.3-1.8,2.5c0,1.6-0.2,3.3,0,4.9c0.3,2.1-1.3,5.9,1.5,5.9C220.8,290,218.4,286,219.2,284.4z M79.7,295.3
		c-0.1-1.4,0.3-3.2-1.5-3.2c-2.2-0.1-1.8,1.9-1.9,3.3c0,1.3-0.2,3.1,1.5,3.2C80.1,298.6,79.5,296.6,79.7,295.3z"/>
	<path class="st3" d="M191.3,17.6c2.8-0.2,5.6-0.5,8.5-0.6c2.1-0.1,4.1,0.4,5.4,2.1c1.5,2.1-1,2.8-1.8,4c-3.6,5.5-2.2,12.3,3.8,15.3
		c2.5,1.2,3.2,2.7,3.6,5.3c0.7,4.9,1.9,9.8,2.6,14.7c0.8,5.3-0.7,7.8-5.8,9.4c-13.5,4.2-27.1,8.1-40.6,12.4c-3.3,1-4.2,0.3-4.8-3
		c-3-17.7-6.2-35.4-9.6-53c-0.7-3.5,0-4.6,3.7-4.8c11.6-0.4,23.3-1.3,34.9-1.9C191.3,17.4,191.3,17.5,191.3,17.6z M199.4,52.4
		c-3.2,0.1-5.4,1.8-5.6,5c-0.2,3,1.8,5,4.9,5.2c3.3,0.2,5.5-1.6,5.6-4.9C204.4,54.7,202.7,52.8,199.4,52.4z"/>
	<path class="st3" d="M123.4,83.7c-15.1,0.4-15.2,0.4-17.6-12.1c-1.8-9.6-3.5-19.3-5.3-28.9c-0.8-4.4,0.7-7.6,5-9
		c13.5-4.2,27-8.2,40.5-12.4c2.3-0.7,3,0.2,3.3,2.2c3.1,18.5,6.2,37,9.5,55.5c0.5,3-0.9,2.9-2.9,3C144.4,82.4,132.8,83.1,123.4,83.7
		z M141.2,30.6c-4.7-0.1-8,2.8-8.3,6.2c-0.1,1.3,0.2,2.4,1.5,2.7c1.1,0.3,2-0.4,2.1-1.5c0.3-2.1,1.2-3.4,3.4-3.4
		c1.5,0,2.6,0.6,3.1,2c0.7,2.3-0.8,3.3-2.5,4.3c-1.2,0.7-1.6,1.7-0.8,2.9c0.7,1,1.8,0.7,2.7,0.2c3.1-1.5,5.1-3.9,4.5-7.5
		C146.3,33,144,30.8,141.2,30.6z"/>
	<path class="st4" d="M262.8,116.8c-0.1,0.2-0.1,0.3-0.2,0.5c-2.1,2.4,0.3,7-3.4,8.2c-2.9,0.9-6.3,0.2-9.4,0.2c-49.3,0-98.6,0-148,0
		c-8.8,0-8.8,0-7.7-9.1c49.9,0,99.9,0,149.8,0.1C250.2,116.6,256.5,116.7,262.8,116.8z"/>
	<path class="st5" d="M64.3,206.6c-0.9-2.9-0.1-4.5,3.3-4.1c0.3,0,0.7,0,1,0c117.1,0,234.2,0,351.3,0c2.8,0,5.7-0.3,4.4,4
		c-1.7,0-3.3,0-5,0C300.9,206.6,182.6,206.6,64.3,206.6z"/>
	<path class="st6" d="M328.2,292.7c0.1,13.1,0,26.3,0.3,39.4c0,3-1.2,3.6-3.8,3.5c-12.6-0.1-25.3-0.1-37.9,0c-3,0-4-0.9-4-4
		c0.2-13,0.1-26,0.1-38.9c0.2,0,0.5-0.1,0.7-0.1C298.4,292.7,313.3,292.7,328.2,292.7z M287.3,330.5c6.8,2,13.5,1.8,20.3,0.1
		c1.7-1.7,2-3.5-0.9-3.7c-6-0.3-12-0.2-18,0C286.1,326.9,285.8,328.4,287.3,330.5z M324.4,298.5c0.5-2.2-0.4-3-2.6-3
		c-11,0-21.9,0-32.9,0c-2.6,0-3.4,1.2-1.5,3.4c0.9,1.7,2.6,1.8,4.3,1.8c9.4,0,18.8,0,28.2,0C321.8,300.6,323.6,300.7,324.4,298.5z
		 M323.6,314.7c2.1-2.5,1-3.7-1.8-3.7c-10.8-0.1-21.6-0.1-32.4,0c-2.5,0-4.1,1-1.9,3.7c0.9,1.8,2.5,1.9,4.2,1.9c9.2,0,18.5,0,27.7,0
		C321.1,316.6,322.7,316.4,323.6,314.7z M320.1,326.7c-1.3,0.4-3.7-0.6-3.8,1.7c-0.1,2,1.5,3.1,3.6,3c2.1-0.1,4.4-0.7,4.5-2.8
		C324.5,325.9,321.8,327.1,320.1,326.7z"/>
	<path class="st7" d="M415.5,97.7c0.1,31.5,0.1,63,0.2,94.5c0,2.5-0.7,3.4-3.3,3.5c-10.7,0.4-10.7,0.5-10.7-10.1
		c0-27.2,0-54.3,0-81.5c0-1.8,0.2-3.6,0.3-5.5C406.4,97,411,97.9,415.5,97.7z"/>
	<path class="st8" d="M399.8,220.9c-1.2-0.1-2.3-0.2-3.5-0.2c-106.6,0-213.2,0-319.8,0c-1.2,0-2.3,0.1-3.5,0.2
		c-0.9-2.9-0.2-4.6,3.2-4.2c0.7,0.1,1.3,0,2,0c105.5,0,211,0,316.5,0C397.4,216.7,401.5,215.3,399.8,220.9z"/>
	<path class="st9" d="M376.4,132.8c5,0,10,0,14.9-0.2c2.3-0.1,3.3,0.7,3.2,3.1c-0.1,4-0.1,8,0,12c0.1,1.9-0.8,3.1-2,4.3
		c-10.3,10.2-20.6,20.3-30.7,30.6c-1.9,2-3.1,1.7-4.8-0.1c-2.8-3-5.8-5.9-8.9-8.7c-2.2-2-2.5-3.6-0.1-5.6c1.7-1.4,3.1-3,4.6-4.6
		c2.1-2.1,1.6-3.5-1.3-4c2.1-4.9,6.5-7.7,10.2-11.1C366.9,143.5,372.7,139.2,376.4,132.8z"/>
	<path class="st9" d="M171.2,132.6c10.7,0,10.6,0,12.3,10.6c2.6,16.1,5.5,32.1,8.3,48.1c0.3,1.6,1.7,4-1.6,4
		c-2.4-0.1-5.9,1.7-6.6-2.9c-0.7-4.6-1.7-9.1-2.6-13.7c-0.3-1.3-0.2-3.5-2.5-2.9c-1.7,0.4-1.1,2.2-1,3.4c0.5,3.9,1.4,7.9,1.7,11.8
		c0.1,1.4,2.7,4.2-1.4,4.4c-3,0.1-6.4,1-7.1-3.8c-1.2-7.7-2.8-15.3-4.1-23c-1.9-10.6-3.4-21.3-5.6-31.9c-0.8-3.9,0.6-4.2,3.7-4.1
		C166.9,132.7,169,132.6,171.2,132.6z"/>
	<path class="st7" d="M64.3,206.6c118.3,0,236.6,0,354.9,0c1.7,0,3.3,0,5,0c0.3,1.6,0.6,3.1-1.8,3c-1,0-2,0-3,0
		c-116.7,0-233.5,0-350.2-0.1C67.5,209.5,63.6,211.6,64.3,206.6z"/>
	<path class="st10" d="M64.9,91.5c12.1,9.1,14.6,27.5,9.2,40.2c-5.9,13.9-20.3,22.3-34.7,20.7c0.2-2,1.9-3,3.1-4.3
		c5-5.1,10.1-10,15-15.2c5.4-5.6,6.8-15,3.3-20.3c-1.3-3.2-2.9-6.3-5.4-8.8c-1.7-1.7-4.7-3.2-1.3-6.1c0.3-0.2,0.1-1.3-0.2-1.8
		c-0.5-0.8-1.3-0.8-2.2-0.4c-1.1,0.5-1.7,2.9-3.6,1.1c-2.1-2,0.7-2.7,1.1-4c0.4-1.2-0.3-1.9-1-2.6c-0.3-1.7-1.8-1.5-3-1.7l0.3-0.2
		c0,0,0.2,0.3,0.2,0.3c1.1-2,2.6-1.7,4.6-1.5C55.6,87.6,59.7,91.5,64.9,91.5z"/>
	<path class="st11" d="M335.4,313.1c0-5.7,0.3-11.3-0.1-17c-0.3-4.5,1.3-5.1,5-3.5c1.1,0.5,2.2,0.7,3.3,1c4,1.2,8.8,1.5,11.6,4
		c3.1,2.7,0.6,7.8,1.1,11.8c0.2,1.3-0.2,3.1,1.5,3.2c2.2,0.1,1.8-2,1.8-3.4c0.1-2.5-0.1-5,0-7.5c0-1.1-0.8-3,1.5-2.8
		c1.5,0.1,2.2,1.1,2.2,2.8c-0.1,5.7-0.5,11.4,0.1,16.9c0.6,5.8-1.4,8.3-7,9.4c-5.4,1-10.7,2.7-15.8,4.6c-4.8,1.8-5.6,0.2-5.4-4.2
		C335.6,323.4,335.4,318.3,335.4,313.1C335.4,313.1,335.4,313.1,335.4,313.1z"/>
	<path class="st12" d="M262.8,116.8c-6.3-0.1-12.6-0.2-19-0.2c-49.9,0-99.9-0.1-149.8-0.1c-0.1-1-0.1-2-0.2-3c0.2-0.5,0.3-1,0.5-1.6
		c1.2-0.1,2.3-0.3,3.5-0.3c56,0,112,0,168.1,0c1,0,2,0,3,0c2.2,0.2,1.3,1.9,1.4,3c0.2,1.5-0.5,2.1-2.1,1.8
		C266.4,116.2,264.6,115.9,262.8,116.8z"/>
	<path class="st10" d="M101.1,193.7c-11.9-11.3-23.4-22.8-34.7-34.7c0.1-1.4-0.4-2.2-1.8-2.4c-1.9-0.7-2.5-1.5-0.3-2.8
		c5.6-3.4,10.2-7.9,13.7-13.5c1.4-2.2,2.4-1.5,3.8-0.1c18,18.1,36,36.2,54,54.3c-0.2,0.3-0.4,0.6-0.6,1c-3.5,0.8-5.9-0.8-8.3-3.2
		c-13.3-13.5-26.8-26.9-40.3-40.3c-4.2-4.1-9.3-3.9-11.8,0.5c-2.2,3.9-0.5,6.9,2.3,9.8c10.1,10.1,20.2,20.3,30.2,30.5
		C105.1,193,103.1,193.4,101.1,193.7z"/>
	<path class="st10" d="M436.8,106.7c-0.8-0.7-1.6-1.5-2.4-2.2c-0.8-2.9-3.3-1.8-5-1.7c-3.9,0.3-5.3-1.1-5.1-5c0.2-2.8,1.2-6-1.2-8.6
		c-0.8-0.7-1.6-1.4-2.4-2.1c-0.4-0.4-0.6-1.3-1.3-0.3c-5.3,0.5-10.6,0.5-15.9,0c-1.1-1.5-2.6-0.9-4.1-1c1.9-3.2,4.9-5.4,7.5-8
		c5.8-5.9,8.3-5.9,14-0.2c11.8,11.7,23.7,23.4,35.5,35.1c-5.2,6.1-11,11.7-16.9,17c-2.1-5.8-0.5-11.9-1-17.8
		C438.3,110.1,439.4,107.7,436.8,106.7z"/>
	<path class="st4" d="M394.5,116.5c0.6,9,0.6,9-8.4,9c-20.7,0-41.5,0-62.2,0c-0.7,0-1.3,0-2,0c-7.3-0.1-7.3-0.1-5.7-7.1
		c0.2-0.6,0.3-1.3,0.4-1.9C342.6,116.5,368.5,116.5,394.5,116.5z"/>
	<path class="st10" d="M287.9,68.8c0.5,6.7,0.5,13.5,5.9,18.7c1.5,1.5,0.1,3.5-0.2,5.1c-0.6,2.9-0.3,5.2,2.7,6.5
		c0.5,4.5-4.3,4.5-6,7.1c-2.3,1.2-3.9,3.1-5.4,5.1c-0.4,0.4-1.4,0.6-0.4,1.3c0,0.7,0,1.3-0.1,2c-2.7-0.1-3.7,3.6-6.6,3.1
		c-1.3-4.5-0.2-8.6,2.4-12.2c2.4-3.4,2.2-5.7-1.8-7.3c-0.9-1.8-2.3-3.4-1.9-5.8c1.1-7.8,3.3-15.1,7.9-21.6
		C285.3,69.5,286.1,68.5,287.9,68.8z"/>
	<path class="st3" d="M124.6,195.1c-5.7,1.1-9.7,0.7-13.6-3.5c-9.9-10.5-20.3-20.5-30.6-30.8c-0.8-0.8-1.7-1.6-2.4-2.5
		c-1.3-1.7-1.4-3.4,0.2-4.9c1.6-1.5,3.3-1.1,4.9,0.2c0.3,0.2,0.5,0.4,0.7,0.7C97.2,167.7,110.6,181.1,124.6,195.1z"/>
	<path class="st10" d="M305.5,104.5c4.8,6.1,5.3,12.4,1.3,18.8c-3.1,5.1-2.5,6.3,3.2,7.7c1.5,0.4,4.4-0.4,3.5,2.7
		c-0.8,2.7,1,6.7-3.4,7.9c-0.6,0.2-1.3,0.3-2,0.4c-6.3,1.2-6.3,1.2-5.1-5.1c1.3-6.8,0.2-7.8-6.3-6.6c-5,0.9-9.6,0.1-13.4-3.6
		c1.4-1.8,2.9-3.5,4.3-5.3c3.7,2.3,7.5,2.9,11.1,0.1c3.9-3,4-7,2.5-11.3C301.2,107.2,303.9,106.3,305.5,104.5z"/>
	<path class="st12" d="M394.5,116.5c-25.9,0-51.9,0-77.8,0c-0.4-2.6-0.6-4.5,3.3-3.7c3.5,0.7,6.9-1.4,10.6-1.3
		c19.8,0.3,39.7,0.2,59.5,0C394.1,111.5,395.6,112.5,394.5,116.5z"/>
	<path class="st10" d="M7.9,110.9c2.1,2.5,5.8,3.6,2,6.9c-0.7,0.6-0.4,1.5,0.4,2.1c1,0.9,1.9,0.3,2.6-0.4c1-1,1.8-2,3.2-0.4
		c1.2,1.3,0.2,2-0.6,2.9c-0.7,0.8-1.3,1.6-0.5,2.6c1,1.2,2.1,0.7,3-0.2c0.8-0.8,1.5-1.8,2.8-0.6c1.5,1.4,0.5,2.3-0.5,3.3
		c-0.7,0.7-1.2,1.6-0.3,2.6c0.9,0.9,1.8,0.6,2.6-0.1c1.5-1.5,2.6-0.7,3.8,0.5c1,1,2.3,1.8,3.4,2.8c7.7,7.4,7.6,7.3-0.2,14.8
		c-1.8,1.7-3,1.8-5.1,0.6C12,141,5.3,126.8,7.9,110.9z M25.9,133.6c-3.2,0.5-5.3,2.2-5.2,5.6c0.1,3,1.8,5.1,5,4.9
		c3.1-0.2,5.4-2.2,5.4-5.4C31.1,135.7,28.9,134,25.9,133.6z"/>
	<path class="st11" d="M275.7,291.1c0,13.9,0,27.7,0,41.4c0,2.6-1.4,2.1-2.9,1.3c-4.2-2.3-7-5.9-7.3-10.7c-0.3-7-0.4-14,0-21
		C265.8,296.7,269.6,292.8,275.7,291.1z"/>
	<path class="st8" d="M399.9,335.6c-2.8,0-5.7,0-8.5,0c-8.5-0.1-6.7,0.9-7.1-7.2c-0.2-3.9,0.9-5.2,5-5.1c7.3,0.3,14.6,0.3,21.9,0
		c3.6-0.1,4.8,1.1,4.4,4.6c-0.2,1.5-0.1,3,0,4.5c0.2,2.4-0.9,3.2-3.2,3.2C408.2,335.5,404.1,335.6,399.9,335.6z"/>
	<path class="st6" d="M273.7,148.7c-0.6,6.9-3.7,13-6.4,19.2c-0.3,0.7-0.7,1.5-1.7,1.6c-3.1,0.3-9.2-5.4-8.8-8.5
		c0.4-3.9-0.2-7.6-1.5-11.2c0.8-0.3,1.9-0.3,2.2-0.9c4.2-6.3,9-4.7,14.1-1.3C272.2,148.1,273,148.3,273.7,148.7z"/>
	<path class="st11" d="M377.3,313.1c0,5.8,0,11.6,0,17.4c0,2.6-0.7,4.9-3.7,4.8c-2.7-0.1-3.3-2.2-3.3-4.7c0-12,0-23.9,0-35.9
		c0-2.4,0.6-4.5,3.4-4.5c3.1,0,3.6,2.3,3.6,4.9C377.3,301.2,377.3,307.1,377.3,313.1C377.3,313.1,377.3,313.1,377.3,313.1z"/>
	<path class="st6" d="M314.7,151.5c0.9,1.6,1.6,3.2,2.6,4.7c1.6,2.3,1.2,4-0.9,5.9c-1.5,1.4-3.1,3.4-3.3,5.4
		c-0.8,7.5-5.8,8.3-11.7,8.1c0-5.1,0-10.3,0-15.4c0-3.8,0.8-6.7,5.5-7C309.6,153.1,312.1,152.1,314.7,151.5z"/>
	<path class="st13" d="M456.4,112.6c-11.8-11.7-23.7-23.4-35.5-35.1c-5.7-5.7-8.3-5.7-14,0.2c-2.5,2.6-5.5,4.8-7.5,8
		c0,0.3,0,0.6,0,0.9c-2.8,0.5-5.1,1.6-5.1,5c-3.7,0.6-4.8,4.5-7.9,6c-1.5-2.1-0.1-3.4,1.2-4.7c7.6-7.7,15.3-15.3,22.9-23
		c2.6-2.6,4.6-2.4,7.1,0.2c12.4,12.5,24.9,24.9,37.3,37.4C456.5,108.9,458.2,110.3,456.4,112.6z"/>
	<path class="st14" d="M287.9,68.8c-1.8-0.3-2.6,0.7-3.5,2.1c-4.6,6.5-6.7,13.8-7.9,21.6c-0.4,2.4,1,4,1.9,5.8
		c-4.4,0.2-5.9-1.2-4.9-6c1.4-6.7,3.3-13.1,6.4-19.2c6.7-13.1,13-26.5,19.5-39.7c0.8-1.5,1.2-3.8,3.8-2.8c2.4,1,0.7,2.8,0.6,4.2
		c-0.4,5-1.9,8.8-6.6,12.2C290.4,52,289.2,60.7,287.9,68.8z"/>
	<path class="st10" d="M175.6,255.4c3,5.1,6,10.3,9.1,15.4c0.9,1.5,0.9,2.6,0,4.1c-2.8,4.7-5.5,9.5-8.3,14.2
		c-0.3,0.6-0.7,1.1-1.5,2.2c-1-3.5-6.1-5.4-2.3-9.4c2.3-2.4,1.7-6.9,5.8-7.9c0.8-0.2,2.3-0.1,2-1.6c-0.3-1.4-1.4-1-2.4-0.8
		c-2.1,0.5-2.4-0.9-2.7-2.5c-0.4-1.4-0.9-3.1-1.9-4c-2.8-2.5-2.7-5.1-0.9-8C173.8,256.7,175,256.5,175.6,255.4z"/>
	<path class="st10" d="M397.7,72.4c-0.2,0.3-0.2,0.6-0.5,0.9c-2.6,2.6-4.9,6.7-7.8,7.3c-3.4,0.7-4.8-4.5-7.3-6.9
		c-4.3-4-9-7.4-13.8-10.6c2.9-3.5,6.3-0.8,9.2-0.3C385.1,64,392.2,66.5,397.7,72.4z"/>
	<path class="st10" d="M143.4,274.8c3-0.8,4.6,0,5.8,3.3c2,5.7,7.6,9.8,13.2,8.4c6.5-1.6,7.3,2.6,9.6,6.8c-6.8,0-13,0-19.1,0
		c-0.7-2.3,3.8-4.4,0.5-6.1c-2.3-1.2-2.4,2.6-4.4,3.6c-1.9-2.1-3.2-4.7-4.5-7.3C145.8,280.5,142.3,277.9,143.4,274.8z"/>
	<path class="st10" d="M163.5,303.6c0.7,10.9,0.7,11-10.2,10.9c-3.4,0-6.8,0.8-10.1-0.7c2-1.5,1.3-3.7,1.2-5.5c-0.3-3.7,1-5,4.8-4.8
		C153.9,303.9,158.7,303.6,163.5,303.6z"/>
	<path class="st10" d="M198.5,324.6c0.7,11,0.7,11-10.2,10.9c-3.3,0-6.8,0.9-10-0.7c2.1-1.4,1.3-3.6,1.2-5.5c-0.3-3.7,1-5,4.7-4.8
		C188.9,324.8,193.7,324.6,198.5,324.6z"/>
	<path class="st10" d="M477,128.6c1.6,0.8,2.3,1.7,0.7,3.3c-9.3,9.2-18.4,18.5-27.7,27.6c-3,2.9-3.5,0.3-3.8-2.2
		c8.2-10.1,18.1-18.5,27.1-27.8C474.3,128.5,475.7,128.6,477,128.6z"/>
	<path class="st10" d="M128.5,324.6c0,3,0,6,0,9c-0.7,0.1-1.5,0.1-2.2,0.2c0,0.2,0,0.4,0,0.5c0.7,0.1,1.5,0.2,2.2,0.3
		c-6.7,1.8-13.5,1.3-20.3,0.2c2-1.5,1.3-3.7,1.2-5.5c-0.3-3.7,1-5,4.8-4.8C118.9,324.8,123.7,324.6,128.5,324.6z"/>
	<path class="st6" d="M324.4,181.6c3.9-5.4,3.9-5.4,8.3-1c4.7,4.7,9.4,9.4,14.1,14.1c-2.2,1.8-2.9,0.2-4-1c-3-3.4-5.7-3.3-8.8,0
		c-1.6,1.6-12.4,2.8-14.1,1.5c-1.5-1.2-1.7-8.2-0.2-9.8C321.3,184,322.5,182.2,324.4,181.6c1,1.4-0.6,2.3-0.8,3.6
		c-0.5,3.6,1.1,5.9,4.6,6.4c3.4,0.4,5.5-1.6,5.7-4.8c0.2-3.2-1.8-5.1-5.2-5.4C327.2,181.2,325.9,182.5,324.4,181.6z"/>
	<path class="st14" d="M308.3,96.7c-2.2-2-6.3-2.1-7-5c-0.9-3.8,4.1-3.5,5.7-5.9c1.1-1.6,2.5-3.1,3.7-4.7c4.6,0.8,5.3-4.5,8.7-5.6
		c0.8,5.7,2.1,11.3,1,17c-2-1.3-0.2-3.8-1.8-5.4C315.3,90.4,311.8,93.6,308.3,96.7z"/>
	<path class="st9" d="M169.3,104.6c-7.7,0-8.2-0.4-8.8-8.2c-0.1-1.5,0-3-0.3-4.4c-0.4-1.6-0.8-3.1,1.6-3.1c1.8,0,4.2-1.1,4.5,2.2
		c0.2,2,0.7,3.9,1.1,5.8c0.4,1.7,0,4.5,2.4,4.2c2.6-0.4,1.2-2.8,1-4.5c-0.4-2.3-0.7-4.6-1-6.9c-0.2-1.3-0.2-2.7,1.7-3
		c1.6-0.2,2,1,2.2,2.1c0.9,4.5,1.9,9.1,2.7,13.6c0.3,1.5-0.6,2.1-2,2.1C172.6,104.6,171,104.6,169.3,104.6z"/>
	<path class="st10" d="M468.3,321.9c-4-1.3-7.1-2.5-10.3-3.3c-2.9-0.7-3.6-2.2-3.9-5.2c-0.3-4.2,1.3-5.7,5.1-6.9
		c9.1-2.7,9.1-2.9,9.1,6.3C468.3,315.6,468.3,318.5,468.3,321.9z"/>
	<path class="st2" d="M73.9,176.5c3.8,3.9,7.5,7.9,11.3,11.7c1.8,1.8,1.7,4,1.2,6c-0.6,2.2-2.8,1.1-4.3,1.2
		c-9.3,0.2-9.3,0.1-9.3-9.3c0-2.9,0-5.9,0-8.8C73.2,177,73.6,176.8,73.9,176.5z"/>
	<path class="st13" d="M384.5,312.6c-0.6-2.4,0.1-3.3,2.7-3.3c18.8,0.1,37.6,0.1,56.5,0c3.8,0,2.8,2.2,2.6,4.2
		c-1.8-1.2-3.8-0.9-5.8-0.9C421.8,312.6,403.2,312.6,384.5,312.6z"/>
	<path class="st8" d="M219.9,331.5c13.6,0.1,27.1,0.2,40.7,0.3c2.5,2.8,2.2,4-1.9,4c-11.6-0.2-23.3-0.1-34.9,0
		C220.6,335.7,218.9,335,219.9,331.5z"/>
	<path class="st3" d="M445.2,143.7c-1.7-0.4-2.5-2-3.6-3.1c-1.1-1.1-0.5-2.1,0.4-3c4.7-4.7,9.4-9.3,14-14.1c1.3-1.3,2.4-1,3.2,0.3
		c0.9,1.3,3.9,2.2,2,4.3c-4.8,5.2-10,10.1-15,15.1C445.9,143.5,445.5,143.5,445.2,143.7z"/>
	<path class="st15" d="M376.4,132.8c-3.7,6.4-9.6,10.8-14.8,15.7c-3.7,3.5-8.1,6.2-10.2,11.1c-2.2,2.3-4.4,4.5-6.6,6.8
		c-1,1-1.9,1.9-3.3,0.5c-1.4-1.3-0.8-2.2,0.3-3.3c9.9-9.9,19.8-19.7,29.6-29.6C372.9,132.5,374.6,132.5,376.4,132.8z"/>
	<path class="st2" d="M162.1,265.8c3.6,0,7,3.4,7,7.1c0,3.6-3.4,6.9-7.1,6.9c-3.7,0-7-3.3-6.9-7C155,269.1,158.5,265.8,162.1,265.8z
		"/>
	<path class="st10" d="M485.6,312.4c0,5.9-2.9,8.6-8.6,8.9c-2.1,0.1-1.6-1.2-1.6-2.2c-0.1-2.8-0.1-5.6,0-8.4c0.1-2.2-1-6.1,0.6-6.4
		c2.6-0.5,5.9,0.7,8.4,2C487,307.7,485,310.7,485.6,312.4z"/>
	<path class="st10" d="M319.5,75.6c-3.4,1.1-4.1,6.4-8.7,5.6c6.5-10.4,6.3-26.1-0.3-35.6c2.5-0.7,1.4-4.1,3.7-5.1
		c1,1.7-0.9,4.4,2.1,5C317.3,55.6,318.4,65.6,319.5,75.6z"/>
	<path class="st7" d="M86.5,133.7c-2.8-0.6-4.6-2.1-3.8-5.1c2.7-10.7,1.2-20.9-3.4-30.8c2.4,0,4.8,0,7.2-0.1c0,12,0,24.1,0,36.1
		C86.5,133.8,86.5,133.7,86.5,133.7z"/>
	<path class="st11" d="M334.9,170.7c0.8,0.7,1.4,1.3,2,1.8c5.2,5.2,10.3,10.3,15.5,15.5c1.1,1.1,2.6,2,0.6,3.9
		c-1.9,1.9-2.8,1.3-4.3-0.3c-5.1-5.2-10.3-10.3-15.4-15.5c-0.7-0.7-2.3-1.3-1.2-2.7C332.8,172.4,333.9,171.6,334.9,170.7z"/>
	<path class="st8" d="M73.3,301.4c1.1,0.1,2.1,0.2,3.2,0.3c0,10,0,20-0.1,29.9c0,1.5,0.8,3.8-1.8,3.9c-2.7,0.1-1.9-2.3-1.9-3.7
		C73,321.6,71.9,311.4,73.3,301.4z"/>
	<path class="st14" d="M175.6,255.4c-0.6,1.1-1.8,1.3-2.9,1.7c-1.4-1.6-3.4-1.6-4.1,0.1c-1.7,4-3.7,1.7-5.7,0.7
		c1.2-0.1,2.3-0.2,4.2-0.4c-2.3-1.3-3.2-0.4-4.3,0.4c-0.7,0.7-1.3,0.8-1.8-0.2c-1.1-0.7-2.2-1.8-3.8,0c1.5,0,2.6,0,3.8,0
		c-5.2,2.4-3.9,4.3-9-5.6c7.2,0,14.1-0.1,20.9,0.1C174.6,252.2,175.1,254,175.6,255.4z"/>
	<path class="st11" d="M328.2,292.7c-14.9,0-29.8,0-44.7,0c-0.1-0.7-0.1-1.4-0.2-2.2c14.2-1.1,28.3-0.2,42.5-0.4
		C327.5,290,328.7,290.6,328.2,292.7z"/>
	<path class="st10" d="M384.5,312.6c18.6,0,37.3,0,55.9,0c2,0,4-0.3,5.8,0.9c0,0.4,0.1,0.7,0.1,1.1c-20.6,0-41.3,0-61.9,0
		C384.5,314,384.5,313.3,384.5,312.6z"/>
	<path class="st14" d="M384.5,314.6c20.6,0,41.3,0,61.9,0c0.4,2.1-1.2,1.5-2.2,1.5c-19.1,0-38.2,0-57.3,0
		C385.9,316.2,384.5,316.5,384.5,314.6z"/>
	<path class="st10" d="M308.3,96.7c3.5-3.2,6.9-6.3,10.4-9.5c1.6,1.7-0.3,4.2,1.8,5.4c-0.4,2.9-0.9,5.8-1.2,8.8
		c-0.2,1.7-1.1,3-2.5,3.3c-1.4,0.3-2.7-0.8-3.6-1.9C311.6,100.7,310,98.7,308.3,96.7z"/>
	<path class="st3" d="M451.7,163.6c0.7-2.4,2.8-3.6,4.4-5.2c7.6-7.7,15.2-15.3,22.9-22.8c0.8-0.8,1.6-2.8,3.1-1.6
		c1.2,1,0.4,2.5-0.6,3.5c-8.5,8.6-17.1,17.2-25.7,25.7C454.7,164.2,453.3,164.9,451.7,163.6z"/>
	<path class="st14" d="M397.7,72.4c-5.5-5.8-12.6-8.4-20.2-9.6c-2.9-0.5-6.3-3.2-9.2,0.3c-3.2-1.4-6.3-2.7-10.8-4.6
		c16-1.8,29,2.1,40.6,11.1C399.9,71,399.2,71.7,397.7,72.4z"/>
	<path class="st11" d="M314.7,151.5c-2.6,0.6-5.1,1.5-7.7,1.7c-4.7,0.2-5.5,3.2-5.5,7c0,5.1,0,10.3,0,15.4c-1,0-1.6-0.4-1.7-1.4
		c-0.5-7-0.8-13.9,0.1-20.9c0.2-1.6,0.8-2.8,2.7-3.1c2.8-0.4,5.6-0.9,8.3-1.5C313.3,148.2,314.3,149.4,314.7,151.5z"/>
	<path class="st8" d="M156.6,328.3c0,1.7,0,3.3,0,5c0,2.6-1.8,2.3-3.5,2.3c-1.7,0-3.5,0.1-3.4-2.4c0-2.3,0-4.7,0-7
		c0-2.3-0.6-4.6,3.2-4.7c3.9-0.1,3.9,2.1,3.7,4.7C156.5,326.9,156.6,327.6,156.6,328.3C156.6,328.3,156.6,328.3,156.6,328.3z"/>
	<path class="st13" d="M60.9,112.7c3.5,5.3,2.1,14.6-3.3,20.3c-4.9,5.1-10,10.1-15,15.2c-1.2,1.3-2.9,2.3-3.1,4.3
		c-1.1,0-2.3,0-4.7,0c6.8-6.8,12.9-13.1,19.2-19.1C60,127.6,62.5,120.9,60.9,112.7z"/>
	<path class="st14" d="M205.5,327.8c1.6-1.5-3-5.9,2.9-6.3c3.4-0.2,5,0.7,4.3,4.3c-0.3,1.4-0.3,3,0,4.5c0.8,4.2-2,5.1-5,5.2
		c-3.9,0.1-1.5-3.1-2.1-4.8C205.3,329.9,205.5,329,205.5,327.8z"/>
	<path class="st10" d="M93.7,328.5c0-1.5,0.1-3,0-4.5c-0.2-3.1,2-2.4,3.7-2.5c1.9-0.1,3.8-0.2,3.5,2.7c-0.2,2-0.4,4.1,0,6
		c0.9,4.3-2,5.3-4.9,5.3c-3.7,0-1.5-3.2-2.1-5C93.6,329.9,93.7,329.2,93.7,328.5C93.7,328.5,93.7,328.5,93.7,328.5z"/>
	<path class="st10" d="M135.7,328.1c0.8-2.3-2.5-7.3,4.2-6.6c2.1,0.2,3.1,0.6,2.9,2.8c-0.2,2-0.4,4.1,0,6c0.8,4-1.8,5-4.5,5.2
		c-4.2,0.3-1.9-3.2-2.5-5.1C135.6,329.8,135.7,329.1,135.7,328.1z"/>
	<path class="st14" d="M163.5,328.2c0-3.4-1.4-7.8,4.9-6.6c1.6,0.3,2.4,0.6,2.3,2.4c-0.1,2.8-0.1,5.6-0.1,8.5c0,3.7-3.2,2.6-5,3.1
		c-2.7,0.7-2-1.8-2.1-3.3C163.5,330.8,163.5,329.5,163.5,328.2z"/>
	<path class="st14" d="M64.9,91.5c-5.2-0.1-9.2-3.9-14.3-4.5c-2-0.2-3.5-0.6-4.6,1.5c-1.6-1.9-2.7-4.6-6-1.4c-1,1-2.9-1.8-4.5-3.7
		C46.9,81.7,56.5,84.2,64.9,91.5z"/>
	<path class="st15" d="M160.1,10.5c0.2,1.7-0.9,2-2.1,1.9c-5.4-0.2-10.6,0.9-15.6,2.7c-1.3,0.5-2.6,1-3-1.1
		c-0.3-1.6-0.3-2.9,1.8-3.3c5.4-0.9,10.8-1.9,16.2-2.9C159.6,7.4,159.8,9,160.1,10.5z"/>
	<path class="st8" d="M415.5,233.6c-1.6,0.7-3.2,1.5-4.7,2.2c-0.1-5.3-0.2-10.5-0.3-15.8c0-1.7-0.1-3.3,2.4-3.4
		c2.8-0.1,2.7,1.7,2.7,3.6C415.6,224.7,415.5,229.1,415.5,233.6z"/>
	<path class="st13" d="M477,128.6c-1.3,0-2.8-0.1-3.8,0.9c-9,9.3-18.8,17.7-27.1,27.8c-2.9-0.9-1.3-2.6-0.3-3.6
		c8.5-8.7,17.1-17.2,25.7-25.8C473.5,126,475.4,126.4,477,128.6z"/>
	<path class="st14" d="M198.5,324.6c-4.8,0-9.6,0.2-14.3-0.1c-3.8-0.2-5,1.1-4.7,4.8c0.2,1.8,0.9,4-1.2,5.5
		c-0.1-0.2-0.2-0.3-0.2-0.5c-0.9-12.7-0.9-12.7,11.8-12.7c2.1,0,4.3,0.1,6.4,0C198.6,321.4,198.9,322.7,198.5,324.6z"/>
	<path class="st14" d="M147.4,270.6c-2.4,1.7-5.1,0.9-8.5,0.9c3.3-5.8,6.4-11.2,9.9-17.3c1.4,2.4,2.4,4.3,3.5,6.2
		c-2.5,0-3.9,1.4-5,3.5C146.1,266.2,142.6,268.4,147.4,270.6z"/>
	<path class="st13" d="M163.5,303.6c-4.8,0-9.6,0.2-14.4-0.1c-3.7-0.2-5.1,1-4.8,4.8c0.2,1.8,0.8,4-1.2,5.5
		c-0.1-0.2-0.2-0.3-0.2-0.5c-0.9-12.8-0.9-12.8,11.7-12.8c2.1,0,4.3,0.1,6.4,0C163.6,300.4,164,301.7,163.5,303.6z"/>
	<path class="st14" d="M272.4,136.4c-4.9-1.5-7-4.3-4.8-9.4c0.5-1.1,0-2.9,1.9-3c1.5-0.1,2.9,0.2,3.7,1.8c0.7,1.3,1.5,2.5,2.3,3.7
		C274.2,131.8,271.7,133.4,272.4,136.4z"/>
	<path class="st14" d="M128.5,324.6c-4.8,0-9.6,0.2-14.4-0.1c-3.7-0.2-5.1,1.1-4.8,4.8c0.2,1.8,0.9,4-1.2,5.5
		c-1.3-13.2-1.3-13.2,11.6-13.2c2.1,0,4.3,0.1,6.4,0C128.7,321.4,129,322.7,128.5,324.6z"/>
	<path class="st11" d="M273.7,148.7c-0.7-0.4-1.5-0.6-2.2-1.1c-5-3.5-9.9-5.1-14.1,1.3c-0.4,0.5-1.5,0.6-2.2,0.9
		c-1.4-4.2,3.2-4.6,4.6-7c1.9-3.2,4.4-3.2,7.3-0.9c1.7,1.3,3.7,2.2,5.5,3.3C274.3,146,274.9,147.1,273.7,148.7z"/>
	<path class="st14" d="M305.5,104.5c-1.6,1.7-4.3,2.7-4.3,5.7c-2.9-3.5-6.4-5.2-11-4c1.8-2.6,6.5-2.6,6-7.1
		C300.2,99.5,303.3,101.2,305.5,104.5z"/>
	<path class="st11" d="M246.9,195.5c-1-0.9-4.3,1.7-4.1-1.4c0.1-2.1,1.3-5.9,4.2-5.6c2.4,0.2,6.6,1.4,6.8,3.9
		C254,196,250.2,195.7,246.9,195.5z"/>
	<path class="st14" d="M287.6,121.4c-1.4,1.8-2.9,3.5-4.3,5.3c-3.3-2.1-4.9-5.3-5.4-9c2.9,0.5,3.9-3.2,6.6-3.1
		C284.7,117.3,285.9,119.5,287.6,121.4z"/>
	<path class="st4" d="M429.4,116.5c0.1,1.8,0,3.6,0.2,5.4c0.3,2.7-0.6,3.7-3.5,3.7c-3,0-3.7-1.2-3.5-3.8c0.2-1.8,0.2-3.6,0.3-5.4
		C425.2,116.5,427.3,116.5,429.4,116.5z"/>
	<path class="st10" d="M386.5,97.6c3-1.5,4.2-5.4,7.9-6c0.1,3.4,0.2,6.9,0.3,10.3c0,0.9,0.4,2.1-0.9,2.5c-0.9,0.3-1.6-0.4-2.1-1
		C390,101.4,387.7,100,386.5,97.6z"/>
	<path class="st14" d="M316.3,45.6c-3-0.7-1.1-3.3-2.1-5c-2.3,0.9-1.1,4.4-3.7,5.1c-2-4.4,0.7-8.5,1.1-12.7c0.1-1.1,1.2-0.8,2-0.7
		c1.4,0.3,1.8,1.2,1.9,2.5C315.6,38.3,316,42,316.3,45.6z"/>
	<path class="st10" d="M435.5,133.6c-1.3,1.4-2.7,2.9-4.1,4.3c-1.2,1.1-2.6,1.7-4.1,0.7c-1.8-1.2-3.6-2.5-4.3-4.6
		c-0.5-1.4,1-1.4,1.9-1.4c3.2,0,6.3,0,9.5,0C434.8,133,435.2,133.3,435.5,133.6z"/>
	<path class="st11" d="M248.4,184.5c4.3-1.7,7.9-3.2,11.6-4.7C258.2,188.8,256.6,189.5,248.4,184.5z"/>
	<path class="st9" d="M158.3,101.8c0.1,1.4,0.2,2.5-1.2,2.6c-1.2,0.2-1.8-0.7-2-1.7c-0.7-3.9-1.7-7.7-1.6-11.7
		c0-0.9,0.2-1.8,1.2-1.7c0.5,0,1.2,0.7,1.3,1.2C156.9,94.4,157.6,98.3,158.3,101.8z"/>
	<path class="st8" d="M406.9,228.8c-1,0.3-2.1,0.6-3.1,0.9c-0.1-3.6-0.2-7.2-0.3-10.8c0-1.3,0.3-2.3,1.9-2.3c1.6,0,1.9,1.1,1.8,2.3
		C407.2,222.3,407,225.6,406.9,228.8z"/>
	<path class="st14" d="M135.4,312.6c0,0.4,0.1,0.7,0.1,1.1c-0.4,0.3-0.8,0.5-1.2,0.8c-4.3,0.7-6.4-0.7-5.6-5.4
		c0.3-1.7,0.2-3.6-0.1-5.4c-0.3-2.4,0.6-3.3,3-3.1c2,0.2,4.7-0.7,3.7,3c-3.6-0.4-5.2,0.6-5.2,4.7C130.3,312.5,132.3,313,135.4,312.6
		z"/>
	<path class="st14" d="M176.4,314.5c-4.3,0.7-6.4-0.7-5.6-5.4c0.3-1.7,0.2-3.6-0.1-5.4c-0.3-2.4,0.6-3.3,3-3.1c2,0.2,4.7-0.7,3.7,3
		c-3.6-0.4-5.2,0.6-5.2,4.7c0,4.1,2,4.6,5.1,4.3c0,0.4,0.1,0.7,0.1,1.1C177.2,314,176.8,314.3,176.4,314.5z"/>
	<path class="st11" d="M301.6,186.4c3.6,3.2,6.4,5.8,9.7,8.7C302.9,196,302.9,196,301.6,186.4z"/>
	<path class="st10" d="M177.4,312.6c-3.2,0.4-5.1-0.1-5.1-4.3c0-4.2,1.6-5.2,5.2-4.7C177.5,306.6,177.5,309.6,177.4,312.6z"/>
	<path class="st10" d="M135.4,312.6c-3.2,0.4-5.1-0.1-5.1-4.3c0-4.2,1.6-5.2,5.2-4.7C135.5,306.6,135.5,309.6,135.4,312.6z"/>
	<path class="st5" d="M415.5,97.7c-4.5,0.2-9-0.7-13.5,0.8c-0.1-1-0.1-2-0.2-3c0.2-0.3,0.3-0.6,0.5-0.9c3.7,0,7.3,0.1,11-0.1
		C415.9,94.4,415.9,95.8,415.5,97.7z"/>
	<path class="st11" d="M311.8,190.8c-3.1-2.8-5.5-5-7.9-7.2C310.4,180,311,180.5,311.8,190.8z"/>
	<path class="st11" d="M261,175.6c-3.8,1.5-6.9,2.8-10.4,4.2C253.5,170.9,253.5,170.9,261,175.6z"/>
	<path class="st10" d="M147.4,270.6c-4.8-2.1-1.4-4.4-0.1-6.7c1.1-2,2.6-3.4,5-3.5c1.3,0.8,0.7,1.7-0.1,2.3
		C149.7,264.8,149.3,268.1,147.4,270.6z"/>
	<path class="st5" d="M86.5,97.7c-2.4,0-4.8,0-7.2,0.1c-0.7-1-2.2-1.9-1.5-3.3c0.6-1.2,2.2-0.6,3.2-0.4
		C83.1,94.6,87.8,91.7,86.5,97.7z"/>
	<path class="st12" d="M429.4,116.5c-2.1,0-4.3,0-6.4-0.1c0-1.3-0.1-2.7-0.1-4c0.3-0.1,0.4-0.3,0.4-0.6
		C426.9,111.5,431,110.3,429.4,116.5z"/>
	<path class="st14" d="M423.1,89.1c2.4,2.5,1.4,5.7,1.2,8.6c-0.2,4,1.2,5.4,5.1,5c1.7-0.1,4.2-1.2,5,1.7
		c-11.6,0.1-11.6,0.1-11.5-11.4C422.9,91.8,423,90.4,423.1,89.1z"/>
	<path class="st14" d="M436.8,106.7c2.6,1.1,1.5,3.4,1.6,5.2c0.6,5.9-1.1,11.9,1,17.8c-0.5,0.5-1,1.1-1.5,1.6
		c-0.3-0.4-0.7-0.7-1-1.1C436.9,122.3,436.8,114.5,436.8,106.7z"/>
	<path class="st10" d="M272.4,136.4c-0.7-3,1.8-4.6,3.1-6.8c2.7,2.3,1,5.1,0.2,7.3C274.8,139.5,273.5,136.9,272.4,136.4z"/>
	<path class="st14" d="M143.4,274.8c-1.1,3.1,2.3,5.6,1.1,8.8c-1.7-2.8-3.4-5.6-5.1-8.4C140.9,274.2,142.2,274.7,143.4,274.8z"/>
	<path class="st14" d="M101.1,193.7c2-0.3,4.1-0.7,6.1-1c0.7,0.6,1.4,1.3,2.8,2.5C106.4,195.2,103.4,196.8,101.1,193.7z"/>
	<path class="st14" d="M45.4,88.4c1.2,0.2,2.6,0,3,1.7c-0.6,0.2-1.3,0.3-1.8,0.6c-1.1,0.7-2.1,2.7-3.4,0.6
		C41.6,88.8,44.2,89,45.4,88.4z"/>
	<path class="st10" d="M162.8,257.8c1-0.7,2-1.7,4.3-0.4C165.2,257.7,164,257.8,162.8,257.8C162.9,257.9,162.8,257.8,162.8,257.8z"
		/>
	<path class="st14" d="M399.5,86.6c0-0.3,0-0.6,0-0.9c1.4,0.1,3-0.6,4.1,1C402.2,86.7,400.8,86.6,399.5,86.6z"/>
	<path class="st14" d="M64.6,156.6c1.4,0.2,2,1,1.8,2.4C65.5,158.4,64.5,157.9,64.6,156.6z"/>
	<path class="st14" d="M128.4,334.6c-0.7-0.1-1.5-0.2-2.2-0.3c0-0.2,0-0.4,0-0.5c0.7-0.1,1.5-0.1,2.2-0.2
		C128.5,334,128.5,334.3,128.4,334.6z"/>
	<path class="st4" d="M94.3,111.9c-0.2,0.5-0.3,1-0.5,1.6C93.6,112.8,93.4,112.2,94.3,111.9z"/>
	<path class="st9" d="M283.3,290.5c0.1,0.7,0.1,1.4,0.2,2.2c-0.2,0-0.4,0.1-0.7,0.1C282.6,291.9,282.4,291.1,283.3,290.5z"/>
	<path class="st0" d="M423,240.5c1.5,0.8,1.5,1.6,0,2.3C423,242,423,241.2,423,240.5z"/>
	<path class="st14" d="M435.5,133.6c-0.4-0.3-0.7-0.7-1.1-1c0.2-0.2,0.4-0.3,0.7-0.3c0.3,0.3,0.6,0.5,0.9,0.8
		C436,133.4,435.8,133.6,435.5,133.6z"/>
	<path class="st3" d="M176.4,314.5c0.4-0.3,0.8-0.5,1.2-0.8C177.5,314.5,177.1,314.7,176.4,314.5z"/>
	<path class="st4" d="M423.3,111.9c0,0.3-0.1,0.5-0.4,0.6C422.7,112.1,422.8,111.9,423.3,111.9z"/>
	<path class="st0" d="M423.1,269.5c1,0.5,0.8,0.9,0,1.3C423,270.3,423,269.9,423.1,269.5z"/>
	<path class="st14" d="M436.3,131.4c0.2-0.4,0.5-0.8,0.7-1.3c0.3,0.4,0.7,0.7,1,1.1c-0.3,0.4-0.7,0.7-1,1.1
		C436.7,132,436.5,131.7,436.3,131.4z"/>
	<path class="st10" d="M135.7,194.4c0.2,0.2,0.4,0.5,0.6,0.7c-0.4,0.1-0.8,0.2-1.3,0.3C135.2,195.1,135.5,194.8,135.7,194.4z"/>
	<polygon class="st5" points="86.5,133.7 86.5,133.8 86.6,134 	"/>
	<path class="st14" d="M419.4,86.7c0.7-1,1-0.2,1.3,0.3C420.3,86.9,419.9,86.8,419.4,86.7z"/>
	<path class="st14" d="M437,132.3c-0.3,0.3-0.6,0.6-0.8,0.8c-0.3-0.3-0.6-0.5-0.9-0.8c0.4-0.3,0.7-0.6,1.1-0.9
		C436.5,131.7,436.7,132,437,132.3z"/>
	<path class="st7" d="M402.3,94.6c-0.2,0.3-0.3,0.6-0.5,0.9C401.6,95,401.6,94.7,402.3,94.6z"/>
	<path class="st3" d="M134.4,314.5c0.4-0.3,0.8-0.5,1.2-0.8C135.5,314.5,135.1,314.7,134.4,314.5z"/>
	<path class="st1" d="M219.2,251.1c0,6.5,0,13,0,19.4c0,1.4,0.3,3.4-1.8,3.5c-2.2,0.1-1.8-1.9-1.8-3.4c0-12.6,0-25.3,0-37.9
		c0-1.5-0.5-3.8,1.9-3.7c2,0.1,1.6,2.1,1.7,3.6C219.2,238.8,219.2,245,219.2,251.1z"/>
	<path class="st1" d="M227.7,262.2c0,6.1,0,12.3,0,18.4c0,1.5,0.7,3.9-1.7,3.9c-2,0-1.6-2.2-1.6-3.6c0-12.6,0-25.2,0-37.9
		c0-1.4-0.4-3.5,1.8-3.4c2.1,0.1,1.5,2.2,1.6,3.6C227.8,249.6,227.7,255.9,227.7,262.2z"/>
	<path class="st1" d="M219.2,284.4c-0.8,1.7,1.6,5.6-2.1,5.6c-2.8-0.1-1.2-3.8-1.5-5.9c-0.2-1.6-0.1-3.3,0-4.9
		c0-1.2,0.2-2.4,1.8-2.5c1.5,0,1.8,1.2,1.8,2.4C219.2,280.7,219.2,282.3,219.2,284.4z"/>
	<path class="st1" d="M79.7,295.3c-0.2,1.3,0.4,3.4-1.8,3.2c-1.7-0.1-1.6-1.9-1.5-3.2c0-1.4-0.3-3.4,1.9-3.3
		C80,292.1,79.6,293.9,79.7,295.3z"/>
	<path class="st1" d="M199.4,52.4c3.3,0.3,5,2.3,4.9,5.3c-0.1,3.3-2.3,5.1-5.6,4.9c-3-0.2-5-2.2-4.9-5.2
		C194,54.2,196.2,52.5,199.4,52.4z"/>
	<path class="st1" d="M141.2,30.6c2.8,0.1,5.1,2.4,5.8,6c0.7,3.5-1.3,6-4.5,7.5c-0.9,0.4-2,0.7-2.7-0.2c-0.9-1.2-0.4-2.2,0.8-2.9
		c1.7-1,3.2-2,2.5-4.3c-0.4-1.5-1.6-2-3.1-2c-2.3,0-3.2,1.3-3.4,3.4c-0.1,1.1-1,1.8-2.1,1.5c-1.3-0.3-1.6-1.4-1.5-2.7
		C133.2,33.5,136.5,30.5,141.2,30.6z"/>
	<path class="st1" d="M287.5,314.7c-2.2-2.6-0.6-3.6,1.9-3.7c10.8-0.1,21.6-0.1,32.4,0c2.7,0,3.8,1.2,1.8,3.7
		C311.5,314.7,299.5,314.7,287.5,314.7z"/>
	<path class="st1" d="M287.5,298.8c-1.9-2.2-1.1-3.4,1.5-3.4c11-0.1,21.9,0,32.9,0c2.2,0,3.1,0.9,2.6,3
		C312.1,298.6,299.8,298.7,287.5,298.8z"/>
	<path class="st1" d="M287.3,330.5c-1.6-2-1.3-3.6,1.5-3.6c6-0.2,12-0.2,18,0c2.9,0.1,2.6,1.9,0.9,3.7
		C300.9,330.5,294.1,330.5,287.3,330.5z"/>
	<path class="st11" d="M287.5,298.8c12.3-0.1,24.6-0.2,36.9-0.4c-0.8,2.2-2.6,2.2-4.5,2.2c-9.4,0-18.8,0-28.2,0
		C290.1,300.6,288.4,300.6,287.5,298.8z"/>
	<path class="st11" d="M287.5,314.7c12,0,24.1,0,36.1,0c-0.9,1.7-2.5,1.9-4.2,1.9c-9.2,0-18.5,0-27.7,0
		C289.9,316.6,288.3,316.5,287.5,314.7z"/>
	<path class="st1" d="M320.1,326.7c1.7,0.4,4.4-0.8,4.3,2c-0.1,2.1-2.4,2.7-4.5,2.8c-2.1,0.1-3.7-1-3.6-3
		C316.4,326.1,318.8,327.1,320.1,326.7z"/>
	<path class="st11" d="M287.3,330.5c6.8,0,13.6,0.1,20.3,0.1C300.9,332.3,294.1,332.5,287.3,330.5z"/>
	<path class="st1" d="M287.6,121.4c-1.7-2-2.9-4.2-3.1-6.8c0-0.7,0-1.3,0.1-2c0.1-0.4,0.2-0.9,0.4-1.3c1.5-2,3.1-3.9,5.4-5.1
		c4.6-1.2,8.1,0.5,11,4c1.5,4.3,1.3,8.3-2.5,11.3C295,124.4,291.3,123.7,287.6,121.4z M290.2,119c6.4,1.1,8.1-0.3,7.8-5.4
		C295.6,115.3,293.3,116.8,290.2,119z M288.3,116c2.9-2,5.2-3.7,7.9-5.5C290.6,109,289.1,110,288.3,116z"/>
	<path class="st14" d="M284.9,111.3c-0.1,0.4-0.2,0.9-0.4,1.3C283.5,111.9,284.5,111.7,284.9,111.3z"/>
	<path class="st1" d="M25.9,133.6c3.1,0.4,5.2,2.1,5.2,5.1c0,3.2-2.2,5.1-5.4,5.4c-3.2,0.2-5-1.9-5-4.9
		C20.6,135.8,22.6,134.1,25.9,133.6z"/>
	<path class="st1" d="M324.4,181.6c1.5,0.9,2.8-0.4,4.3-0.3c3.4,0.3,5.3,2.2,5.2,5.4c-0.2,3.2-2.3,5.3-5.7,4.8
		c-3.5-0.5-5.1-2.8-4.6-6.4C323.8,184,325.4,183.1,324.4,181.6C324.5,181.6,324.4,181.6,324.4,181.6z"/>
	<path class="st10" d="M161,257.6c-1.1,0-2.3,0-3.8,0C158.8,255.9,159.9,257,161,257.6C161,257.6,161,257.6,161,257.6z"/>
	<path class="st14" d="M290.2,119c3.1-2.2,5.4-3.7,7.8-5.4C298.3,118.7,296.5,120.1,290.2,119z"/>
	<path class="st14" d="M288.3,116c0.8-6,2.3-7.1,7.9-5.5C293.5,112.4,291.2,114,288.3,116z"/>
</g>
</svg>
